<?xml version="1.0" standalone="no"?>
<!DOCTYPE svg PUBLIC "-//W3C//DTD SVG 1.1//EN" "http://www.w3.org/Graphics/SVG/1.1/DTD/svg11.dtd" >
<svg xmlns="http://www.w3.org/2000/svg" xmlns:xlink="http://www.w3.org/1999/xlink" version="1.1">
<metadata>
Created by FontForge 20170731 at Mon Jul 16 14:58:53 2007
 By Aleksey,,,
Copyright (c) The Font Bureau, Inc., 2003. All rights reserved.
</metadata>
<defs>
<font id="AntennaCond-Black" horiz-adv-x="498" >
  <font-face 
    font-family="AntennaCond Black"
    font-weight="900"
    font-stretch="normal"
    units-per-em="1000"
    panose-1="2 0 5 3 0 0 0 2 0 4"
    ascent="800"
    descent="-200"
    x-height="575"
    cap-height="741"
    bbox="-47 -259 1613 975"
    underline-thickness="50"
    underline-position="-200"
    unicode-range="U+0020-FB02"
  />
<missing-glyph horiz-adv-x="164" 
 />
    <glyph glyph-name="fi" unicode="fi" horiz-adv-x="661" 
d="M8 409v166h95v30q0 188 226 188q45 0 55 -1v-166h-36q-34 0 -44 -8.5t-10 -34.5v-8h90v-166h-90v-409h-191v409h-95zM423 0v575h191v-575h-191zM422 615v154h193v-154h-193z" />
    <glyph glyph-name="fl" unicode="fl" horiz-adv-x="696" 
d="M8 409v166h95v30q0 188 226 188q45 0 55 -1v-166h-36q-34 0 -44 -8.5t-10 -34.5v-8h90v-166h-90v-409h-191v409h-95zM668 0q-21 -3 -71 -3q-88 0 -131 39.5t-43 146.5v586h191v-559q0 -31 8.5 -38t45.5 -7v-165z" />
    <glyph glyph-name="f_f_l" unicode="ffl" horiz-adv-x="1016" 
d="M423 0v409h-129v-409h-191v409h-95v166h95v30q0 188 226 188q45 0 55 -1v-166h-36q-34 0 -44 -8.5t-10 -34.5v-8h129v30q0 188 226 188q45 0 55 -1v-166h-36q-34 0 -44 -8.5t-10 -34.5v-8h90v-166h-90v-409h-191zM988 0q-21 -3 -71 -3q-88 0 -131 39.5t-43 146.5v586h191
v-559q0 -31 8.5 -38t45.5 -7v-165z" />
    <glyph glyph-name="f_f_i" unicode="ffi" horiz-adv-x="981" 
d="M423 0v409h-129v-409h-191v409h-95v166h95v30q0 188 226 188q45 0 55 -1v-166h-36q-34 0 -44 -8.5t-10 -34.5v-8h129v30q0 188 226 188q45 0 55 -1v-166h-36q-34 0 -44 -8.5t-10 -34.5v-8h90v-166h-90v-409h-191zM743 0v575h191v-575h-191zM742 615v154h193v-154h-193z
" />
    <glyph glyph-name="f_j" unicode="fj" horiz-adv-x="661" 
d="M8 409v166h95v30q0 188 226 188q45 0 55 -1v-166h-36q-34 0 -44 -8.5t-10 -34.5v-8h90v-166h-90v-409h-191v409h-95zM376 -158v151h12q24 1 29.5 10.5t5.5 45.5v526h191v-533q0 -114 -44.5 -157t-164.5 -43h-29zM422 615v154h193v-154h-193z" />
    <glyph glyph-name="f_f" unicode="ff" horiz-adv-x="747" 
d="M423 0v409h-129v-409h-191v409h-95v166h95v30q0 188 226 188q45 0 55 -1v-166h-36q-34 0 -44 -8.5t-10 -34.5v-8h129v30q0 188 226 188q61 0 95 -3v-164h-76q-34 0 -44 -8.5t-10 -34.5v-8h130v-166h-130v-409h-191z" />
    <glyph glyph-name=".notdef" horiz-adv-x="164" 
 />
    <glyph glyph-name=".null" horiz-adv-x="0" 
 />
    <glyph glyph-name="nonmarkingreturn" horiz-adv-x="333" 
 />
    <glyph glyph-name="space" unicode=" " horiz-adv-x="164" 
 />
    <glyph glyph-name="space" unicode="&#xa0;" horiz-adv-x="164" 
 />
    <glyph glyph-name="exclam" unicode="!" horiz-adv-x="372" 
d="M79 0v212h213v-212h-213zM99 245l-16 496h207l-17 -496h-174z" />
    <glyph glyph-name="quotedbl" unicode="&#x22;" horiz-adv-x="569" 
d="M74 360l-9 381h198l-9 -381h-180zM316 360l-10 381h198l-10 -381h-178z" />
    <glyph glyph-name="numbersign" unicode="#" horiz-adv-x="685" 
d="M81 0l23 155h-67v173h93l7 47h-100v173h126l29 193h180l-29 -193h53l29 193h180l-29 -193h71v-173h-97l-7 -47h104v-173h-130l-23 -155h-180l23 155h-53l-23 -155h-180zM292 314h85l11 75h-84z" />
    <glyph glyph-name="dollar" unicode="$" horiz-adv-x="581" 
d="M198 -94v95q-113 13 -196 74l90 142q87 -62 192 -62q53 0 70 14.5t17 47.5q0 28 -20 42t-76 28q-109 28 -147 49q-91 54 -93 176q0 99 40.5 153t122.5 70v80h194v-80q77 -13 141 -50l-88 -152q-64 36 -153 36q-39 0 -54.5 -11.5t-15.5 -39.5q0 -26 20.5 -37t82.5 -26
q42 -10 67 -17t61 -24.5t55.5 -39t34.5 -58.5t15 -85q0 -100 -38 -154t-128 -72v-99h-194z" />
    <glyph glyph-name="percent" unicode="%" horiz-adv-x="1158" 
d="M244 245q-113 0 -168 58.5t-55 193.5t55 193t168 58t169 -58.5t56 -192.5q0 -135 -56 -193.5t-169 -58.5zM245 385q32 0 44 22t12 84t-12 84t-44 22t-43.5 -22t-11.5 -84t11.5 -84t43.5 -22zM912 -7q-113 0 -168 58.5t-55 193.5t55 193t168 58t169 -58.5t56 -192.5
q0 -135 -56 -193.5t-169 -58.5zM913 133q32 0 44 22t12 84t-12 84t-44 22t-43.5 -22t-11.5 -84t11.5 -84t43.5 -22zM316 0l352 741h176l-352 -741h-176z" />
    <glyph glyph-name="ampersand" unicode="&#x26;" horiz-adv-x="771" 
d="M306 -9q-144 0 -215.5 48t-71.5 168q0 81 36 127t104 78q-42 71 -42 141q0 104 59 154t162 50q101 0 154 -48t53 -156q0 -120 -126 -192l29 -29l62 -67q23 57 40 199l160 -18q-22 -207 -81 -306l133 -140h-237l-24 25q-75 -34 -195 -34zM306 147q41 0 74 6l-81 86
q-43 46 -44 47q-47 -32 -47 -69q0 -16 2.5 -26t11.5 -21.5t30 -17t54 -5.5zM300 553q0 -37 23 -75q54 32 54 75q0 22 -9 31.5t-30 9.5q-20 0 -29 -9.5t-9 -31.5z" />
    <glyph glyph-name="quotesingle" unicode="'" horiz-adv-x="328" 
d="M74 360l-9 381h199l-9 -381h-181z" />
    <glyph glyph-name="parenleft" unicode="(" horiz-adv-x="479" 
d="M250 -182q-71 71 -122 193.5t-51 292.5q0 153 53 287t120 201l142 -85q-27 -41 -44 -71t-37 -79.5t-29.5 -112t-9.5 -138.5q0 -240 120 -403z" />
    <glyph glyph-name="parenright" unicode=")" horiz-adv-x="479" 
d="M229 -182l-141 85q27 42 43 71t36.5 79t30 112.5t9.5 138.5q0 240 -119 403l141 85q71 -71 122 -193.5t51 -292.5q0 -153 -53 -287t-120 -201z" />
    <glyph glyph-name="asterisk" unicode="*" horiz-adv-x="565" 
d="M206 215l17 148l-103 -90l-83 137l131 68l-131 70l82 136l104 -91l-17 149h150l-16 -151l105 93l82 -135l-133 -71l133 -69l-81 -134l-106 90l16 -150h-150z" />
    <glyph glyph-name="plus" unicode="+" horiz-adv-x="638" 
d="M229 92v178h-153v165h153v176h180v-176h153v-165h-153v-178h-180z" />
    <glyph glyph-name="comma" unicode="," horiz-adv-x="291" 
d="M97 -176l-51 94q60 32 73 43.5t13 38.5h-93v216h213v-196q0 -75 -28 -112t-127 -84z" />
    <glyph glyph-name="hyphen" unicode="-" horiz-adv-x="343" 
d="M24 258v175h293v-175h-293z" />
    <glyph glyph-name="hyphen" unicode="&#xad;" horiz-adv-x="343" 
d="M24 258v175h293v-175h-293z" />
    <glyph glyph-name="period" unicode="." horiz-adv-x="291" 
d="M39 0v216h213v-216h-213z" />
    <glyph glyph-name="slash" unicode="/" horiz-adv-x="543" 
d="M0 0l349 741h194l-349 -741h-194z" />
    <glyph glyph-name="zero" unicode="0" horiz-adv-x="677" 
d="M340 -9q-78 0 -133 18.5t-86.5 48.5t-49.5 81.5t-23 103t-5 127.5q0 74 5 125t22.5 103t49 82.5t87 50t133.5 19.5t133 -19.5t86 -50.5t48 -83.5t22 -102.5t5 -124q0 -55 -2.5 -94.5t-9.5 -81.5t-20 -70.5t-34.5 -55.5t-52.5 -42.5t-75 -25t-100 -9.5zM340 167
q61 0 79 44t18 159q0 113 -18 154.5t-79 41.5q-62 0 -80.5 -41.5t-18.5 -154.5q0 -115 18.5 -159t80.5 -44z" />
    <glyph glyph-name="one" unicode="1" horiz-adv-x="388" 
d="M121 0v567h-98v174h288v-741h-190z" />
    <glyph glyph-name="two" unicode="2" horiz-adv-x="571" 
d="M17 0v150l201 198q67 66 86 92.5t19 56.5q0 39 -18 55.5t-69 16.5q-70 0 -144 -36l-83 160q112 57 262 57q127 0 185 -53t58 -158q0 -61 -17.5 -106.5t-49 -84t-99.5 -105.5l-79 -77h259v-166h-511z" />
    <glyph glyph-name="three" unicode="3" horiz-adv-x="579" 
d="M267 -9q-149 0 -255 61l86 157q80 -44 156 -44q62 0 81 15.5t19 63.5q0 40 -21 53.5t-81 13.5h-117v147h116q50 0 67 12.5t17 47.5q0 30 -18.5 40.5t-65.5 10.5q-76 0 -149 -35l-81 156q105 60 262 60q124 0 182 -39t58 -140q0 -72 -14.5 -110t-54.5 -54q51 -18 70.5 -57
t19.5 -128q0 -126 -66 -178.5t-211 -52.5z" />
    <glyph glyph-name="four" unicode="4" horiz-adv-x="623" 
d="M21 131v146l259 464h199l-254 -453h120l38 193h137v-193h84v-157h-84v-131h-177v131h-322z" />
    <glyph glyph-name="five" unicode="5" horiz-adv-x="603" 
d="M294 -9q-171 0 -282 61l86 157q80 -44 183 -44q54 0 77 16.5t23 69.5q0 52 -21.5 69t-68.5 17q-60 0 -95 -18l-148 44l21 378h468v-174h-311l-3 -90q38 27 142 27q111 0 159.5 -55.5t48.5 -193.5q0 -82 -18 -135t-56.5 -81t-86 -38t-118.5 -10z" />
    <glyph glyph-name="six" unicode="6" horiz-adv-x="649" 
d="M337 -9q-78 0 -133 16.5t-86.5 43.5t-49.5 73.5t-23 93.5t-5 116q0 75 4.5 125.5t17.5 100.5t38.5 80.5t65.5 55t100 35t141 10.5h107v-174h-118q-94 0 -125 -21.5t-36 -79.5q39 47 169 47q65 0 108.5 -18.5t66 -54.5t31.5 -79t9 -104q0 -139 -63 -202.5t-219 -63.5z
M341 158q48 0 67.5 23t19.5 75q0 56 -20.5 79t-64.5 23q-51 0 -77 -22t-26 -76q0 -56 20.5 -79t80.5 -23z" />
    <glyph glyph-name="seven" unicode="7" horiz-adv-x="542" 
d="M103 0l208 567h-294v174h502v-150l-212 -591h-204z" />
    <glyph glyph-name="eight" unicode="8" horiz-adv-x="646" 
d="M322 -10q-63 0 -111 8.5t-78.5 25t-50.5 35.5t-30 46.5t-13.5 51.5t-3.5 56q0 38 2.5 62.5t11.5 52.5t29 47.5t51 32.5q-43 23 -58 62t-15 97q0 38 11 68.5t38.5 58t82.5 42.5t134 15q80 0 135 -15t82 -43t37.5 -58t10.5 -68q0 -124 -73 -159q34 -13 54.5 -32.5
t29.5 -48.5t11 -51.5t2 -62.5q0 -32 -3.5 -56t-13.5 -51.5t-30.5 -46.5t-51 -35.5t-79 -25t-111.5 -8.5zM322 149q53 0 73.5 23.5t20.5 68.5q0 46 -20 69t-74 23q-53 0 -72.5 -23t-19.5 -69q0 -45 19.5 -68.5t72.5 -23.5zM322 458q42 0 60 16.5t18 51.5q0 34 -18 49.5
t-60 15.5q-41 0 -59.5 -15.5t-18.5 -49.5q0 -68 78 -68z" />
    <glyph glyph-name="nine" unicode="9" horiz-adv-x="649" 
d="M135 0v166h118q92 0 124.5 21t36.5 82q-39 -47 -169 -47q-124 0 -169.5 65.5t-45.5 190.5q0 140 63 206t219 66q78 0 132.5 -16.5t86.5 -43.5t49.5 -73.5t23 -93.5t5.5 -116q0 -64 -3.5 -110t-13 -91t-26.5 -75.5t-44 -57t-66 -41.5t-92 -23.5t-122 -8.5h-107zM306 377
q52 0 77.5 22t25.5 76q0 56 -20.5 79t-80.5 23q-48 0 -67.5 -23t-19.5 -75q0 -56 20.5 -79t64.5 -23z" />
    <glyph glyph-name="colon" unicode=":" horiz-adv-x="306" 
d="M47 0v211h212v-211h-212zM47 365v210h212v-210h-212z" />
    <glyph glyph-name="semicolon" unicode=";" horiz-adv-x="306" 
d="M47 365v210h212v-210h-212zM105 -176l-51 94q60 32 73 43.5t13 38.5h-93v211h212v-191q0 -75 -27.5 -112t-126.5 -84z" />
    <glyph glyph-name="less" unicode="&#x3c;" horiz-adv-x="638" 
d="M507 57l-412 225v129l412 224v-183l-210 -105l210 -106v-184z" />
    <glyph glyph-name="equal" unicode="=" horiz-adv-x="638" 
d="M76 140v175h486v-175h-486zM76 390v174h486v-174h-486z" />
    <glyph glyph-name="greater" unicode="&#x3e;" horiz-adv-x="638" 
d="M130 57v183l211 105l-211 106v184l412 -225v-129z" />
    <glyph glyph-name="question" unicode="?" horiz-adv-x="610" 
d="M194 227q0 87 17 125t87 86q47 32 60.5 46.5t13.5 39.5q0 26 -18.5 38t-72.5 12q-69 0 -148 -37l-83 160q109 53 265 53q138 0 194 -47.5t56 -138.5q0 -56 -14.5 -94t-33 -56.5t-57.5 -45.5q-58 -41 -69 -61.5t-11 -79.5h-186zM181 0v187h213v-187h-213z" />
    <glyph glyph-name="at" unicode="@" horiz-adv-x="873" 
d="M437 -165q-118 0 -198.5 29t-127 89.5t-66 141.5t-19.5 196t19.5 196.5t66 141.5t127 89.5t198.5 29.5t198 -29.5t126.5 -89.5t66 -141.5t19.5 -196.5q0 -143 -34 -201.5t-141 -58.5q-57 0 -92 22t-47 52q-41 -75 -173 -75q-36 0 -64 9.5t-46 27.5t-30 40.5t-18 53.5
t-8.5 60.5t-2.5 67.5q0 59 7 101.5t25 81t54 58.5t91 20q61 0 88.5 -10t45.5 -34l32 38l121 -12v-328q3 -50 11 -59q7 -8 26 -8q29 0 37 27t8 127q0 189 -65.5 273t-234.5 84q-170 0 -235.5 -84t-65.5 -273t65.5 -272.5t235.5 -83.5q116 0 229 46l41 -95q-68 -26 -126 -38.5
t-144 -12.5zM421 174q41 0 54 24.5t13 88.5q0 63 -12 85.5t-55 22.5q-37 0 -49 -22.5t-12 -85.5q0 -66 11.5 -89.5t49.5 -23.5z" />
    <glyph glyph-name="A" unicode="A" horiz-adv-x="696" 
d="M8 0l233 746h214l233 -746h-205l-25 88h-226l-25 -88h-199zM277 258h135l-67 223z" />
    <glyph glyph-name="B" unicode="B" horiz-adv-x="648" 
d="M53 0v741h296q251 0 251 -192q0 -125 -80 -162q51 -19 73 -61t22 -117q0 -104 -67 -156.5t-194 -52.5h-301zM248 157h104q63 0 63 72q0 69 -64 69h-103v-141zM248 440h94q59 0 59 73q0 33 -12.5 49t-46.5 16h-94v-138z" />
    <glyph glyph-name="C" unicode="C" horiz-adv-x="594" 
d="M338 -9q-171 0 -243 96.5t-72 282.5q0 90 14.5 155t50.5 118t102.5 80t163.5 27q127 0 215 -58l-106 -165q-48 30 -116 30q-32 0 -52 -6t-37.5 -25.5t-25.5 -59t-8 -102.5q0 -62 7.5 -101t24.5 -59.5t38.5 -28t54.5 -7.5q64 0 122 38l98 -154q-98 -61 -231 -61z" />
    <glyph glyph-name="D" unicode="D" horiz-adv-x="671" 
d="M53 0v741h246q94 0 155 -15t107 -55t66.5 -113t20.5 -187q0 -93 -14 -158.5t-39.5 -107t-69.5 -65t-96 -32t-127 -8.5h-249zM251 171h69q33 0 52 5t38.5 24t28 60.5t8.5 109.5q0 55 -6.5 91.5t-16 56t-29.5 29.5t-36 12t-47 2h-61v-390z" />
    <glyph glyph-name="E" unicode="E" horiz-adv-x="584" 
d="M53 0v741h492v-181h-298v-97h286v-176h-286v-111h298v-176h-492z" />
    <glyph glyph-name="F" unicode="F" horiz-adv-x="573" 
d="M53 0v741h493v-181h-295v-113h282v-176h-282v-271h-198z" />
    <glyph glyph-name="G" unicode="G" horiz-adv-x="643" 
d="M326 -9q-89 0 -149.5 27t-93.5 79.5t-46.5 118t-13.5 154.5q0 199 75.5 289.5t262.5 90.5q137 0 230 -60l-106 -165q-61 34 -133 34q-33 0 -54 -6.5t-40 -25.5t-27.5 -59.5t-8.5 -103.5q0 -123 26 -166t96 -43q55 0 75 30.5t20 87.5v13h-128v161h309v-137
q0 -91 -12.5 -148t-45.5 -97.5t-89.5 -57t-146.5 -16.5z" />
    <glyph glyph-name="H" unicode="H" horiz-adv-x="709" 
d="M53 0v741h198v-263h205v263h200v-741h-200v284h-205v-284h-198z" />
    <glyph glyph-name="I" unicode="I" horiz-adv-x="324" 
d="M63 0v741h198v-741h-198z" />
    <glyph glyph-name="J" unicode="J" horiz-adv-x="416" 
d="M26 0v176h72q41 0 56 12.5t15 43.5v509h199v-522q0 -53 -12.5 -92t-32.5 -63t-51 -38.5t-64 -20t-75 -5.5h-107z" />
    <glyph glyph-name="K" unicode="K" horiz-adv-x="677" 
d="M53 0v741h196v-271l191 271h224l-220 -292l222 -449h-219l-135 277l-63 -88v-189h-196z" />
    <glyph glyph-name="L" unicode="L" horiz-adv-x="535" 
d="M53 0v741h198v-565h278v-176h-476z" />
    <glyph glyph-name="M" unicode="M" horiz-adv-x="849" 
d="M53 0v741h254l117 -397l119 397h254v-741h-193v414l-124 -414h-126l-126 414v-414h-175z" />
    <glyph glyph-name="N" unicode="N" horiz-adv-x="705" 
d="M53 0v741h208l203 -343v343h189v-741h-182l-230 385v-385h-188z" />
    <glyph glyph-name="O" unicode="O" horiz-adv-x="695" 
d="M348 -9q-80 0 -139.5 21t-94.5 54.5t-56 85t-28 102.5t-7 116t7 116.5t28 102.5t56 85t94.5 55t139.5 21t139.5 -21t94 -55t55.5 -85t28 -102.5t7 -116.5t-7 -116t-28 -102t-56 -85t-94 -55t-139 -21zM348 166q75 0 99 47t24 150q0 102 -24 149t-99 47q-76 0 -100 -47
t-24 -149q0 -103 24 -150t100 -47z" />
    <glyph glyph-name="P" unicode="P" horiz-adv-x="643" 
d="M53 0v741h309q139 0 199.5 -65.5t60.5 -186.5q0 -123 -62 -196.5t-202 -73.5h-110v-219h-195zM248 387h107q40 0 56.5 21.5t16.5 68.5q0 49 -16.5 70.5t-56.5 21.5h-107v-182z" />
    <glyph glyph-name="Q" unicode="Q" horiz-adv-x="695" 
d="M448 -192q-112 0 -166 42t-54 128q0 22 1 33q-62 16 -104.5 50.5t-63.5 84.5t-29.5 103t-8.5 121q0 65 7 116.5t28 102.5t56 85t94.5 55t139.5 21t139.5 -21t94 -55t55.5 -85t28 -102.5t7 -116.5q0 -59 -6 -105.5t-22.5 -93.5t-44.5 -80t-74.5 -57t-109.5 -32
q2 -17 15 -23.5t44 -6.5h83v-164h-109zM348 166q75 0 99 47t24 150q0 102 -24 149t-99 47q-76 0 -100 -47t-24 -149q0 -103 24 -150t100 -47z" />
    <glyph glyph-name="R" unicode="R" horiz-adv-x="655" 
d="M410 0l-95 230h-67v-230h-195v741h307q139 0 199.5 -63.5t60.5 -183.5q0 -173 -115 -233l112 -261h-207zM248 393h106q40 0 56.5 20t16.5 67q0 48 -16.5 68.5t-56.5 20.5h-106v-176z" />
    <glyph glyph-name="S" unicode="S" horiz-adv-x="613" 
d="M309 -10q-199 0 -307 72l100 151q82 -55 201 -55q55 0 74 12.5t19 40.5q0 33 -19.5 44t-96.5 30l-10.5 3t-10 2.5t-11.5 2.5q-110 27 -159.5 78.5t-49.5 144.5q0 235 279 235q143 0 248 -51l-86 -166q-72 34 -157 34q-51 0 -71 -9t-20 -37q0 -27 19.5 -37.5t85.5 -26.5
q146 -36 199 -84.5t53 -159.5q0 -224 -280 -224z" />
    <glyph glyph-name="T" unicode="T" horiz-adv-x="600" 
d="M200 0v560h-194v181h588v-181h-194v-560h-200z" />
    <glyph glyph-name="U" unicode="U" horiz-adv-x="697" 
d="M348 -12q-162 0 -231.5 69.5t-69.5 212.5v471h199v-452q0 -70 21.5 -96.5t83.5 -26.5t84 26t22 97v452h193v-471q0 -144 -69 -213t-233 -69z" />
    <glyph glyph-name="V" unicode="V" horiz-adv-x="686" 
d="M236 -5l-228 746h205l133 -461l131 461h201l-228 -746h-214z" />
    <glyph glyph-name="W" unicode="W" horiz-adv-x="925" 
d="M176 -5l-159 746h203l71 -375l88 375h177l88 -374l72 374h191l-159 -746h-186l-99 413l-99 -413h-188z" />
    <glyph glyph-name="X" unicode="X" horiz-adv-x="692" 
d="M460 0l-124 216l-112 -216h-214l225 392l-200 349h219l100 -174l88 174h216l-203 -351l225 -390h-220z" />
    <glyph glyph-name="Y" unicode="Y" horiz-adv-x="664" 
d="M232 0v240l-240 501h211l132 -291l133 291h204l-242 -505v-236h-198z" />
    <glyph glyph-name="Z" unicode="Z" horiz-adv-x="587" 
d="M17 0v148l298 412h-284v181h528v-163l-293 -402h302v-176h-551z" />
    <glyph glyph-name="bracketleft" unicode="[" horiz-adv-x="479" 
d="M84 -158v927h330v-163h-136v-608h138v-156h-332z" />
    <glyph glyph-name="backslash" unicode="\" horiz-adv-x="543" 
d="M349 0l-349 741h194l349 -741h-194z" />
    <glyph glyph-name="bracketright" unicode="]" horiz-adv-x="479" 
d="M62 -158v156h139v608h-135v163h329v-927h-333z" />
    <glyph glyph-name="asciicircum" unicode="^" 
d="M54 552l108 198h174l108 -198h-149l-48 67l-47 -67h-146z" />
    <glyph glyph-name="underscore" unicode="_" horiz-adv-x="382" 
d="M-31 -168v140h445v-140h-445z" />
    <glyph glyph-name="grave" unicode="`" 
d="M192 625l-152 198h210l103 -198h-161z" />
    <glyph glyph-name="a" unicode="a" horiz-adv-x="570" 
d="M205 -7q-109 0 -148.5 46t-39.5 135q0 115 65 155.5t229 40.5h17q-2 26 -14 36t-44 10q-83 0 -149 -30l-76 153q91 49 247 49q122 0 171.5 -42t49.5 -149v-195q0 -24 6 -30.5t30 -6.5v-165q-31 -3 -59 -3q-60 0 -88 9t-44 38q-23 -26 -57 -38.5t-96 -12.5zM251 148
q41 0 59 15t18 54v40h-16q-67 0 -90.5 -14.5t-23.5 -46.5q0 -25 10.5 -36.5t42.5 -11.5z" />
    <glyph glyph-name="b" unicode="b" horiz-adv-x="596" 
d="M42 6v763h190v-236q40 53 150 53q50 0 86 -16.5t56 -42t32 -66.5t15.5 -80t3.5 -92t-4.5 -93t-17 -80t-34.5 -65.5t-59 -41.5t-87 -16q-75 0 -103.5 9t-59.5 35l-30 -44zM313 157q42 0 55.5 25.5t13.5 97.5q0 74 -13 101t-56 27q-47 0 -63.5 -28t-16.5 -100
q0 -71 15.5 -97t64.5 -26z" />
    <glyph glyph-name="c" unicode="c" horiz-adv-x="467" 
d="M274 -8q-144 0 -199 72.5t-55 224.5q0 151 56 224t209 73q103 0 172 -33l-83 -165q-35 19 -78 19q-45 0 -63 -25.5t-18 -98.5q0 -76 18 -101t67 -25q34 0 90 20l71 -144q-84 -41 -187 -41z" />
    <glyph glyph-name="d" unicode="d" horiz-adv-x="596" 
d="M214 -7q-50 0 -86 16.5t-56 42t-32 66.5t-15.5 80t-3.5 92t4.5 93t17 80t34.5 65.5t59 41.5t87 16q55 0 86.5 -7.5t53.5 -28.5v219h191v-763l-153 -12l-14 49q-46 -50 -173 -50zM283 158q47 0 63.5 28t16.5 100q0 71 -15.5 97t-64.5 26q-42 0 -55.5 -25.5t-13.5 -97.5
q0 -74 13 -101t56 -27z" />
    <glyph glyph-name="e" unicode="e" horiz-adv-x="540" 
d="M278 -7q-150 0 -204 71t-54 225q0 148 59.5 222.5t203.5 74.5q71 0 117.5 -17t69.5 -49t34 -77t10.5 -101.5t-0.5 -122.5h-310q4 -37 21.5 -50.5t62.5 -13.5q79 0 155 33l71 -144q-94 -51 -236 -51zM279 422q-42 0 -58 -18.5t-18 -63.5h143q-2 48 -13.5 65t-53.5 17z" />
    <glyph glyph-name="f" unicode="f" horiz-adv-x="427" 
d="M8 409v166h95v30q0 188 226 188q61 0 95 -3v-164h-76q-34 0 -44 -8.5t-10 -34.5v-8h130v-166h-130v-409h-191v409h-95z" />
    <glyph glyph-name="g" unicode="g" horiz-adv-x="581" 
d="M280 203q-35 0 -51 1v-7q0 -14 12 -19t54 -5q111 -1 166.5 -15t77 -45.5t21.5 -94.5q0 -107 -69.5 -147t-209.5 -40q-149 0 -212.5 27.5t-63.5 108.5q0 103 105 128q-39 25 -39 84q0 39 20 68q-59 42 -59 140q0 103 62 151t186 48h17l258 59v-146h-75q51 -34 51 -112
q0 -100 -64.5 -142t-186.5 -42zM281 311q36 0 49.5 16.5t13.5 48.5t-13.5 48.5t-49.5 16.5q-35 0 -49 -16.5t-14 -48.5q0 -65 63 -65zM279 -46q52 0 69.5 12t17.5 39q0 23 -17 32t-68 9q-49 0 -67.5 -10t-18.5 -34q0 -48 84 -48z" />
    <glyph glyph-name="h" unicode="h" horiz-adv-x="591" 
d="M42 0v769h190v-228q39 45 152 45q96 0 132.5 -55t36.5 -154v-377h-192v328q0 42 -10.5 58.5t-44.5 16.5q-45 0 -59 -17t-14 -60v-326h-191z" />
    <glyph glyph-name="i" unicode="i" horiz-adv-x="285" 
d="M47 0v575h191v-575h-191zM46 615v154h193v-154h-193z" />
    <glyph glyph-name="j" unicode="j" horiz-adv-x="285" 
d="M0 -158v151h12q24 1 29.5 10.5t5.5 45.5v526h191v-533q0 -114 -44.5 -157t-164.5 -43h-29zM46 615v154h193v-154h-193z" />
    <glyph glyph-name="k" unicode="k" horiz-adv-x="562" 
d="M42 0v769h187v-393l130 199h197l-167 -239l175 -336h-204l-96 180l-35 -53v-127h-187z" />
    <glyph glyph-name="l" unicode="l" horiz-adv-x="320" 
d="M292 0q-21 -3 -71 -3q-88 0 -131 39.5t-43 146.5v586h191v-559q0 -31 8.5 -38t45.5 -7v-165z" />
    <glyph glyph-name="m" unicode="m" horiz-adv-x="889" 
d="M42 0v564l153 12l14 -42q44 52 170 52q100 0 130 -52q49 52 180 52q50 0 83 -15.5t49.5 -45.5t23 -64.5t6.5 -83.5v-377h-190v328q0 43 -9 59t-41 16q-43 0 -56.5 -17t-13.5 -60v-326h-190v328q0 43 -9 59t-41 16q-43 0 -56.5 -17t-13.5 -60v-326h-189z" />
    <glyph glyph-name="n" unicode="n" horiz-adv-x="591" 
d="M42 0v564l153 12l14 -42q44 52 175 52q96 0 132.5 -55t36.5 -154v-377h-192v328q0 42 -10.5 58.5t-44.5 16.5q-45 0 -59 -17t-14 -60v-326h-191z" />
    <glyph glyph-name="o" unicode="o" horiz-adv-x="577" 
d="M289 -9q-149 0 -209 74t-60 224q0 149 59.5 223t209.5 74q151 0 209.5 -74t58.5 -223q0 -153 -58 -225.5t-210 -72.5zM289 157q48 0 62 27.5t14 98.5t-14 98t-62 27t-62 -27.5t-14 -97.5q0 -71 14.5 -98.5t61.5 -27.5z" />
    <glyph glyph-name="p" unicode="p" horiz-adv-x="596" 
d="M42 -158v722l153 12l13 -40q46 50 174 50q50 0 86 -16.5t56 -42t32 -66.5t15.5 -80t3.5 -92t-4.5 -93t-17 -80t-34.5 -65.5t-59 -41.5t-87 -16q-55 0 -86.5 7.5t-53.5 28.5v-187h-191zM313 157q41 0 55 25.5t14 97.5q0 74 -13 101t-56 27q-47 0 -63.5 -28t-16.5 -100
q0 -71 15.5 -97t64.5 -26z" />
    <glyph glyph-name="q" unicode="q" horiz-adv-x="596" 
d="M364 -158v196q-36 -45 -150 -45q-50 0 -86 16.5t-56 42t-32 66.5t-15.5 80t-3.5 92t4.5 93t17 80t34.5 65.5t59 41.5t87 16q73 0 107.5 -9.5t56.5 -30.5l29 33l138 -13v-724h-190zM283 158q47 0 63.5 28t16.5 100q0 71 -15.5 97t-64.5 26q-42 0 -55.5 -25.5t-13.5 -97.5
q0 -74 13 -101t56 -27z" />
    <glyph glyph-name="r" unicode="r" horiz-adv-x="374" 
d="M42 0v564l152 12l16 -50q23 27 59 40.5t102 13.5v-181q-46 0 -74.5 -7t-41.5 -23t-17 -33t-4 -46v-290h-192z" />
    <glyph glyph-name="s" unicode="s" horiz-adv-x="488" 
d="M252 -7q-162 0 -250 46l73 144q84 -40 178 -40q42 0 42 26q0 15 -16.5 23t-90.5 28q-89 24 -125.5 60t-36.5 116q0 190 236 190q113 0 194 -32l-73 -155q-58 24 -129 24q-28 0 -37 -5t-9 -18q0 -12 15.5 -20t75.5 -23q99 -26 136.5 -63t37.5 -122q0 -179 -221 -179z" />
    <glyph glyph-name="t" unicode="t" horiz-adv-x="449" 
d="M8 409v166h103l27 113l151 34v-147h128v-166h-128v-194q0 -28 11 -39t50 -11h67v-165q-70 -6 -92 -6q-129 0 -177.5 43.5t-48.5 153.5v218h-91z" />
    <glyph glyph-name="u" unicode="u" horiz-adv-x="582" 
d="M291 -8q-145 0 -199 57t-54 201v325h192v-314q0 -29 0.5 -40t3.5 -27t9.5 -21t18.5 -9t31 -4q43 0 53 20t10 82v313h188v-325q0 -145 -52.5 -201.5t-200.5 -56.5z" />
    <glyph glyph-name="v" unicode="v" horiz-adv-x="559" 
d="M171 -6l-174 581h201l87 -336l88 336h189l-175 -581h-216z" />
    <glyph glyph-name="w" unicode="w" horiz-adv-x="794" 
d="M140 -6l-132 581h194l48 -300l71 300h169l70 -299l49 299h177l-131 -581h-183l-75 298l-72 -298h-185z" />
    <glyph glyph-name="x" unicode="x" horiz-adv-x="542" 
d="M339 0l-82 142l-73 -142h-188l167 306l-154 269h207l68 -119l61 119h188l-154 -284l167 -291h-207z" />
    <glyph glyph-name="y" unicode="y" horiz-adv-x="533" 
d="M70 -158v151h73q25 0 29 9l-176 573h197l78 -300l76 300h189l-186 -604q-25 -80 -70 -104.5t-137 -24.5h-73z" />
    <glyph glyph-name="z" unicode="z" horiz-adv-x="473" 
d="M6 0v124l213 285h-199v166h440v-127l-215 -294h224v-154h-463z" />
    <glyph glyph-name="braceleft" unicode="{" horiz-adv-x="510" 
d="M317 -158q-105 0 -152 36t-47 106q0 28 20 110.5t20 90.5q0 27 -20.5 34t-87.5 7v160q67 0 87.5 6.5t20.5 32.5q0 16 -20 94t-20 107q0 70 46.5 106.5t150.5 36.5h133v-163h-70q-31 0 -47 -9.5t-16 -36.5q0 -18 17 -80.5t17 -88.5q0 -65 -61 -85q61 -22 61 -86
q0 -35 -17 -98t-17 -73q0 -51 63 -51h70v-156h-131z" />
    <glyph glyph-name="bar" unicode="|" horiz-adv-x="362" 
d="M84 -158v927h194v-927h-194z" />
    <glyph glyph-name="braceright" unicode="}" horiz-adv-x="510" 
d="M62 -158v156h70q63 0 63 51q0 10 -17 73t-17 98q0 64 61 86q-61 20 -61 85q0 26 17 88.5t17 80.5q0 27 -16 36.5t-47 9.5h-70v163h133q104 0 150.5 -36.5t46.5 -106.5q0 -29 -20 -107t-20 -94q0 -26 20.5 -32.5t87.5 -6.5v-160q-67 0 -87.5 -7t-20.5 -34q0 -8 20 -90.5
t20 -110.5q0 -70 -47 -106t-152 -36h-131z" />
    <glyph glyph-name="asciitilde" unicode="~" 
d="M129 330l-121 71q35 68 75 98t95 30q32 0 71 -21.5t48 -21.5q31 0 67 49l121 -71q-35 -68 -75 -98t-95 -30q-32 0 -71 21.5t-48 21.5q-31 0 -67 -49z" />
    <glyph glyph-name="exclamdown" unicode="&#xa1;" horiz-adv-x="372" 
d="M82 0l17 496h175l16 -496h-208zM80 529v212h213v-212h-213z" />
    <glyph glyph-name="cent" unicode="&#xa2;" horiz-adv-x="505" 
d="M193 -94v101q-86 22 -120 90.5t-34 191.5q0 120 33.5 188.5t120.5 91.5v77h184v-68q46 -6 97 -28l-81 -162q-35 19 -78 19q-45 0 -63 -25.5t-18 -98.5q0 -76 18 -101t67 -25q34 0 90 20l70 -142q-53 -27 -102 -34v-95h-184z" />
    <glyph glyph-name="sterling" unicode="&#xa3;" horiz-adv-x="613" 
d="M408 -5q-97 0 -186 38q-62 -33 -208 -33v166q81 0 100.5 8.5t19.5 43.5q0 28 -14 89h-103v133h71q-14 65 -14 103q0 109 62.5 158t189.5 49q138 0 230 -47l-81 -155q-57 27 -148 27q-63 0 -63 -55q0 -34 9 -80h128v-133h-103q9 -59 9 -87q0 -30 -3 -54q36 -11 78 -11
q29 0 38 17t9 58v55h166v-64q0 -126 -41.5 -176t-145.5 -50z" />
    <glyph glyph-name="currency" unicode="&#xa4;" horiz-adv-x="645" 
d="M19 384v107h105q16 139 82.5 199t205.5 60q124 0 210 -51l-90 -161q-56 28 -121 28q-41 0 -62 -17t-30 -58h146v-107h-154v-33h154v-107h-144q9 -41 30 -59t59 -18q63 0 125 32l86 -152q-97 -56 -224 -56q-129 0 -193 58.5t-80 194.5h-105v107h99v33h-99z" />
    <glyph glyph-name="yen" unicode="&#xa5;" horiz-adv-x="621" 
d="M65 210v107h150l-212 424h203l105 -247l105 247h202l-212 -424h150v-107h-153v-33h153v-107h-153v-70h-186v70h-152v107h152v33h-152z" />
    <glyph glyph-name="brokenbar" unicode="&#xa6;" horiz-adv-x="362" 
d="M84 -158v383h194v-383h-194zM84 386v383h194v-383h-194z" />
    <glyph glyph-name="section" unicode="&#xa7;" horiz-adv-x="514" 
d="M132 -3q-34 0 -62 3v147h42q34 0 43.5 10.5t9.5 40.5q-64 14 -89.5 54.5t-25.5 111.5t26 112.5t89 56.5q0 50 8 84.5t29.5 65t65 45.5t109.5 15q35 0 63 -3v-156h-42q-34 0 -43.5 -10.5t-9.5 -39.5q65 -14 92 -56t27 -114t-27 -112t-92 -54q-1 -48 -10 -81.5t-31 -62.5
t-65 -43t-107 -14zM257 304q31 0 44.5 13.5t13.5 41.5q0 29 -13 41.5t-45 12.5t-45 -12.5t-13 -41.5q0 -28 13.5 -41.5t44.5 -13.5z" />
    <glyph glyph-name="dieresis" unicode="&#xa8;" 
d="M61 625v154h168v-154h-168zM269 625v154h168v-154h-168z" />
    <glyph glyph-name="copyright" unicode="&#xa9;" horiz-adv-x="669" 
d="M340 148q-102 0 -145.5 58t-43.5 169t43 169.5t156 58.5q75 0 129 -35l-64 -99q-28 18 -69 18q-40 0 -57 -21.5t-17 -93.5q0 -71 17.5 -94.5t57.5 -23.5q38 0 73 23l59 -93q-59 -36 -139 -36zM335 -9q-91 0 -154 28.5t-96.5 83t-47 118.5t-13.5 149t13.5 149t47 118.5
t96.5 83.5t154 29t153.5 -29t96 -83.5t47.5 -119t14 -148.5t-14 -148.5t-47.5 -119t-96 -83t-153.5 -28.5zM335 56q72 0 121.5 23.5t75 69t36 98t10.5 123.5t-10.5 123.5t-36 98t-75 69.5t-121.5 24q-73 0 -122.5 -24t-75 -69.5t-35.5 -98t-10 -123.5q0 -56 6 -100t22 -85.5
t42.5 -68.5t70 -43.5t102.5 -16.5z" />
    <glyph glyph-name="ordfeminine" unicode="&#xaa;" horiz-adv-x="526" 
d="M186 269q-78 0 -108 39t-30 107q0 93 52.5 126t185.5 33h13q-1 21 -10.5 29t-36.5 8q-66 0 -120 -24l-62 124q75 39 200 39q100 0 139.5 -33.5t39.5 -120.5v-158q0 -19 5 -24.5t24 -5.5v-134q-34 -2 -47 -2q-49 0 -73.5 9t-36.5 39q-19 -27 -47.5 -39t-87.5 -12zM64 101
v134h394v-134h-394zM237 394q33 0 47.5 12t14.5 44v32h-13q-54 0 -73 -11.5t-19 -37.5q0 -20 8.5 -29.5t34.5 -9.5z" />
    <glyph glyph-name="guillemotleft" unicode="&#xab;" horiz-adv-x="709" 
d="M188 0l-128 287l128 288h167l-114 -288l114 -287h-167zM456 0l-127 287l127 288h167l-114 -288l114 -287h-167z" />
    <glyph glyph-name="logicalnot" unicode="&#xac;" horiz-adv-x="832" 
d="M126 120q-90 108 -90 251q0 142 90 250q3 -2 7 -6q-87 -106 -87 -244t88 -244zM228 211q-57 70 -57 160t56 160q2 -1 4.5 -3.5l3.5 -3.5q-54 -67 -54 -153q0 -88 54 -153q-1 -1 -2 -2.5t-2.5 -2.5t-2.5 -2zM264 243q-45 56 -45 128t45 128q1 -1 4 -3.5t4 -3.5
q-43 -53 -43 -121t43 -121q-2 -1 -4.5 -3.5zM316 289q-28 36 -28 82q0 47 28 81l7 -7q-25 -33 -25 -74t26 -75q-2 -1 -4 -3.5t-4 -3.5zM349 320q-16 22 -16 51t16 51q2 -1 4 -3.5t4 -3.5q-14 -20 -14 -44t14 -44q-3 -2 -8 -7zM378 346q-7 12 -7 25t7 25l6 -5q-5 -10 -5 -20
t5 -20q-2 -2 -6 -5zM416 60q-116 0 -201 77l7 7q84 -74 194 -74q111 0 193 74q1 -2 3.5 -4t3.5 -4q-86 -76 -200 -76zM416 324q-15 0 -27 9l6 6q10 -7 21 -7q13 0 21 7q2 -2 5 -6q-10 -9 -26 -9zM482 319q-3 4 -7 7q14 20 14 45t-14 44l7 7q17 -22 17 -51t-17 -52zM292 269
q-35 45 -35 102q0 58 36 102l7 -7q-33 -43 -33 -95t33 -95q-5 -5 -8 -7zM416 -17q-144 0 -252 97l7 8q105 -95 245 -95q139 0 244 94l2 -1l4 -4l1 -2q-107 -97 -251 -97zM416 121q-92 0 -161 61l7 8q65 -59 154 -59t153 59q1 -1 3.5 -4t3.5 -4q-67 -61 -160 -61zM416 170
q-72 0 -129 49l7 7q52 -46 122 -46t121 46l3.5 -3.5t3.5 -4.5q-54 -48 -128 -48zM416 209q-57 0 -103 38l7 8q43 -36 96 -36t96 36q2 -2 6 -8q-45 -38 -102 -38zM416 265q-37 0 -66 24l7 8q25 -22 59 -22q33 0 58 22q1 -2 3.5 -4t3.5 -4q-29 -24 -65 -24zM358 445q-3 2 -7 7
l-1 1q29 24 66 24t66 -24l-8 -8q-25 22 -58 22t-58 -22zM570 552q-65 59 -154 59q-87 0 -153 -58l-7 7q69 61 160 61q92 0 161 -61q-2 -3 -7 -8zM454 346l-6 5q5 10 5 20t-5 20l6 5q7 -12 7 -25t-7 -25zM468 333q-5 5 -8 7q10 15 10 31t-10 31l8 7q12 -16 12 -38
q0 -21 -12 -38zM498 306q-3 2 -8 7q19 25 19 58t-19 58l7 7q22 -28 22 -65q0 -34 -21 -65zM540 269q-2 1 -4 3.5t-4 3.5q33 43 33 95q0 53 -34 95l8 7q36 -44 36 -102q0 -57 -35 -102zM568 243q-5 5 -8 7q43 53 43 121t-43 121l8 7q45 -56 45 -128t-45 -128zM604 211
q-3 2 -8 7q55 66 55 153q0 89 -55 153l8 7q57 -68 57 -160t-57 -160zM649 171q-1 1 -3.5 3t-3.5 3q69 85 69 194q0 110 -70 193l8 7q72 -86 72 -200t-72 -200zM706 120q-3 3 -8 7q88 106 88 244t-88 244l8 7q90 -108 90 -251q0 -142 -90 -251zM183 170q-72 88 -72 201
t71 200q1 -1 3.5 -3t4.5 -4q-69 -83 -69 -193q0 -111 69 -194zM334 306q-21 29 -21 65t21 65q3 -2 8 -7q-19 -25 -19 -58q0 -32 19 -57zM364 333q-12 17 -12 38t12 38q1 -1 2 -2.5t2.5 -2.5t2.5 -2q-9 -16 -9 -31t9 -31zM395 403l-5 6q10 9 26 9t26 -9l-5 -6q-11 7 -21 7
q-13 0 -21 -7zM384 416l-7 7q17 14 39 14q21 0 38 -14q-4 -4 -6 -7q-14 12 -32 12q-17 0 -32 -12zM371 430l-7 8q22 19 52 19t52 -19l-7 -8q-19 17 -45 17t-45 -17zM295 516l-7 8q54 48 128 48t128 -49l-2 -1l-2 -4l-2 -2q-52 46 -122 46t-121 -46zM416 240q-48 0 -83 30
l7 8q35 -28 76 -28q42 0 75 28l7 -7q-36 -31 -82 -31zM416 285q-29 0 -53 19l7 8q22 -17 46 -17q25 0 45 17l7 -8q-22 -19 -52 -19zM416 305q-21 0 -40 14l7 7q17 -12 33 -12q17 0 32 12l7 -7q-17 -14 -39 -14zM341 464l-7 7q36 31 82 31q47 0 82 -30l-7 -8q-33 28 -75 28
t-75 -28zM320 487l-7 8q44 38 103 38q58 0 102 -39l-6 -7q-41 36 -96 36q-53 0 -96 -36zM610 597q-81 75 -194 75q-110 0 -194 -74l-7 7q87 77 201 77t201 -77zM172 654l-7 8q107 97 251 97t252 -97l-7 -8q-105 95 -245 95q-139 0 -244 -95zM516 290l-7 7q25 33 25 74
t-26 75l8 7q28 -36 28 -82q0 -47 -28 -81z" />
    <glyph glyph-name="registered" unicode="&#xae;" horiz-adv-x="669" 
d="M335 -9q-91 0 -154 28.5t-96.5 83t-47 118.5t-13.5 149t13.5 149t47 118.5t96.5 83.5t154 29t153.5 -29t96 -83.5t47.5 -119t14 -148.5t-14 -148.5t-47.5 -119t-96 -83t-153.5 -28.5zM335 56q72 0 121.5 23.5t75 69t36 98t10.5 123.5t-10.5 123.5t-36 98t-75 69.5
t-121.5 24q-73 0 -122.5 -24t-75 -69.5t-35.5 -98t-10 -123.5q0 -56 6 -100t22 -85.5t42.5 -68.5t70 -43.5t102.5 -16.5zM387 157l-58 137h-40v-137h-114v431h180q88 0 119.5 -35.5t31.5 -107.5q0 -107 -68 -137l66 -151h-117zM289 386h62q24 0 33 11t9 39q0 29 -9 40.5
t-33 11.5h-62v-102z" />
    <glyph glyph-name="macron" unicode="&#xaf;" 
d="M51 625v157h396v-157h-396z" />
    <glyph glyph-name="macron" unicode="&#x2c9;" 
d="M51 625v157h396v-157h-396z" />
    <glyph glyph-name="degree" unicode="&#xb0;" horiz-adv-x="486" 
d="M243 258q-219 0 -219 246t219 246q220 0 220 -246t-220 -246zM243 400q41 0 54.5 25.5t13.5 73.5t-13.5 73t-54.5 25q-40 0 -53.5 -25t-13.5 -73t13.5 -73.5t53.5 -25.5z" />
    <glyph glyph-name="plusminus" unicode="&#xb1;" horiz-adv-x="1016" 
d="M423 0v409h-129v-409h-191v409h-95v166h95v30q0 188 226 188q45 0 55 -1v-166h-36q-34 0 -44 -8.5t-10 -34.5v-8h129v30q0 188 226 188q45 0 55 -1v-166h-36q-34 0 -44 -8.5t-10 -34.5v-8h90v-166h-90v-409h-191zM988 0q-21 -3 -71 -3q-88 0 -131 39.5t-43 146.5v586h191
v-559q0 -31 8.5 -38t45.5 -7v-165z" />
    <glyph glyph-name="twosuperior" unicode="&#xb2;" horiz-adv-x="468" 
d="M41 238v112l137 134l19 19q35 35 43.5 46t8.5 26q0 23 -11.5 28.5t-40.5 5.5q-48 0 -98 -24l-63 124q78 39 188 39q175 0 175 -144q0 -58 -24 -94.5t-96 -106.5l-44 -43h174v-122h-368z" />
    <glyph glyph-name="threesuperior" unicode="&#xb3;" horiz-adv-x="476" 
d="M227 232q-119 0 -189 41l64 117q54 -30 112 -30q41 0 51.5 9.5t10.5 36.5q0 22 -14 30t-55 8h-86v110h85q34 0 45.5 6.5t11.5 26.5q0 17 -10.5 22t-41.5 5q-59 0 -107 -23l-60 116q70 41 194 41q86 0 129.5 -27t43.5 -95q0 -49 -10 -75t-37 -37q35 -12 48 -38.5t13 -87.5
q0 -84 -49 -120t-149 -36z" />
    <glyph glyph-name="acute" unicode="&#xb4;" 
d="M145 625l103 198h210l-152 -198h-161z" />
    <glyph glyph-name="mu" unicode="&#xb5;" horiz-adv-x="586" 
d="M42 -158v733h192v-314q0 -29 0.5 -40t3.5 -27t9.5 -21t18.5 -9t31 -4q43 0 53 20t10 82v313h188v-325q0 -145 -51 -201.5t-192 -56.5q-49 0 -72 13v-163h-191z" />
    <glyph glyph-name="mu" unicode="&#x3bc;" horiz-adv-x="586" 
d="M42 -158v733h192v-314q0 -29 0.5 -40t3.5 -27t9.5 -21t18.5 -9t31 -4q43 0 53 20t10 82v313h188v-325q0 -145 -51 -201.5t-192 -56.5q-49 0 -72 13v-163h-191z" />
    <glyph glyph-name="paragraph" unicode="&#xb6;" horiz-adv-x="611" 
d="M152 0v257q-74 27 -102.5 85t-28.5 147q0 61 12 104t42.5 78t89 52.5t145.5 17.5h261v-741h-185v233h-49v-233h-185zM306 387h80v182h-80q-52 0 -71.5 -21t-19.5 -71q0 -48 20 -69t71 -21z" />
    <glyph glyph-name="periodcentered" unicode="&#xb7;" horiz-adv-x="291" 
d="M39 277v221h213v-221h-213z" />
    <glyph glyph-name="periodcentered" unicode="&#x2219;" horiz-adv-x="291" 
d="M39 277v221h213v-221h-213z" />
    <glyph glyph-name="cedilla" unicode="&#xb8;" 
d="M250 -259q-70 0 -130 29l39 86q43 -16 77 -16q25 0 34.5 7t9.5 26q0 22 -14.5 26.5t-56.5 2.5l-29 20l18 85h101l-9 -48q54 3 81.5 -19t27.5 -81q0 -65 -34 -91.5t-115 -26.5z" />
    <glyph glyph-name="onesuperior" unicode="&#xb9;" horiz-adv-x="354" 
d="M112 238v365h-67v138h226v-503h-159z" />
    <glyph glyph-name="ordmasculine" unicode="&#xba;" horiz-adv-x="526" 
d="M264 268q-121 0 -169.5 59.5t-48.5 181.5q0 121 48.5 181t169.5 60q122 0 169.5 -60.5t47.5 -180.5q0 -124 -47 -182.5t-170 -58.5zM264 402q39 0 50 22.5t11 80.5q0 57 -11 79t-50 22q-38 0 -50 -22.5t-12 -78.5q0 -57 12 -80t50 -23zM66 101v134h394v-134h-394z" />
    <glyph glyph-name="guillemotright" unicode="&#xbb;" horiz-adv-x="709" 
d="M86 0l114 288l-114 287h167l127 -287l-127 -288h-167zM354 0l114 288l-114 287h167l127 -287l-127 -288h-167z" />
    <glyph glyph-name="onequarter" unicode="&#xbc;" horiz-adv-x="999" 
d="M208 0l351 741h168l-350 -741h-169zM546 74v114l176 315h155l-172 -308h62l25 92h113v-92h57v-121h-57v-74h-140v74h-219zM112 238v365h-67v138h226v-503h-159z" />
    <glyph glyph-name="onehalf" unicode="&#xbd;" horiz-adv-x="1040" 
d="M208 0l351 741h168l-350 -741h-169zM112 238v365h-67v138h226v-503h-159zM630 0v112l137 134l19 19q35 35 43.5 46t8.5 26q0 23 -11.5 28.5t-40.5 5.5q-48 0 -98 -24l-63 124q78 39 188 39q175 0 175 -144q0 -58 -24 -94.5t-96 -106.5l-44 -43h174v-122h-368z" />
    <glyph glyph-name="threequarters" unicode="&#xbe;" horiz-adv-x="1099" 
d="M227 232q-119 0 -189 41l64 117q54 -30 112 -30q41 0 51.5 9.5t10.5 36.5q0 22 -14 30t-55 8h-86v110h85q34 0 45.5 6.5t11.5 26.5q0 17 -10.5 22t-41.5 5q-59 0 -107 -23l-60 116q70 41 194 41q86 0 129.5 -27t43.5 -95q0 -49 -10 -75t-37 -37q35 -12 48 -38.5t13 -87.5
q0 -84 -49 -120t-149 -36zM308 0l351 741h168l-350 -741h-169zM646 74v114l176 315h155l-172 -308h62l25 92h113v-92h57v-121h-57v-74h-140v74h-219z" />
    <glyph glyph-name="questiondown" unicode="&#xbf;" horiz-adv-x="610" 
d="M295 -9q-138 0 -194 47.5t-56 138.5q0 56 14.5 94t33 56.5t57.5 45.5q57 40 68.5 60.5t11.5 80.5h186q0 -87 -17 -125t-87 -86q-47 -32 -60.5 -46.5t-13.5 -39.5q0 -26 18.5 -38t72.5 -12q69 0 148 37l83 -160q-109 -53 -265 -53zM216 554v187h213v-187h-213z" />
    <glyph glyph-name="Agrave" unicode="&#xc0;" horiz-adv-x="696" 
d="M8 0l233 746h214l233 -746h-205l-25 88h-226l-25 -88h-199zM277 258h135l-67 223zM291 777l-152 198h210l103 -198h-161z" />
    <glyph glyph-name="Aacute" unicode="&#xc1;" horiz-adv-x="696" 
d="M8 0l233 746h214l233 -746h-205l-25 88h-226l-25 -88h-199zM277 258h135l-67 223zM244 777l103 198h210l-152 -198h-161z" />
    <glyph glyph-name="Acircumflex" unicode="&#xc2;" horiz-adv-x="696" 
d="M8 0l233 746h214l233 -746h-205l-25 88h-226l-25 -88h-199zM277 258h135l-67 223zM153 777l108 198h174l108 -198h-149l-48 67l-47 -67h-146z" />
    <glyph glyph-name="Atilde" unicode="&#xc3;" horiz-adv-x="696" 
d="M8 0l233 746h214l233 -746h-205l-25 88h-226l-25 -88h-199zM277 258h135l-67 223zM228 769l-121 71q35 68 75 98t95 30q32 0 71 -21.5t48 -21.5q31 0 67 49l121 -71q-35 -68 -75 -98t-95 -30q-32 0 -71 21.5t-48 21.5q-31 0 -67 -49z" />
    <glyph glyph-name="Adieresis" unicode="&#xc4;" horiz-adv-x="696" 
d="M8 0l233 746h214l233 -746h-205l-25 88h-226l-25 -88h-199zM277 258h135l-67 223zM160 777v154h168v-154h-168zM368 777v154h168v-154h-168z" />
    <glyph glyph-name="Aring" unicode="&#xc5;" horiz-adv-x="696" 
d="M8 0l224 716q-20 36 -20 90q0 148 136 148q70 0 103 -40t33 -108q0 -54 -20 -88l224 -718h-205l-25 88h-226l-25 -88h-199zM277 258h135l-67 223zM348 748q27 0 36.5 14.5t9.5 43.5q0 30 -9.5 45t-36.5 15q-47 0 -47 -60q0 -58 47 -58z" />
    <glyph glyph-name="AE" unicode="&#xc6;" horiz-adv-x="986" 
d="M5 0l352 741h590v-181h-298v-97h286v-176h-286v-111h298v-176h-492v88h-215l-41 -88h-194zM320 258h135v285z" />
    <glyph glyph-name="Ccedilla" unicode="&#xc7;" horiz-adv-x="594" 
d="M298 -259q-70 0 -130 29l39 86q43 -16 77 -16q25 0 34.5 7t9.5 26q0 22 -14.5 26.5t-56.5 2.5l-29 20l16 78q-119 25 -170 118t-51 252q0 90 14.5 155t50.5 118t102.5 80t163.5 27q127 0 215 -58l-106 -165q-48 30 -116 30q-32 0 -52 -6t-37.5 -25.5t-25.5 -59t-8 -102.5
q0 -62 7.5 -101t24.5 -59.5t38.5 -28t54.5 -7.5q64 0 122 38l98 -154q-96 -60 -225 -61l-6 -32q54 3 81.5 -19t27.5 -81q0 -65 -34 -91.5t-115 -26.5z" />
    <glyph glyph-name="Egrave" unicode="&#xc8;" horiz-adv-x="584" 
d="M53 0v741h492v-181h-298v-97h286v-176h-286v-111h298v-176h-492zM235 777l-152 198h210l103 -198h-161z" />
    <glyph glyph-name="Eacute" unicode="&#xc9;" horiz-adv-x="584" 
d="M53 0v741h492v-181h-298v-97h286v-176h-286v-111h298v-176h-492zM188 777l103 198h210l-152 -198h-161z" />
    <glyph glyph-name="Ecircumflex" unicode="&#xca;" horiz-adv-x="584" 
d="M53 0v741h492v-181h-298v-97h286v-176h-286v-111h298v-176h-492zM97 777l108 198h174l108 -198h-149l-48 67l-47 -67h-146z" />
    <glyph glyph-name="Edieresis" unicode="&#xcb;" horiz-adv-x="584" 
d="M53 0v741h492v-181h-298v-97h286v-176h-286v-111h298v-176h-492zM104 777v154h168v-154h-168zM312 777v154h168v-154h-168z" />
    <glyph glyph-name="Igrave" unicode="&#xcc;" horiz-adv-x="324" 
d="M94 777l-141 198h210l92 -198h-161zM63 0v741h198v-741h-198z" />
    <glyph glyph-name="Iacute" unicode="&#xcd;" horiz-adv-x="324" 
d="M68 777l93 198h210l-142 -198h-161zM63 0v741h198v-741h-198z" />
    <glyph glyph-name="Icircumflex" unicode="&#xce;" horiz-adv-x="324" 
d="M-33 777l108 198h174l108 -198h-149l-48 67l-47 -67h-146zM63 0v741h198v-741h-198z" />
    <glyph glyph-name="Idieresis" unicode="&#xcf;" horiz-adv-x="324" 
d="M63 0v741h198v-741h-198zM-26 777v154h168v-154h-168zM182 777v154h168v-154h-168z" />
    <glyph glyph-name="Eth" unicode="&#xd0;" horiz-adv-x="671" 
d="M0 288v160h53v293h246q94 0 155 -15t107 -55t66.5 -113t20.5 -187q0 -93 -14 -158.5t-39.5 -107t-69.5 -65t-96 -32t-127 -8.5h-249v288h-53zM251 171h69q33 0 52 5t38.5 24t28 60.5t8.5 109.5q0 55 -6.5 91.5t-16 56t-29.5 29.5t-36 12t-47 2h-61v-113h93v-160h-93v-117
z" />
    <glyph glyph-name="Ntilde" unicode="&#xd1;" horiz-adv-x="705" 
d="M53 0v741h208l203 -343v343h189v-741h-182l-230 385v-385h-188zM232 769l-121 71q35 68 75 98t95 30q32 0 71 -21.5t48 -21.5q31 0 67 49l121 -71q-35 -68 -75 -98t-95 -30q-32 0 -71 21.5t-48 21.5q-31 0 -67 -49z" />
    <glyph glyph-name="Ograve" unicode="&#xd2;" horiz-adv-x="695" 
d="M348 -9q-80 0 -139.5 21t-94.5 54.5t-56 85t-28 102.5t-7 116t7 116.5t28 102.5t56 85t94.5 55t139.5 21t139.5 -21t94 -55t55.5 -85t28 -102.5t7 -116.5t-7 -116t-28 -102t-56 -85t-94 -55t-139 -21zM348 166q75 0 99 47t24 150q0 102 -24 149t-99 47q-76 0 -100 -47
t-24 -149q0 -103 24 -150t100 -47zM290 777l-152 198h210l103 -198h-161z" />
    <glyph glyph-name="Oacute" unicode="&#xd3;" horiz-adv-x="695" 
d="M348 -9q-80 0 -139.5 21t-94.5 54.5t-56 85t-28 102.5t-7 116t7 116.5t28 102.5t56 85t94.5 55t139.5 21t139.5 -21t94 -55t55.5 -85t28 -102.5t7 -116.5t-7 -116t-28 -102t-56 -85t-94 -55t-139 -21zM348 166q75 0 99 47t24 150q0 102 -24 149t-99 47q-76 0 -100 -47
t-24 -149q0 -103 24 -150t100 -47zM243 777l103 198h210l-152 -198h-161z" />
    <glyph glyph-name="Ocircumflex" unicode="&#xd4;" horiz-adv-x="695" 
d="M348 -9q-80 0 -139.5 21t-94.5 54.5t-56 85t-28 102.5t-7 116t7 116.5t28 102.5t56 85t94.5 55t139.5 21t139.5 -21t94 -55t55.5 -85t28 -102.5t7 -116.5t-7 -116t-28 -102t-56 -85t-94 -55t-139 -21zM348 166q75 0 99 47t24 150q0 102 -24 149t-99 47q-76 0 -100 -47
t-24 -149q0 -103 24 -150t100 -47zM152 777l108 198h174l108 -198h-149l-48 67l-47 -67h-146z" />
    <glyph glyph-name="Otilde" unicode="&#xd5;" horiz-adv-x="695" 
d="M348 -9q-80 0 -139.5 21t-94.5 54.5t-56 85t-28 102.5t-7 116t7 116.5t28 102.5t56 85t94.5 55t139.5 21t139.5 -21t94 -55t55.5 -85t28 -102.5t7 -116.5t-7 -116t-28 -102t-56 -85t-94 -55t-139 -21zM348 166q75 0 99 47t24 150q0 102 -24 149t-99 47q-76 0 -100 -47
t-24 -149q0 -103 24 -150t100 -47zM227 769l-121 71q35 68 75 98t95 30q32 0 71 -21.5t48 -21.5q31 0 67 49l121 -71q-35 -68 -75 -98t-95 -30q-32 0 -71 21.5t-48 21.5q-31 0 -67 -49z" />
    <glyph glyph-name="Odieresis" unicode="&#xd6;" horiz-adv-x="695" 
d="M348 -9q-80 0 -139.5 21t-94.5 54.5t-56 85t-28 102.5t-7 116t7 116.5t28 102.5t56 85t94.5 55t139.5 21t139.5 -21t94 -55t55.5 -85t28 -102.5t7 -116.5t-7 -116t-28 -102t-56 -85t-94 -55t-139 -21zM348 166q75 0 99 47t24 150q0 102 -24 149t-99 47q-76 0 -100 -47
t-24 -149q0 -103 24 -150t100 -47zM159 777v154h168v-154h-168zM367 777v154h168v-154h-168z" />
    <glyph glyph-name="multiply" unicode="&#xd7;" horiz-adv-x="638" 
d="M196 110l-117 119l123 123l-122 122l117 119l122 -122l122 122l117 -119l-123 -122l122 -121l-116 -120l-122 122z" />
    <glyph glyph-name="Oslash" unicode="&#xd8;" horiz-adv-x="695" 
d="M70 -41l50 103q-97 87 -97 308q0 65 7 116.5t28 102.5t56 85t94.5 55t139.5 21q53 0 103 -10l21 43h154l-51 -104q97 -88 97 -309q0 -65 -7 -116t-28 -102t-56 -85t-94 -55t-139 -21q-53 0 -103 10l-21 -42h-154zM348 156q41 0 67.5 13.5t39.5 43t17.5 63.5t4.5 87
q0 71 -9 111l-154 -315q15 -3 34 -3zM218 363q0 -67 6 -102l150 306q-16 2 -26 2q-79 0 -104.5 -49.5t-25.5 -156.5z" />
    <glyph glyph-name="Ugrave" unicode="&#xd9;" horiz-adv-x="697" 
d="M348 -12q-162 0 -231.5 69.5t-69.5 212.5v471h199v-452q0 -70 21.5 -96.5t83.5 -26.5t84 26t22 97v452h193v-471q0 -144 -69 -213t-233 -69zM291 777l-152 198h210l103 -198h-161z" />
    <glyph glyph-name="Uacute" unicode="&#xda;" horiz-adv-x="697" 
d="M348 -12q-162 0 -231.5 69.5t-69.5 212.5v471h199v-452q0 -70 21.5 -96.5t83.5 -26.5t84 26t22 97v452h193v-471q0 -144 -69 -213t-233 -69zM244 777l103 198h210l-152 -198h-161z" />
    <glyph glyph-name="Ucircumflex" unicode="&#xdb;" horiz-adv-x="697" 
d="M348 -12q-162 0 -231.5 69.5t-69.5 212.5v471h199v-452q0 -70 21.5 -96.5t83.5 -26.5t84 26t22 97v452h193v-471q0 -144 -69 -213t-233 -69zM153 777l108 198h174l108 -198h-149l-48 67l-47 -67h-146z" />
    <glyph glyph-name="Udieresis" unicode="&#xdc;" horiz-adv-x="697" 
d="M348 -12q-162 0 -231.5 69.5t-69.5 212.5v471h199v-452q0 -70 21.5 -96.5t83.5 -26.5t84 26t22 97v452h193v-471q0 -144 -69 -213t-233 -69zM160 777v154h168v-154h-168zM368 777v154h168v-154h-168z" />
    <glyph glyph-name="Yacute" unicode="&#xdd;" horiz-adv-x="664" 
d="M232 0v240l-240 501h211l132 -291l133 291h204l-242 -505v-236h-198zM228 777l103 198h210l-152 -198h-161z" />
    <glyph glyph-name="Thorn" unicode="&#xde;" horiz-adv-x="643" 
d="M53 0v741h195v-99h114q139 0 199.5 -65.5t60.5 -186.5q0 -123 -62 -196.5t-202 -73.5h-110v-120h-195zM248 288h107q40 0 56.5 21.5t16.5 68.5q0 49 -16.5 70.5t-56.5 21.5h-107v-182z" />
    <glyph glyph-name="germandbls" unicode="&#xdf;" horiz-adv-x="607" 
d="M42 0v551q0 231 255 231q134 0 191.5 -47.5t57.5 -148.5q0 -83 -14 -123t-51 -55q58 -13 81 -55.5t23 -138.5q0 -125 -59.5 -169.5t-222.5 -44.5h-25v170h25q56 0 74.5 15t18.5 58q0 42 -19 55t-80 14h-19v136h19q35 0 50.5 19.5t15.5 61.5q0 39 -15 54.5t-51 15.5
t-51 -16.5t-15 -52.5v-530h-189z" />
    <glyph glyph-name="agrave" unicode="&#xe0;" horiz-adv-x="570" 
d="M205 -7q-109 0 -148.5 46t-39.5 135q0 115 65 155.5t229 40.5h17q-2 26 -14 36t-44 10q-83 0 -149 -30l-76 153q91 49 247 49q122 0 171.5 -42t49.5 -149v-195q0 -24 6 -30.5t30 -6.5v-165q-31 -3 -59 -3q-60 0 -88 9t-44 38q-23 -26 -57 -38.5t-96 -12.5zM251 148
q41 0 59 15t18 54v40h-16q-67 0 -90.5 -14.5t-23.5 -46.5q0 -25 10.5 -36.5t42.5 -11.5zM228 625l-152 198h210l103 -198h-161z" />
    <glyph glyph-name="aacute" unicode="&#xe1;" horiz-adv-x="570" 
d="M205 -7q-109 0 -148.5 46t-39.5 135q0 115 65 155.5t229 40.5h17q-2 26 -14 36t-44 10q-83 0 -149 -30l-76 153q91 49 247 49q122 0 171.5 -42t49.5 -149v-195q0 -24 6 -30.5t30 -6.5v-165q-31 -3 -59 -3q-60 0 -88 9t-44 38q-23 -26 -57 -38.5t-96 -12.5zM251 148
q41 0 59 15t18 54v40h-16q-67 0 -90.5 -14.5t-23.5 -46.5q0 -25 10.5 -36.5t42.5 -11.5zM181 625l103 198h210l-152 -198h-161z" />
    <glyph glyph-name="acircumflex" unicode="&#xe2;" horiz-adv-x="570" 
d="M205 -7q-109 0 -148.5 46t-39.5 135q0 115 65 155.5t229 40.5h17q-2 26 -14 36t-44 10q-83 0 -149 -30l-76 153q91 49 247 49q122 0 171.5 -42t49.5 -149v-195q0 -24 6 -30.5t30 -6.5v-165q-31 -3 -59 -3q-60 0 -88 9t-44 38q-23 -26 -57 -38.5t-96 -12.5zM251 148
q41 0 59 15t18 54v40h-16q-67 0 -90.5 -14.5t-23.5 -46.5q0 -25 10.5 -36.5t42.5 -11.5zM90 625l108 198h174l108 -198h-149l-48 67l-47 -67h-146z" />
    <glyph glyph-name="atilde" unicode="&#xe3;" horiz-adv-x="570" 
d="M205 -7q-109 0 -148.5 46t-39.5 135q0 115 65 155.5t229 40.5h17q-2 26 -14 36t-44 10q-83 0 -149 -30l-76 153q91 49 247 49q122 0 171.5 -42t49.5 -149v-195q0 -24 6 -30.5t30 -6.5v-165q-31 -3 -59 -3q-60 0 -88 9t-44 38q-23 -26 -57 -38.5t-96 -12.5zM251 148
q41 0 59 15t18 54v40h-16q-67 0 -90.5 -14.5t-23.5 -46.5q0 -25 10.5 -36.5t42.5 -11.5zM165 617l-121 71q35 68 75 98t95 30q32 0 71 -21.5t48 -21.5q31 0 67 49l121 -71q-35 -68 -75 -98t-95 -30q-32 0 -71 21.5t-48 21.5q-31 0 -67 -49z" />
    <glyph glyph-name="adieresis" unicode="&#xe4;" horiz-adv-x="570" 
d="M205 -7q-109 0 -148.5 46t-39.5 135q0 115 65 155.5t229 40.5h17q-2 26 -14 36t-44 10q-83 0 -149 -30l-76 153q91 49 247 49q122 0 171.5 -42t49.5 -149v-195q0 -24 6 -30.5t30 -6.5v-165q-31 -3 -59 -3q-60 0 -88 9t-44 38q-23 -26 -57 -38.5t-96 -12.5zM251 148
q41 0 59 15t18 54v40h-16q-67 0 -90.5 -14.5t-23.5 -46.5q0 -25 10.5 -36.5t42.5 -11.5zM97 625v154h168v-154h-168zM305 625v154h168v-154h-168z" />
    <glyph glyph-name="aring" unicode="&#xe5;" horiz-adv-x="570" 
d="M205 -7q-109 0 -148.5 46t-39.5 135q0 115 65 155.5t229 40.5h17q-2 26 -14 36t-44 10q-83 0 -149 -30l-76 153q91 49 247 49q122 0 171.5 -42t49.5 -149v-195q0 -24 6 -30.5t30 -6.5v-165q-31 -3 -59 -3q-60 0 -88 9t-44 38q-23 -26 -57 -38.5t-96 -12.5zM251 148
q41 0 59 15t18 54v40h-16q-67 0 -90.5 -14.5t-23.5 -46.5q0 -25 10.5 -36.5t42.5 -11.5zM285 615q-136 0 -136 145q0 148 136 148q70 0 103 -40t33 -108q0 -66 -33 -105.5t-103 -39.5zM285 702q27 0 36.5 14.5t9.5 43.5q0 30 -9.5 45t-36.5 15q-47 0 -47 -60q0 -58 47 -58z
" />
    <glyph glyph-name="ae" unicode="&#xe6;" horiz-adv-x="846" 
d="M584 -7q-121 0 -180 59q-25 -28 -68 -43.5t-127 -15.5q-110 0 -151 48t-41 133q0 115 65 155.5t229 40.5h17q-2 26 -14 36t-44 10q-83 0 -149 -30l-76 153q91 49 247 49q108 0 152 -37q57 35 145 35q71 0 117.5 -17t69.5 -49t34 -77t10.5 -101.5t-0.5 -122.5h-310
q4 -37 21.5 -50.5t62.5 -13.5q79 0 155 33l71 -144q-94 -51 -236 -51zM251 148q41 0 59 15t18 54v40h-16q-67 0 -90.5 -14.5t-23.5 -46.5q0 -25 10.5 -36.5t42.5 -11.5zM585 422q-42 0 -58 -18.5t-18 -63.5h143q-2 48 -13.5 65t-53.5 17z" />
    <glyph glyph-name="ccedilla" unicode="&#xe7;" horiz-adv-x="467" 
d="M234 -259q-70 0 -130 29l39 86q43 -16 77 -16q25 0 34.5 7t9.5 26q0 22 -14.5 26.5t-56.5 2.5l-29 20l17 79q-90 22 -125.5 92.5t-35.5 195.5q0 151 56 224t209 73q103 0 172 -33l-83 -165q-35 19 -78 19q-45 0 -63 -25.5t-18 -98.5q0 -76 18 -101t67 -25q34 0 90 20
l71 -144q-82 -40 -181 -41l-6 -33q54 3 81.5 -19t27.5 -81q0 -65 -34 -91.5t-115 -26.5z" />
    <glyph glyph-name="egrave" unicode="&#xe8;" horiz-adv-x="540" 
d="M278 -7q-150 0 -204 71t-54 225q0 148 59.5 222.5t203.5 74.5q71 0 117.5 -17t69.5 -49t34 -77t10.5 -101.5t-0.5 -122.5h-310q4 -37 21.5 -50.5t62.5 -13.5q79 0 155 33l71 -144q-94 -51 -236 -51zM279 422q-42 0 -58 -18.5t-18 -63.5h143q-2 48 -13.5 65t-53.5 17z
M213 625l-152 198h210l103 -198h-161z" />
    <glyph glyph-name="eacute" unicode="&#xe9;" horiz-adv-x="540" 
d="M278 -7q-150 0 -204 71t-54 225q0 148 59.5 222.5t203.5 74.5q71 0 117.5 -17t69.5 -49t34 -77t10.5 -101.5t-0.5 -122.5h-310q4 -37 21.5 -50.5t62.5 -13.5q79 0 155 33l71 -144q-94 -51 -236 -51zM279 422q-42 0 -58 -18.5t-18 -63.5h143q-2 48 -13.5 65t-53.5 17z
M166 625l103 198h210l-152 -198h-161z" />
    <glyph glyph-name="ecircumflex" unicode="&#xea;" horiz-adv-x="540" 
d="M278 -7q-150 0 -204 71t-54 225q0 148 59.5 222.5t203.5 74.5q71 0 117.5 -17t69.5 -49t34 -77t10.5 -101.5t-0.5 -122.5h-310q4 -37 21.5 -50.5t62.5 -13.5q79 0 155 33l71 -144q-94 -51 -236 -51zM279 422q-42 0 -58 -18.5t-18 -63.5h143q-2 48 -13.5 65t-53.5 17z
M75 625l108 198h174l108 -198h-149l-48 67l-47 -67h-146z" />
    <glyph glyph-name="edieresis" unicode="&#xeb;" horiz-adv-x="540" 
d="M278 -7q-150 0 -204 71t-54 225q0 148 59.5 222.5t203.5 74.5q71 0 117.5 -17t69.5 -49t34 -77t10.5 -101.5t-0.5 -122.5h-310q4 -37 21.5 -50.5t62.5 -13.5q79 0 155 33l71 -144q-94 -51 -236 -51zM279 422q-42 0 -58 -18.5t-18 -63.5h143q-2 48 -13.5 65t-53.5 17z
M82 625v154h168v-154h-168zM290 625v154h168v-154h-168z" />
    <glyph glyph-name="igrave" unicode="&#xec;" horiz-adv-x="285" 
d="M77 625l-124 198h210l75 -198h-161zM47 0v575h191v-575h-191z" />
    <glyph glyph-name="iacute" unicode="&#xed;" horiz-adv-x="285" 
d="M47 625l74 198h210l-123 -198h-161zM47 0v575h191v-575h-191z" />
    <glyph glyph-name="icircumflex" unicode="&#xee;" horiz-adv-x="285" 
d="M-43 625l98 198h174l98 -198h-149l-38 67l-37 -67h-146zM47 0v575h191v-575h-191z" />
    <glyph glyph-name="idieresis" unicode="&#xef;" horiz-adv-x="285" 
d="M-21 625v154h148v-154h-148zM157 625v154h148v-154h-148zM47 0v575h191v-575h-191z" />
    <glyph glyph-name="eth" unicode="&#xf0;" horiz-adv-x="579" 
d="M241 539v112l40 7q-20 34 -34 52l150 82q37 -33 71 -100l96 17v-111l-53 -10q47 -143 47 -263q0 -67 -5.5 -114t-22 -91.5t-46 -71t-78 -42t-117.5 -15.5q-139 0 -204 69.5t-65 208.5q0 253 216 253q81 0 119 -39q-12 40 -25 72zM289 157q47 0 61.5 26t14.5 81
t-14.5 80.5t-61.5 25.5q-46 0 -61 -25.5t-15 -80.5q0 -54 15 -80.5t61 -26.5z" />
    <glyph glyph-name="ntilde" unicode="&#xf1;" horiz-adv-x="591" 
d="M42 0v564l153 12l14 -42q44 52 175 52q96 0 132.5 -55t36.5 -154v-377h-192v328q0 42 -10.5 58.5t-44.5 16.5q-45 0 -59 -17t-14 -60v-326h-191zM175 617l-121 71q35 68 75 98t95 30q32 0 71 -21.5t48 -21.5q31 0 67 49l121 -71q-35 -68 -75 -98t-95 -30q-32 0 -71 21.5
t-48 21.5q-31 0 -67 -49z" />
    <glyph glyph-name="ograve" unicode="&#xf2;" horiz-adv-x="577" 
d="M289 -9q-149 0 -209 74t-60 224q0 149 59.5 223t209.5 74q151 0 209.5 -74t58.5 -223q0 -153 -58 -225.5t-210 -72.5zM289 157q48 0 62 27.5t14 98.5t-14 98t-62 27t-62 -27.5t-14 -97.5q0 -71 14.5 -98.5t61.5 -27.5zM231 625l-152 198h210l103 -198h-161z" />
    <glyph glyph-name="oacute" unicode="&#xf3;" horiz-adv-x="577" 
d="M289 -9q-149 0 -209 74t-60 224q0 149 59.5 223t209.5 74q151 0 209.5 -74t58.5 -223q0 -153 -58 -225.5t-210 -72.5zM289 157q48 0 62 27.5t14 98.5t-14 98t-62 27t-62 -27.5t-14 -97.5q0 -71 14.5 -98.5t61.5 -27.5zM184 625l103 198h210l-152 -198h-161z" />
    <glyph glyph-name="ocircumflex" unicode="&#xf4;" horiz-adv-x="577" 
d="M289 -9q-149 0 -209 74t-60 224q0 149 59.5 223t209.5 74q151 0 209.5 -74t58.5 -223q0 -153 -58 -225.5t-210 -72.5zM289 157q48 0 62 27.5t14 98.5t-14 98t-62 27t-62 -27.5t-14 -97.5q0 -71 14.5 -98.5t61.5 -27.5zM93 625l108 198h174l108 -198h-149l-48 67l-47 -67
h-146z" />
    <glyph glyph-name="otilde" unicode="&#xf5;" horiz-adv-x="577" 
d="M289 -9q-149 0 -209 74t-60 224q0 149 59.5 223t209.5 74q151 0 209.5 -74t58.5 -223q0 -153 -58 -225.5t-210 -72.5zM289 157q48 0 62 27.5t14 98.5t-14 98t-62 27t-62 -27.5t-14 -97.5q0 -71 14.5 -98.5t61.5 -27.5zM168 617l-121 71q35 68 75 98t95 30q32 0 71 -21.5
t48 -21.5q31 0 67 49l121 -71q-35 -68 -75 -98t-95 -30q-32 0 -71 21.5t-48 21.5q-31 0 -67 -49z" />
    <glyph glyph-name="odieresis" unicode="&#xf6;" horiz-adv-x="577" 
d="M289 -9q-149 0 -209 74t-60 224q0 149 59.5 223t209.5 74q151 0 209.5 -74t58.5 -223q0 -153 -58 -225.5t-210 -72.5zM289 157q48 0 62 27.5t14 98.5t-14 98t-62 27t-62 -27.5t-14 -97.5q0 -71 14.5 -98.5t61.5 -27.5zM100 625v154h168v-154h-168zM308 625v154h168v-154
h-168z" />
    <glyph glyph-name="divide" unicode="&#xf7;" horiz-adv-x="638" 
d="M226 73v152h184v-152h-184zM71 265v175h496v-175h-496zM226 480v152h184v-152h-184z" />
    <glyph glyph-name="oslash" unicode="&#xf8;" horiz-adv-x="577" 
d="M39 -44l53 96q-72 68 -72 237q0 149 59.5 223t209.5 74q49 0 96 -10l24 43h138l-57 -100q67 -68 67 -230q0 -153 -58 -225.5t-210 -72.5q-49 0 -90 9l-24 -44h-136zM205 283q0 -30 1 -43l96 173q-4 1 -13 1q-50 0 -67 -29.5t-17 -101.5zM289 151q51 0 67.5 29.5
t16.5 102.5q0 28 -1 40l-96 -172h13z" />
    <glyph glyph-name="ugrave" unicode="&#xf9;" horiz-adv-x="582" 
d="M291 -8q-145 0 -199 57t-54 201v325h192v-314q0 -29 0.5 -40t3.5 -27t9.5 -21t18.5 -9t31 -4q43 0 53 20t10 82v313h188v-325q0 -145 -52.5 -201.5t-200.5 -56.5zM234 625l-152 198h210l103 -198h-161z" />
    <glyph glyph-name="uacute" unicode="&#xfa;" horiz-adv-x="582" 
d="M291 -8q-145 0 -199 57t-54 201v325h192v-314q0 -29 0.5 -40t3.5 -27t9.5 -21t18.5 -9t31 -4q43 0 53 20t10 82v313h188v-325q0 -145 -52.5 -201.5t-200.5 -56.5zM187 625l103 198h210l-152 -198h-161z" />
    <glyph glyph-name="ucircumflex" unicode="&#xfb;" horiz-adv-x="582" 
d="M291 -8q-145 0 -199 57t-54 201v325h192v-314q0 -29 0.5 -40t3.5 -27t9.5 -21t18.5 -9t31 -4q43 0 53 20t10 82v313h188v-325q0 -145 -52.5 -201.5t-200.5 -56.5zM96 625l108 198h174l108 -198h-149l-48 67l-47 -67h-146z" />
    <glyph glyph-name="udieresis" unicode="&#xfc;" horiz-adv-x="582" 
d="M291 -8q-145 0 -199 57t-54 201v325h192v-314q0 -29 0.5 -40t3.5 -27t9.5 -21t18.5 -9t31 -4q43 0 53 20t10 82v313h188v-325q0 -145 -52.5 -201.5t-200.5 -56.5zM103 625v154h168v-154h-168zM311 625v154h168v-154h-168z" />
    <glyph glyph-name="yacute" unicode="&#xfd;" horiz-adv-x="533" 
d="M70 -158v151h73q25 0 29 9l-176 573h197l78 -300l76 300h189l-186 -604q-25 -80 -70 -104.5t-137 -24.5h-73zM162 625l103 198h210l-152 -198h-161z" />
    <glyph glyph-name="thorn" unicode="&#xfe;" horiz-adv-x="596" 
d="M42 -158v927h190v-236q18 28 52 40.5t98 12.5q50 0 86 -16.5t56 -42t32 -66.5t15.5 -80t3.5 -92t-4.5 -93t-17 -80t-34.5 -65.5t-59 -41.5t-87 -16q-55 0 -86.5 7.5t-53.5 28.5v-187h-191zM313 157q41 0 55 25.5t14 97.5q0 74 -13 101t-56 27q-47 0 -63.5 -28t-16.5 -100
q0 -71 15.5 -97t64.5 -26z" />
    <glyph glyph-name="ydieresis" unicode="&#xff;" horiz-adv-x="533" 
d="M70 -158v151h73q25 0 29 9l-176 573h197l78 -300l76 300h189l-186 -604q-25 -80 -70 -104.5t-137 -24.5h-73zM78 625v154h168v-154h-168zM286 625v154h168v-154h-168z" />
    <glyph glyph-name="dotlessi" unicode="&#x131;" horiz-adv-x="285" 
d="M47 0v575h191v-575h-191z" />
    <glyph glyph-name="Lslash" unicode="&#x141;" horiz-adv-x="535" 
d="M0 249v160l53 31v301h198v-186l93 55v-159l-93 -55v-220h278v-176h-476v280z" />
    <glyph glyph-name="lslash" unicode="&#x142;" horiz-adv-x="380" 
d="M20 306v166l67 39v258h191v-147l72 42v-166l-72 -42v-246q0 -31 8.5 -38t45.5 -7v-165q-21 -3 -71 -3q-88 0 -131 39.5t-43 146.5v162z" />
    <glyph glyph-name="OE" unicode="&#x152;" horiz-adv-x="1004" 
d="M493 0v19q-59 -28 -145 -28q-80 0 -139.5 21t-94.5 54.5t-56 85t-28 102.5t-7 116t7 116.5t28 102.5t56 85t94.5 55t139.5 21q82 0 145 -28v19h472v-181h-298v-97h286v-176h-286v-111h298v-176h-472zM348 166q75 0 99 47t24 150q0 102 -24 149t-99 47q-76 0 -100 -47
t-24 -149q0 -103 24 -150t100 -47z" />
    <glyph glyph-name="oe" unicode="&#x153;" horiz-adv-x="892" 
d="M289 -9q-149 0 -209 74t-60 224q0 149 59.5 223t209.5 74q114 0 176 -51q61 51 170 51q71 0 117.5 -17t69.5 -49t34 -77t10.5 -101.5t-0.5 -122.5h-310q4 -37 21.5 -50.5t62.5 -13.5q79 0 155 33l71 -144q-94 -51 -236 -51q-109 0 -168 45q-61 -47 -173 -47zM289 157
q48 0 62 27.5t14 98.5t-14 98t-62 27t-62 -27.5t-14 -97.5q0 -71 14.5 -98.5t61.5 -27.5zM631 422q-42 0 -58 -18.5t-18 -63.5h143q-2 48 -13.5 65t-53.5 17z" />
    <glyph glyph-name="Scaron" unicode="&#x160;" horiz-adv-x="613" 
d="M309 -10q-199 0 -307 72l100 151q82 -55 201 -55q55 0 74 12.5t19 40.5q0 33 -19.5 44t-96.5 30l-10.5 3t-10 2.5t-11.5 2.5q-110 27 -159.5 78.5t-49.5 144.5q0 235 279 235q143 0 248 -51l-86 -166q-72 34 -157 34q-51 0 -71 -9t-20 -37q0 -27 19.5 -37.5t85.5 -26.5
q146 -36 199 -84.5t53 -159.5q0 -224 -280 -224zM219 777l-108 198h149l48 -67l47 67h146l-108 -198h-174z" />
    <glyph glyph-name="scaron" unicode="&#x161;" horiz-adv-x="488" 
d="M252 -7q-162 0 -250 46l73 144q84 -40 178 -40q42 0 42 26q0 15 -16.5 23t-90.5 28q-89 24 -125.5 60t-36.5 116q0 190 236 190q113 0 194 -32l-73 -155q-58 24 -129 24q-28 0 -37 -5t-9 -18q0 -12 15.5 -20t75.5 -23q99 -26 136.5 -63t37.5 -122q0 -179 -221 -179z
M157 625l-108 198h149l48 -67l47 67h146l-108 -198h-174z" />
    <glyph glyph-name="Ydieresis" unicode="&#x178;" horiz-adv-x="664" 
d="M232 0v240l-240 501h211l132 -291l133 291h204l-242 -505v-236h-198zM144 777v154h168v-154h-168zM352 777v154h168v-154h-168z" />
    <glyph glyph-name="Zcaron" unicode="&#x17d;" horiz-adv-x="587" 
d="M17 0v148l298 412h-284v181h528v-163l-293 -402h302v-176h-551zM206 777l-108 198h149l48 -67l47 67h146l-108 -198h-174z" />
    <glyph glyph-name="zcaron" unicode="&#x17e;" horiz-adv-x="473" 
d="M6 0v124l213 285h-199v166h440v-127l-215 -294h224v-154h-463zM149 625l-108 198h149l48 -67l47 67h146l-108 -198h-174z" />
    <glyph glyph-name="florin" unicode="&#x192;" horiz-adv-x="549" 
d="M65 300v166h102l13 87q10 66 30 104.5t68 61t128 22.5q40 0 75 -3v-164h-56q-29 0 -39.5 -9t-14.5 -34l-10 -65h120v-166h-146l-71 -458h-191l69 458h-77z" />
    <glyph glyph-name="circumflex" unicode="&#x2c6;" 
d="M54 625l108 198h174l108 -198h-149l-48 67l-47 -67h-146z" />
    <glyph glyph-name="caron" unicode="&#x2c7;" 
d="M162 625l-108 198h149l48 -67l47 67h146l-108 -198h-174z" />
    <glyph glyph-name="breve" unicode="&#x2d8;" 
d="M249 619q-106 0 -147 44.5t-55 156.5l134 19q8 -49 21.5 -63.5t46.5 -14.5t46.5 14.5t20.5 63.5l136 -18q-16 -114 -56.5 -158t-146.5 -44z" />
    <glyph glyph-name="dotaccent" unicode="&#x2d9;" 
d="M153 625v154h193v-154h-193z" />
    <glyph glyph-name="ring" unicode="&#x2da;" 
d="M249 615q-136 0 -136 145q0 148 136 148q70 0 103 -40t33 -108q0 -66 -33 -105.5t-103 -39.5zM249 702q27 0 36.5 14.5t9.5 43.5q0 30 -9.5 45t-36.5 15q-47 0 -47 -60q0 -58 47 -58z" />
    <glyph glyph-name="ogonek" unicode="&#x2db;" 
d="M286 -248q-84 0 -119.5 22.5t-35.5 90.5q0 57 38.5 101.5t74.5 62.5h107q-39 -33 -66.5 -70.5t-27.5 -62.5q0 -38 46 -38h28v-106h-45z" />
    <glyph glyph-name="tilde" unicode="&#x2dc;" 
d="M129 617l-121 71q35 68 75 98t95 30q32 0 71 -21.5t48 -21.5q31 0 67 49l121 -71q-35 -68 -75 -98t-95 -30q-32 0 -71 21.5t-48 21.5q-31 0 -67 -49z" />
    <glyph glyph-name="hungarumlaut" unicode="&#x2dd;" 
d="M54 625l96 198h193l-145 -198h-144zM276 625l96 198h193l-145 -198h-144z" />
    <glyph glyph-name="Delta" unicode="&#x394;" horiz-adv-x="661" 
d="M8 409v166h95v30q0 188 226 188q45 0 55 -1v-166h-36q-34 0 -44 -8.5t-10 -34.5v-8h90v-166h-90v-409h-191v409h-95zM376 -158v151h12q24 1 29.5 10.5t5.5 45.5v526h191v-533q0 -114 -44.5 -157t-164.5 -43h-29zM422 615v154h193v-154h-193z" />
    <glyph glyph-name="Delta" unicode="&#x2206;" horiz-adv-x="661" 
d="M8 409v166h95v30q0 188 226 188q45 0 55 -1v-166h-36q-34 0 -44 -8.5t-10 -34.5v-8h90v-166h-90v-409h-191v409h-95zM376 -158v151h12q24 1 29.5 10.5t5.5 45.5v526h191v-533q0 -114 -44.5 -157t-164.5 -43h-29zM422 615v154h193v-154h-193z" />
    <glyph glyph-name="Omega" unicode="&#x3a9;" horiz-adv-x="832" 
d="M126 120q-90 108 -90 251q0 142 90 250q3 -2 7 -6q-87 -106 -87 -244t88 -244zM228 211q-57 70 -57 160t56 160q2 -1 4.5 -3.5l3.5 -3.5q-54 -67 -54 -153q0 -88 54 -153q-1 -1 -2 -2.5t-2.5 -2.5t-2.5 -2zM264 243q-45 56 -45 128t45 128q1 -1 4 -3.5t4 -3.5
q-43 -53 -43 -121t43 -121q-2 -1 -4.5 -3.5zM316 289q-28 36 -28 82q0 47 28 81l7 -7q-25 -33 -25 -74t26 -75q-2 -1 -4 -3.5t-4 -3.5zM349 320q-16 22 -16 51t16 51q2 -1 4 -3.5t4 -3.5q-14 -20 -14 -44t14 -44q-3 -2 -8 -7zM378 346q-7 12 -7 25t7 25l6 -5q-5 -10 -5 -20
t5 -20q-2 -2 -6 -5zM416 60q-116 0 -201 77l7 7q84 -74 194 -74q111 0 193 74q1 -2 3.5 -4t3.5 -4q-86 -76 -200 -76zM416 324q-15 0 -27 9l6 6q10 -7 21 -7q13 0 21 7q2 -2 5 -6q-10 -9 -26 -9zM482 319q-3 4 -7 7q14 20 14 45t-14 44l7 7q17 -22 17 -51t-17 -52zM292 269
q-35 45 -35 102q0 58 36 102l7 -7q-33 -43 -33 -95t33 -95q-5 -5 -8 -7zM416 -17q-144 0 -252 97l7 8q105 -95 245 -95q139 0 244 94l2 -1l4 -4l1 -2q-107 -97 -251 -97zM416 121q-92 0 -161 61l7 8q65 -59 154 -59t153 59q1 -1 3.5 -4t3.5 -4q-67 -61 -160 -61zM416 170
q-72 0 -129 49l7 7q52 -46 122 -46t121 46l3.5 -3.5t3.5 -4.5q-54 -48 -128 -48zM416 209q-57 0 -103 38l7 8q43 -36 96 -36t96 36q2 -2 6 -8q-45 -38 -102 -38zM416 265q-37 0 -66 24l7 8q25 -22 59 -22q33 0 58 22q1 -2 3.5 -4t3.5 -4q-29 -24 -65 -24zM358 445q-3 2 -7 7
l-1 1q29 24 66 24t66 -24l-8 -8q-25 22 -58 22t-58 -22zM570 552q-65 59 -154 59q-87 0 -153 -58l-7 7q69 61 160 61q92 0 161 -61q-2 -3 -7 -8zM454 346l-6 5q5 10 5 20t-5 20l6 5q7 -12 7 -25t-7 -25zM468 333q-5 5 -8 7q10 15 10 31t-10 31l8 7q12 -16 12 -38
q0 -21 -12 -38zM498 306q-3 2 -8 7q19 25 19 58t-19 58l7 7q22 -28 22 -65q0 -34 -21 -65zM540 269q-2 1 -4 3.5t-4 3.5q33 43 33 95q0 53 -34 95l8 7q36 -44 36 -102q0 -57 -35 -102zM568 243q-5 5 -8 7q43 53 43 121t-43 121l8 7q45 -56 45 -128t-45 -128zM604 211
q-3 2 -8 7q55 66 55 153q0 89 -55 153l8 7q57 -68 57 -160t-57 -160zM649 171q-1 1 -3.5 3t-3.5 3q69 85 69 194q0 110 -70 193l8 7q72 -86 72 -200t-72 -200zM706 120q-3 3 -8 7q88 106 88 244t-88 244l8 7q90 -108 90 -251q0 -142 -90 -251zM183 170q-72 88 -72 201
t71 200q1 -1 3.5 -3t4.5 -4q-69 -83 -69 -193q0 -111 69 -194zM334 306q-21 29 -21 65t21 65q3 -2 8 -7q-19 -25 -19 -58q0 -32 19 -57zM364 333q-12 17 -12 38t12 38q1 -1 2 -2.5t2.5 -2.5t2.5 -2q-9 -16 -9 -31t9 -31zM395 403l-5 6q10 9 26 9t26 -9l-5 -6q-11 7 -21 7
q-13 0 -21 -7zM384 416l-7 7q17 14 39 14q21 0 38 -14q-4 -4 -6 -7q-14 12 -32 12q-17 0 -32 -12zM371 430l-7 8q22 19 52 19t52 -19l-7 -8q-19 17 -45 17t-45 -17zM295 516l-7 8q54 48 128 48t128 -49l-2 -1l-2 -4l-2 -2q-52 46 -122 46t-121 -46zM416 240q-48 0 -83 30
l7 8q35 -28 76 -28q42 0 75 28l7 -7q-36 -31 -82 -31zM416 285q-29 0 -53 19l7 8q22 -17 46 -17q25 0 45 17l7 -8q-22 -19 -52 -19zM416 305q-21 0 -40 14l7 7q17 -12 33 -12q17 0 32 12l7 -7q-17 -14 -39 -14zM341 464l-7 7q36 31 82 31q47 0 82 -30l-7 -8q-33 28 -75 28
t-75 -28zM320 487l-7 8q44 38 103 38q58 0 102 -39l-6 -7q-41 36 -96 36q-53 0 -96 -36zM610 597q-81 75 -194 75q-110 0 -194 -74l-7 7q87 77 201 77t201 -77zM172 654l-7 8q107 97 251 97t252 -97l-7 -8q-105 95 -245 95q-139 0 -244 -95zM516 290l-7 7q25 33 25 74
t-26 75l8 7q28 -36 28 -82q0 -47 -28 -81z" />
    <glyph glyph-name="Omega" unicode="&#x2126;" horiz-adv-x="832" 
d="M126 120q-90 108 -90 251q0 142 90 250q3 -2 7 -6q-87 -106 -87 -244t88 -244zM228 211q-57 70 -57 160t56 160q2 -1 4.5 -3.5l3.5 -3.5q-54 -67 -54 -153q0 -88 54 -153q-1 -1 -2 -2.5t-2.5 -2.5t-2.5 -2zM264 243q-45 56 -45 128t45 128q1 -1 4 -3.5t4 -3.5
q-43 -53 -43 -121t43 -121q-2 -1 -4.5 -3.5zM316 289q-28 36 -28 82q0 47 28 81l7 -7q-25 -33 -25 -74t26 -75q-2 -1 -4 -3.5t-4 -3.5zM349 320q-16 22 -16 51t16 51q2 -1 4 -3.5t4 -3.5q-14 -20 -14 -44t14 -44q-3 -2 -8 -7zM378 346q-7 12 -7 25t7 25l6 -5q-5 -10 -5 -20
t5 -20q-2 -2 -6 -5zM416 60q-116 0 -201 77l7 7q84 -74 194 -74q111 0 193 74q1 -2 3.5 -4t3.5 -4q-86 -76 -200 -76zM416 324q-15 0 -27 9l6 6q10 -7 21 -7q13 0 21 7q2 -2 5 -6q-10 -9 -26 -9zM482 319q-3 4 -7 7q14 20 14 45t-14 44l7 7q17 -22 17 -51t-17 -52zM292 269
q-35 45 -35 102q0 58 36 102l7 -7q-33 -43 -33 -95t33 -95q-5 -5 -8 -7zM416 -17q-144 0 -252 97l7 8q105 -95 245 -95q139 0 244 94l2 -1l4 -4l1 -2q-107 -97 -251 -97zM416 121q-92 0 -161 61l7 8q65 -59 154 -59t153 59q1 -1 3.5 -4t3.5 -4q-67 -61 -160 -61zM416 170
q-72 0 -129 49l7 7q52 -46 122 -46t121 46l3.5 -3.5t3.5 -4.5q-54 -48 -128 -48zM416 209q-57 0 -103 38l7 8q43 -36 96 -36t96 36q2 -2 6 -8q-45 -38 -102 -38zM416 265q-37 0 -66 24l7 8q25 -22 59 -22q33 0 58 22q1 -2 3.5 -4t3.5 -4q-29 -24 -65 -24zM358 445q-3 2 -7 7
l-1 1q29 24 66 24t66 -24l-8 -8q-25 22 -58 22t-58 -22zM570 552q-65 59 -154 59q-87 0 -153 -58l-7 7q69 61 160 61q92 0 161 -61q-2 -3 -7 -8zM454 346l-6 5q5 10 5 20t-5 20l6 5q7 -12 7 -25t-7 -25zM468 333q-5 5 -8 7q10 15 10 31t-10 31l8 7q12 -16 12 -38
q0 -21 -12 -38zM498 306q-3 2 -8 7q19 25 19 58t-19 58l7 7q22 -28 22 -65q0 -34 -21 -65zM540 269q-2 1 -4 3.5t-4 3.5q33 43 33 95q0 53 -34 95l8 7q36 -44 36 -102q0 -57 -35 -102zM568 243q-5 5 -8 7q43 53 43 121t-43 121l8 7q45 -56 45 -128t-45 -128zM604 211
q-3 2 -8 7q55 66 55 153q0 89 -55 153l8 7q57 -68 57 -160t-57 -160zM649 171q-1 1 -3.5 3t-3.5 3q69 85 69 194q0 110 -70 193l8 7q72 -86 72 -200t-72 -200zM706 120q-3 3 -8 7q88 106 88 244t-88 244l8 7q90 -108 90 -251q0 -142 -90 -251zM183 170q-72 88 -72 201
t71 200q1 -1 3.5 -3t4.5 -4q-69 -83 -69 -193q0 -111 69 -194zM334 306q-21 29 -21 65t21 65q3 -2 8 -7q-19 -25 -19 -58q0 -32 19 -57zM364 333q-12 17 -12 38t12 38q1 -1 2 -2.5t2.5 -2.5t2.5 -2q-9 -16 -9 -31t9 -31zM395 403l-5 6q10 9 26 9t26 -9l-5 -6q-11 7 -21 7
q-13 0 -21 -7zM384 416l-7 7q17 14 39 14q21 0 38 -14q-4 -4 -6 -7q-14 12 -32 12q-17 0 -32 -12zM371 430l-7 8q22 19 52 19t52 -19l-7 -8q-19 17 -45 17t-45 -17zM295 516l-7 8q54 48 128 48t128 -49l-2 -1l-2 -4l-2 -2q-52 46 -122 46t-121 -46zM416 240q-48 0 -83 30
l7 8q35 -28 76 -28q42 0 75 28l7 -7q-36 -31 -82 -31zM416 285q-29 0 -53 19l7 8q22 -17 46 -17q25 0 45 17l7 -8q-22 -19 -52 -19zM416 305q-21 0 -40 14l7 7q17 -12 33 -12q17 0 32 12l7 -7q-17 -14 -39 -14zM341 464l-7 7q36 31 82 31q47 0 82 -30l-7 -8q-33 28 -75 28
t-75 -28zM320 487l-7 8q44 38 103 38q58 0 102 -39l-6 -7q-41 36 -96 36q-53 0 -96 -36zM610 597q-81 75 -194 75q-110 0 -194 -74l-7 7q87 77 201 77t201 -77zM172 654l-7 8q107 97 251 97t252 -97l-7 -8q-105 95 -245 95q-139 0 -244 -95zM516 290l-7 7q25 33 25 74
t-26 75l8 7q28 -36 28 -82q0 -47 -28 -81z" />
    <glyph glyph-name="pi" unicode="&#x3c0;" horiz-adv-x="669" 
d="M335 -9q-91 0 -154 28.5t-96.5 83t-47 118.5t-13.5 149t13.5 149t47 118.5t96.5 83.5t154 29t153.5 -29t96 -83.5t47.5 -119t14 -148.5t-14 -148.5t-47.5 -119t-96 -83t-153.5 -28.5zM335 56q72 0 121.5 23.5t75 69t36 98t10.5 123.5t-10.5 123.5t-36 98t-75 69.5
t-121.5 24q-73 0 -122.5 -24t-75 -69.5t-35.5 -98t-10 -123.5q0 -56 6 -100t22 -85.5t42.5 -68.5t70 -43.5t102.5 -16.5zM184 143v445h185q90 0 123 -38t33 -113q0 -77 -33 -117.5t-125 -40.5h-66v-136h-117zM301 375h64q25 0 34.5 12.5t9.5 41.5q0 30 -9.5 43t-34.5 13h-64
v-110z" />
    <glyph glyph-name="endash" unicode="&#x2013;" horiz-adv-x="657" 
d="M24 258v175h608v-175h-608z" />
    <glyph glyph-name="emdash" unicode="&#x2014;" horiz-adv-x="835" 
d="M24 258v175h787v-175h-787z" />
    <glyph glyph-name="quoteleft" unicode="&#x2018;" horiz-adv-x="291" 
d="M39 336v184q0 91 27.5 132t127.5 89l51 -94q-57 -30 -71.5 -45.5t-14.5 -46.5h93v-219h-213z" />
    <glyph glyph-name="quoteright" unicode="&#x2019;" horiz-adv-x="291" 
d="M97 336l-51 94q57 30 71.5 45.5t14.5 46.5h-93v219h213v-184q0 -91 -27.5 -132t-127.5 -89z" />
    <glyph glyph-name="quotesinglbase" unicode="&#x201a;" horiz-adv-x="291" 
d="M97 -186l-51 94q57 30 71.5 45.5t14.5 46.5h-93v219h213v-184q0 -91 -27.5 -132t-127.5 -89z" />
    <glyph glyph-name="quotedblleft" unicode="&#x201c;" horiz-adv-x="538" 
d="M39 347v184q0 89 26 126t125 84l48 -89q-55 -30 -69 -45t-14 -45h91v-215h-207zM293 347v184q0 89 26 126t124 84l49 -89q-56 -30 -70 -45t-14 -45h91v-215h-206z" />
    <glyph glyph-name="quotedblright" unicode="&#x201d;" horiz-adv-x="538" 
d="M95 347l-49 89q56 30 70 45t14 45h-91v215h206v-184q0 -89 -26 -126t-124 -84zM348 347l-48 89q55 30 69 45t14 45h-91v215h207v-184q0 -89 -26 -126t-125 -84z" />
    <glyph glyph-name="quotedblbase" unicode="&#x201e;" horiz-adv-x="538" 
d="M95 -175l-49 89q56 30 70 45t14 45h-91v215h206v-184q0 -89 -26 -126t-124 -84zM348 -175l-48 89q55 30 69 45t14 45h-91v215h207v-184q0 -89 -26 -126t-125 -84z" />
    <glyph glyph-name="dagger" unicode="&#x2020;" horiz-adv-x="550" 
d="M180 -158v531h-147v177h147v219h189v-219h148v-177h-148v-531h-189z" />
    <glyph glyph-name="daggerdbl" unicode="&#x2021;" horiz-adv-x="550" 
d="M180 -158v218h-147v177h147v136h-147v177h147v219h189v-219h148v-177h-148v-136h148v-177h-148v-218h-189z" />
    <glyph glyph-name="bullet" unicode="&#x2022;" horiz-adv-x="367" 
d="M68 169v270h230v-270h-230z" />
    <glyph glyph-name="ellipsis" unicode="&#x2026;" horiz-adv-x="839" 
d="M39 0v216h213v-216h-213zM313 0v216h213v-216h-213zM588 0v216h212v-216h-212z" />
    <glyph glyph-name="perthousand" unicode="&#x2030;" horiz-adv-x="1634" 
d="M244 245q-113 0 -168 58.5t-55 193.5t55 193t168 58t169 -58.5t56 -192.5q0 -135 -56 -193.5t-169 -58.5zM245 385q32 0 44 22t12 84t-12 84t-44 22t-43.5 -22t-11.5 -84t11.5 -84t43.5 -22zM912 -7q-113 0 -168 58.5t-55 193.5t55 193t168 58t169 -58.5t56 -192.5
q0 -135 -56 -193.5t-169 -58.5zM913 133q32 0 44 22t12 84t-12 84t-44 22t-43.5 -22t-11.5 -84t11.5 -84t43.5 -22zM316 0l352 741h176l-352 -741h-176zM1388 -7q-113 0 -168 58.5t-55 193.5t55 193t168 58t169 -58.5t56 -192.5q0 -135 -56 -193.5t-169 -58.5zM1389 133
q32 0 44 22t12 84t-12 84t-44 22t-43.5 -22t-11.5 -84t11.5 -84t43.5 -22z" />
    <glyph glyph-name="guilsinglleft" unicode="&#x2039;" horiz-adv-x="446" 
d="M188 0l-128 287l128 288h173l-114 -288l114 -287h-173z" />
    <glyph glyph-name="guilsinglright" unicode="&#x203a;" horiz-adv-x="446" 
d="M86 0l113 288l-113 287h172l128 -287l-128 -288h-172z" />
    <glyph glyph-name="fraction" unicode="&#x2044;" horiz-adv-x="518" 
d="M0 0l350 741h168l-350 -741h-168z" />
    <glyph glyph-name="fraction" unicode="&#x2215;" horiz-adv-x="518" 
d="M0 0l350 741h168l-350 -741h-168z" />
    <glyph glyph-name="Euro" unicode="&#x20ac;" horiz-adv-x="645" 
d="M19 384v107h105q16 139 82.5 199t205.5 60q124 0 210 -51l-90 -161q-56 28 -121 28q-41 0 -62 -17t-30 -58h146v-107h-154v-33h154v-107h-144q9 -41 30 -59t59 -18q63 0 125 32l86 -152q-97 -56 -224 -56q-129 0 -193 58.5t-80 194.5h-105v107h99v33h-99z" />
    <glyph glyph-name="trademark" unicode="&#x2122;" horiz-adv-x="954" 
d="M426 259v482h159l75 -260l75 260h160v-482h-135v227l-59 -227h-87l-60 227v-227h-128zM142 259v356h-116v126h373v-126h-117v-356h-140z" />
    <glyph glyph-name="partialdiff" unicode="&#x2202;" horiz-adv-x="832" 
d="M126 120q-90 108 -90 251q0 142 90 250q3 -2 7 -6q-87 -106 -87 -244t88 -244zM228 211q-57 70 -57 160t56 160q2 -1 4.5 -3.5l3.5 -3.5q-54 -67 -54 -153q0 -88 54 -153q-1 -1 -2 -2.5t-2.5 -2.5t-2.5 -2zM264 243q-45 56 -45 128t45 128q1 -1 4 -3.5t4 -3.5
q-43 -53 -43 -121t43 -121q-2 -1 -4.5 -3.5zM316 289q-28 36 -28 82q0 47 28 81l7 -7q-25 -33 -25 -74t26 -75q-2 -1 -4 -3.5t-4 -3.5zM349 320q-16 22 -16 51t16 51q2 -1 4 -3.5t4 -3.5q-14 -20 -14 -44t14 -44q-3 -2 -8 -7zM378 346q-7 12 -7 25t7 25l6 -5q-5 -10 -5 -20
t5 -20q-2 -2 -6 -5zM416 60q-116 0 -201 77l7 7q84 -74 194 -74q111 0 193 74q1 -2 3.5 -4t3.5 -4q-86 -76 -200 -76zM416 324q-15 0 -27 9l6 6q10 -7 21 -7q13 0 21 7q2 -2 5 -6q-10 -9 -26 -9zM482 319q-3 4 -7 7q14 20 14 45t-14 44l7 7q17 -22 17 -51t-17 -52zM292 269
q-35 45 -35 102q0 58 36 102l7 -7q-33 -43 -33 -95t33 -95q-5 -5 -8 -7zM416 -17q-144 0 -252 97l7 8q105 -95 245 -95q139 0 244 94l2 -1l4 -4l1 -2q-107 -97 -251 -97zM416 121q-92 0 -161 61l7 8q65 -59 154 -59t153 59q1 -1 3.5 -4t3.5 -4q-67 -61 -160 -61zM416 170
q-72 0 -129 49l7 7q52 -46 122 -46t121 46l3.5 -3.5t3.5 -4.5q-54 -48 -128 -48zM416 209q-57 0 -103 38l7 8q43 -36 96 -36t96 36q2 -2 6 -8q-45 -38 -102 -38zM416 265q-37 0 -66 24l7 8q25 -22 59 -22q33 0 58 22q1 -2 3.5 -4t3.5 -4q-29 -24 -65 -24zM358 445q-3 2 -7 7
l-1 1q29 24 66 24t66 -24l-8 -8q-25 22 -58 22t-58 -22zM570 552q-65 59 -154 59q-87 0 -153 -58l-7 7q69 61 160 61q92 0 161 -61q-2 -3 -7 -8zM454 346l-6 5q5 10 5 20t-5 20l6 5q7 -12 7 -25t-7 -25zM468 333q-5 5 -8 7q10 15 10 31t-10 31l8 7q12 -16 12 -38
q0 -21 -12 -38zM498 306q-3 2 -8 7q19 25 19 58t-19 58l7 7q22 -28 22 -65q0 -34 -21 -65zM540 269q-2 1 -4 3.5t-4 3.5q33 43 33 95q0 53 -34 95l8 7q36 -44 36 -102q0 -57 -35 -102zM568 243q-5 5 -8 7q43 53 43 121t-43 121l8 7q45 -56 45 -128t-45 -128zM604 211
q-3 2 -8 7q55 66 55 153q0 89 -55 153l8 7q57 -68 57 -160t-57 -160zM649 171q-1 1 -3.5 3t-3.5 3q69 85 69 194q0 110 -70 193l8 7q72 -86 72 -200t-72 -200zM706 120q-3 3 -8 7q88 106 88 244t-88 244l8 7q90 -108 90 -251q0 -142 -90 -251zM183 170q-72 88 -72 201
t71 200q1 -1 3.5 -3t4.5 -4q-69 -83 -69 -193q0 -111 69 -194zM334 306q-21 29 -21 65t21 65q3 -2 8 -7q-19 -25 -19 -58q0 -32 19 -57zM364 333q-12 17 -12 38t12 38q1 -1 2 -2.5t2.5 -2.5t2.5 -2q-9 -16 -9 -31t9 -31zM395 403l-5 6q10 9 26 9t26 -9l-5 -6q-11 7 -21 7
q-13 0 -21 -7zM384 416l-7 7q17 14 39 14q21 0 38 -14q-4 -4 -6 -7q-14 12 -32 12q-17 0 -32 -12zM371 430l-7 8q22 19 52 19t52 -19l-7 -8q-19 17 -45 17t-45 -17zM295 516l-7 8q54 48 128 48t128 -49l-2 -1l-2 -4l-2 -2q-52 46 -122 46t-121 -46zM416 240q-48 0 -83 30
l7 8q35 -28 76 -28q42 0 75 28l7 -7q-36 -31 -82 -31zM416 285q-29 0 -53 19l7 8q22 -17 46 -17q25 0 45 17l7 -8q-22 -19 -52 -19zM416 305q-21 0 -40 14l7 7q17 -12 33 -12q17 0 32 12l7 -7q-17 -14 -39 -14zM341 464l-7 7q36 31 82 31q47 0 82 -30l-7 -8q-33 28 -75 28
t-75 -28zM320 487l-7 8q44 38 103 38q58 0 102 -39l-6 -7q-41 36 -96 36q-53 0 -96 -36zM610 597q-81 75 -194 75q-110 0 -194 -74l-7 7q87 77 201 77t201 -77zM172 654l-7 8q107 97 251 97t252 -97l-7 -8q-105 95 -245 95q-139 0 -244 -95zM516 290l-7 7q25 33 25 74
t-26 75l8 7q28 -36 28 -82q0 -47 -28 -81z" />
    <glyph glyph-name="product" unicode="&#x220f;" horiz-adv-x="832" 
d="M126 120q-90 108 -90 251q0 142 90 250q3 -2 7 -6q-87 -106 -87 -244t88 -244zM228 211q-57 70 -57 160t56 160q2 -1 4.5 -3.5l3.5 -3.5q-54 -67 -54 -153q0 -88 54 -153q-1 -1 -2 -2.5t-2.5 -2.5t-2.5 -2zM264 243q-45 56 -45 128t45 128q1 -1 4 -3.5t4 -3.5
q-43 -53 -43 -121t43 -121q-2 -1 -4.5 -3.5zM316 289q-28 36 -28 82q0 47 28 81l7 -7q-25 -33 -25 -74t26 -75q-2 -1 -4 -3.5t-4 -3.5zM349 320q-16 22 -16 51t16 51q2 -1 4 -3.5t4 -3.5q-14 -20 -14 -44t14 -44q-3 -2 -8 -7zM378 346q-7 12 -7 25t7 25l6 -5q-5 -10 -5 -20
t5 -20q-2 -2 -6 -5zM416 60q-116 0 -201 77l7 7q84 -74 194 -74q111 0 193 74q1 -2 3.5 -4t3.5 -4q-86 -76 -200 -76zM416 324q-15 0 -27 9l6 6q10 -7 21 -7q13 0 21 7q2 -2 5 -6q-10 -9 -26 -9zM482 319q-3 4 -7 7q14 20 14 45t-14 44l7 7q17 -22 17 -51t-17 -52zM292 269
q-35 45 -35 102q0 58 36 102l7 -7q-33 -43 -33 -95t33 -95q-5 -5 -8 -7zM416 -17q-144 0 -252 97l7 8q105 -95 245 -95q139 0 244 94l2 -1l4 -4l1 -2q-107 -97 -251 -97zM416 121q-92 0 -161 61l7 8q65 -59 154 -59t153 59q1 -1 3.5 -4t3.5 -4q-67 -61 -160 -61zM416 170
q-72 0 -129 49l7 7q52 -46 122 -46t121 46l3.5 -3.5t3.5 -4.5q-54 -48 -128 -48zM416 209q-57 0 -103 38l7 8q43 -36 96 -36t96 36q2 -2 6 -8q-45 -38 -102 -38zM416 265q-37 0 -66 24l7 8q25 -22 59 -22q33 0 58 22q1 -2 3.5 -4t3.5 -4q-29 -24 -65 -24zM358 445q-3 2 -7 7
l-1 1q29 24 66 24t66 -24l-8 -8q-25 22 -58 22t-58 -22zM570 552q-65 59 -154 59q-87 0 -153 -58l-7 7q69 61 160 61q92 0 161 -61q-2 -3 -7 -8zM454 346l-6 5q5 10 5 20t-5 20l6 5q7 -12 7 -25t-7 -25zM468 333q-5 5 -8 7q10 15 10 31t-10 31l8 7q12 -16 12 -38
q0 -21 -12 -38zM498 306q-3 2 -8 7q19 25 19 58t-19 58l7 7q22 -28 22 -65q0 -34 -21 -65zM540 269q-2 1 -4 3.5t-4 3.5q33 43 33 95q0 53 -34 95l8 7q36 -44 36 -102q0 -57 -35 -102zM568 243q-5 5 -8 7q43 53 43 121t-43 121l8 7q45 -56 45 -128t-45 -128zM604 211
q-3 2 -8 7q55 66 55 153q0 89 -55 153l8 7q57 -68 57 -160t-57 -160zM649 171q-1 1 -3.5 3t-3.5 3q69 85 69 194q0 110 -70 193l8 7q72 -86 72 -200t-72 -200zM706 120q-3 3 -8 7q88 106 88 244t-88 244l8 7q90 -108 90 -251q0 -142 -90 -251zM183 170q-72 88 -72 201
t71 200q1 -1 3.5 -3t4.5 -4q-69 -83 -69 -193q0 -111 69 -194zM334 306q-21 29 -21 65t21 65q3 -2 8 -7q-19 -25 -19 -58q0 -32 19 -57zM364 333q-12 17 -12 38t12 38q1 -1 2 -2.5t2.5 -2.5t2.5 -2q-9 -16 -9 -31t9 -31zM395 403l-5 6q10 9 26 9t26 -9l-5 -6q-11 7 -21 7
q-13 0 -21 -7zM384 416l-7 7q17 14 39 14q21 0 38 -14q-4 -4 -6 -7q-14 12 -32 12q-17 0 -32 -12zM371 430l-7 8q22 19 52 19t52 -19l-7 -8q-19 17 -45 17t-45 -17zM295 516l-7 8q54 48 128 48t128 -49l-2 -1l-2 -4l-2 -2q-52 46 -122 46t-121 -46zM416 240q-48 0 -83 30
l7 8q35 -28 76 -28q42 0 75 28l7 -7q-36 -31 -82 -31zM416 285q-29 0 -53 19l7 8q22 -17 46 -17q25 0 45 17l7 -8q-22 -19 -52 -19zM416 305q-21 0 -40 14l7 7q17 -12 33 -12q17 0 32 12l7 -7q-17 -14 -39 -14zM341 464l-7 7q36 31 82 31q47 0 82 -30l-7 -8q-33 28 -75 28
t-75 -28zM320 487l-7 8q44 38 103 38q58 0 102 -39l-6 -7q-41 36 -96 36q-53 0 -96 -36zM610 597q-81 75 -194 75q-110 0 -194 -74l-7 7q87 77 201 77t201 -77zM172 654l-7 8q107 97 251 97t252 -97l-7 -8q-105 95 -245 95q-139 0 -244 -95zM516 290l-7 7q25 33 25 74
t-26 75l8 7q28 -36 28 -82q0 -47 -28 -81z" />
    <glyph glyph-name="summation" unicode="&#x2211;" horiz-adv-x="832" 
d="M126 120q-90 108 -90 251q0 142 90 250q3 -2 7 -6q-87 -106 -87 -244t88 -244zM228 211q-57 70 -57 160t56 160q2 -1 4.5 -3.5l3.5 -3.5q-54 -67 -54 -153q0 -88 54 -153q-1 -1 -2 -2.5t-2.5 -2.5t-2.5 -2zM264 243q-45 56 -45 128t45 128q1 -1 4 -3.5t4 -3.5
q-43 -53 -43 -121t43 -121q-2 -1 -4.5 -3.5zM316 289q-28 36 -28 82q0 47 28 81l7 -7q-25 -33 -25 -74t26 -75q-2 -1 -4 -3.5t-4 -3.5zM349 320q-16 22 -16 51t16 51q2 -1 4 -3.5t4 -3.5q-14 -20 -14 -44t14 -44q-3 -2 -8 -7zM378 346q-7 12 -7 25t7 25l6 -5q-5 -10 -5 -20
t5 -20q-2 -2 -6 -5zM416 60q-116 0 -201 77l7 7q84 -74 194 -74q111 0 193 74q1 -2 3.5 -4t3.5 -4q-86 -76 -200 -76zM416 324q-15 0 -27 9l6 6q10 -7 21 -7q13 0 21 7q2 -2 5 -6q-10 -9 -26 -9zM482 319q-3 4 -7 7q14 20 14 45t-14 44l7 7q17 -22 17 -51t-17 -52zM292 269
q-35 45 -35 102q0 58 36 102l7 -7q-33 -43 -33 -95t33 -95q-5 -5 -8 -7zM416 -17q-144 0 -252 97l7 8q105 -95 245 -95q139 0 244 94l2 -1l4 -4l1 -2q-107 -97 -251 -97zM416 121q-92 0 -161 61l7 8q65 -59 154 -59t153 59q1 -1 3.5 -4t3.5 -4q-67 -61 -160 -61zM416 170
q-72 0 -129 49l7 7q52 -46 122 -46t121 46l3.5 -3.5t3.5 -4.5q-54 -48 -128 -48zM416 209q-57 0 -103 38l7 8q43 -36 96 -36t96 36q2 -2 6 -8q-45 -38 -102 -38zM416 265q-37 0 -66 24l7 8q25 -22 59 -22q33 0 58 22q1 -2 3.5 -4t3.5 -4q-29 -24 -65 -24zM358 445q-3 2 -7 7
l-1 1q29 24 66 24t66 -24l-8 -8q-25 22 -58 22t-58 -22zM570 552q-65 59 -154 59q-87 0 -153 -58l-7 7q69 61 160 61q92 0 161 -61q-2 -3 -7 -8zM454 346l-6 5q5 10 5 20t-5 20l6 5q7 -12 7 -25t-7 -25zM468 333q-5 5 -8 7q10 15 10 31t-10 31l8 7q12 -16 12 -38
q0 -21 -12 -38zM498 306q-3 2 -8 7q19 25 19 58t-19 58l7 7q22 -28 22 -65q0 -34 -21 -65zM540 269q-2 1 -4 3.5t-4 3.5q33 43 33 95q0 53 -34 95l8 7q36 -44 36 -102q0 -57 -35 -102zM568 243q-5 5 -8 7q43 53 43 121t-43 121l8 7q45 -56 45 -128t-45 -128zM604 211
q-3 2 -8 7q55 66 55 153q0 89 -55 153l8 7q57 -68 57 -160t-57 -160zM649 171q-1 1 -3.5 3t-3.5 3q69 85 69 194q0 110 -70 193l8 7q72 -86 72 -200t-72 -200zM706 120q-3 3 -8 7q88 106 88 244t-88 244l8 7q90 -108 90 -251q0 -142 -90 -251zM183 170q-72 88 -72 201
t71 200q1 -1 3.5 -3t4.5 -4q-69 -83 -69 -193q0 -111 69 -194zM334 306q-21 29 -21 65t21 65q3 -2 8 -7q-19 -25 -19 -58q0 -32 19 -57zM364 333q-12 17 -12 38t12 38q1 -1 2 -2.5t2.5 -2.5t2.5 -2q-9 -16 -9 -31t9 -31zM395 403l-5 6q10 9 26 9t26 -9l-5 -6q-11 7 -21 7
q-13 0 -21 -7zM384 416l-7 7q17 14 39 14q21 0 38 -14q-4 -4 -6 -7q-14 12 -32 12q-17 0 -32 -12zM371 430l-7 8q22 19 52 19t52 -19l-7 -8q-19 17 -45 17t-45 -17zM295 516l-7 8q54 48 128 48t128 -49l-2 -1l-2 -4l-2 -2q-52 46 -122 46t-121 -46zM416 240q-48 0 -83 30
l7 8q35 -28 76 -28q42 0 75 28l7 -7q-36 -31 -82 -31zM416 285q-29 0 -53 19l7 8q22 -17 46 -17q25 0 45 17l7 -8q-22 -19 -52 -19zM416 305q-21 0 -40 14l7 7q17 -12 33 -12q17 0 32 12l7 -7q-17 -14 -39 -14zM341 464l-7 7q36 31 82 31q47 0 82 -30l-7 -8q-33 28 -75 28
t-75 -28zM320 487l-7 8q44 38 103 38q58 0 102 -39l-6 -7q-41 36 -96 36q-53 0 -96 -36zM610 597q-81 75 -194 75q-110 0 -194 -74l-7 7q87 77 201 77t201 -77zM172 654l-7 8q107 97 251 97t252 -97l-7 -8q-105 95 -245 95q-139 0 -244 -95zM516 290l-7 7q25 33 25 74
t-26 75l8 7q28 -36 28 -82q0 -47 -28 -81z" />
    <glyph glyph-name="minus" unicode="&#x2212;" horiz-adv-x="638" 
d="M76 270v165h486v-165h-486z" />
    <glyph glyph-name="radical" unicode="&#x221a;" horiz-adv-x="615" 
d="M166 -6l-156 472h202l60 -222l144 497h189l-239 -747h-200z" />
    <glyph glyph-name="infinity" unicode="&#x221e;" horiz-adv-x="981" 
d="M423 0v409h-129v-409h-191v409h-95v166h95v30q0 188 226 188q45 0 55 -1v-166h-36q-34 0 -44 -8.5t-10 -34.5v-8h129v30q0 188 226 188q45 0 55 -1v-166h-36q-34 0 -44 -8.5t-10 -34.5v-8h90v-166h-90v-409h-191zM743 0v575h191v-575h-191zM742 615v154h193v-154h-193z
" />
    <glyph glyph-name="integral" unicode="&#x222b;" horiz-adv-x="832" 
d="M126 120q-90 108 -90 251q0 142 90 250q3 -2 7 -6q-87 -106 -87 -244t88 -244zM228 211q-57 70 -57 160t56 160q2 -1 4.5 -3.5l3.5 -3.5q-54 -67 -54 -153q0 -88 54 -153q-1 -1 -2 -2.5t-2.5 -2.5t-2.5 -2zM264 243q-45 56 -45 128t45 128q1 -1 4 -3.5t4 -3.5
q-43 -53 -43 -121t43 -121q-2 -1 -4.5 -3.5zM316 289q-28 36 -28 82q0 47 28 81l7 -7q-25 -33 -25 -74t26 -75q-2 -1 -4 -3.5t-4 -3.5zM349 320q-16 22 -16 51t16 51q2 -1 4 -3.5t4 -3.5q-14 -20 -14 -44t14 -44q-3 -2 -8 -7zM378 346q-7 12 -7 25t7 25l6 -5q-5 -10 -5 -20
t5 -20q-2 -2 -6 -5zM416 60q-116 0 -201 77l7 7q84 -74 194 -74q111 0 193 74q1 -2 3.5 -4t3.5 -4q-86 -76 -200 -76zM416 324q-15 0 -27 9l6 6q10 -7 21 -7q13 0 21 7q2 -2 5 -6q-10 -9 -26 -9zM482 319q-3 4 -7 7q14 20 14 45t-14 44l7 7q17 -22 17 -51t-17 -52zM292 269
q-35 45 -35 102q0 58 36 102l7 -7q-33 -43 -33 -95t33 -95q-5 -5 -8 -7zM416 -17q-144 0 -252 97l7 8q105 -95 245 -95q139 0 244 94l2 -1l4 -4l1 -2q-107 -97 -251 -97zM416 121q-92 0 -161 61l7 8q65 -59 154 -59t153 59q1 -1 3.5 -4t3.5 -4q-67 -61 -160 -61zM416 170
q-72 0 -129 49l7 7q52 -46 122 -46t121 46l3.5 -3.5t3.5 -4.5q-54 -48 -128 -48zM416 209q-57 0 -103 38l7 8q43 -36 96 -36t96 36q2 -2 6 -8q-45 -38 -102 -38zM416 265q-37 0 -66 24l7 8q25 -22 59 -22q33 0 58 22q1 -2 3.5 -4t3.5 -4q-29 -24 -65 -24zM358 445q-3 2 -7 7
l-1 1q29 24 66 24t66 -24l-8 -8q-25 22 -58 22t-58 -22zM570 552q-65 59 -154 59q-87 0 -153 -58l-7 7q69 61 160 61q92 0 161 -61q-2 -3 -7 -8zM454 346l-6 5q5 10 5 20t-5 20l6 5q7 -12 7 -25t-7 -25zM468 333q-5 5 -8 7q10 15 10 31t-10 31l8 7q12 -16 12 -38
q0 -21 -12 -38zM498 306q-3 2 -8 7q19 25 19 58t-19 58l7 7q22 -28 22 -65q0 -34 -21 -65zM540 269q-2 1 -4 3.5t-4 3.5q33 43 33 95q0 53 -34 95l8 7q36 -44 36 -102q0 -57 -35 -102zM568 243q-5 5 -8 7q43 53 43 121t-43 121l8 7q45 -56 45 -128t-45 -128zM604 211
q-3 2 -8 7q55 66 55 153q0 89 -55 153l8 7q57 -68 57 -160t-57 -160zM649 171q-1 1 -3.5 3t-3.5 3q69 85 69 194q0 110 -70 193l8 7q72 -86 72 -200t-72 -200zM706 120q-3 3 -8 7q88 106 88 244t-88 244l8 7q90 -108 90 -251q0 -142 -90 -251zM183 170q-72 88 -72 201
t71 200q1 -1 3.5 -3t4.5 -4q-69 -83 -69 -193q0 -111 69 -194zM334 306q-21 29 -21 65t21 65q3 -2 8 -7q-19 -25 -19 -58q0 -32 19 -57zM364 333q-12 17 -12 38t12 38q1 -1 2 -2.5t2.5 -2.5t2.5 -2q-9 -16 -9 -31t9 -31zM395 403l-5 6q10 9 26 9t26 -9l-5 -6q-11 7 -21 7
q-13 0 -21 -7zM384 416l-7 7q17 14 39 14q21 0 38 -14q-4 -4 -6 -7q-14 12 -32 12q-17 0 -32 -12zM371 430l-7 8q22 19 52 19t52 -19l-7 -8q-19 17 -45 17t-45 -17zM295 516l-7 8q54 48 128 48t128 -49l-2 -1l-2 -4l-2 -2q-52 46 -122 46t-121 -46zM416 240q-48 0 -83 30
l7 8q35 -28 76 -28q42 0 75 28l7 -7q-36 -31 -82 -31zM416 285q-29 0 -53 19l7 8q22 -17 46 -17q25 0 45 17l7 -8q-22 -19 -52 -19zM416 305q-21 0 -40 14l7 7q17 -12 33 -12q17 0 32 12l7 -7q-17 -14 -39 -14zM341 464l-7 7q36 31 82 31q47 0 82 -30l-7 -8q-33 28 -75 28
t-75 -28zM320 487l-7 8q44 38 103 38q58 0 102 -39l-6 -7q-41 36 -96 36q-53 0 -96 -36zM610 597q-81 75 -194 75q-110 0 -194 -74l-7 7q87 77 201 77t201 -77zM172 654l-7 8q107 97 251 97t252 -97l-7 -8q-105 95 -245 95q-139 0 -244 -95zM516 290l-7 7q25 33 25 74
t-26 75l8 7q28 -36 28 -82q0 -47 -28 -81z" />
    <glyph glyph-name="approxequal" unicode="&#x2248;" horiz-adv-x="638" 
d="M171 372l-128 75q36 70 77.5 101.5t98.5 31.5q41 0 102.5 -21.5t79.5 -21.5q29 0 66 50l128 -75q-36 -70 -77.5 -101.5t-98.5 -31.5q-41 0 -101.5 21.5t-80.5 21.5q-29 0 -66 -50zM171 122l-128 75q36 70 77.5 101.5t98.5 31.5q41 0 102.5 -21.5t79.5 -21.5q29 0 66 50
l128 -75q-36 -70 -77.5 -101.5t-98.5 -31.5q-41 0 -101.5 21.5t-80.5 21.5q-29 0 -66 -50z" />
    <glyph glyph-name="notequal" unicode="&#x2260;" horiz-adv-x="747" 
d="M423 0v409h-129v-409h-191v409h-95v166h95v30q0 188 226 188q45 0 55 -1v-166h-36q-34 0 -44 -8.5t-10 -34.5v-8h129v30q0 188 226 188q61 0 95 -3v-164h-76q-34 0 -44 -8.5t-10 -34.5v-8h130v-166h-130v-409h-191z" />
    <glyph glyph-name="lessequal" unicode="&#x2264;" horiz-adv-x="638" 
d="M95 0v166h241l-241 126v129l412 214v-183l-210 -95l210 -96v-261h-412z" />
    <glyph glyph-name="greaterequal" unicode="&#x2265;" horiz-adv-x="638" 
d="M131 0v261l210 96l-210 95v183l412 -214v-129l-242 -126h242v-166h-412z" />
    <glyph glyph-name="lozenge" unicode="&#x25ca;" horiz-adv-x="764" 
d="M8 409v166h95v30q0 188 226 188q45 0 55 -1v-166h-36q-34 0 -44 -8.5t-10 -34.5v-8h132l27 113l151 34v-147h128v-166h-128v-194q0 -28 11 -39t50 -11h67v-165q-70 -6 -92 -6q-129 0 -177.5 43.5t-48.5 153.5v218h-120v-409h-191v409h-95z" />
    <glyph glyph-name="apple" unicode="&#xf8ff;" horiz-adv-x="832" 
d="M126 120q-90 108 -90 251q0 142 90 250q3 -2 7 -6q-87 -106 -87 -244t88 -244zM228 211q-57 70 -57 160t56 160q2 -1 4.5 -3.5l3.5 -3.5q-54 -67 -54 -153q0 -88 54 -153q-1 -1 -2 -2.5t-2.5 -2.5t-2.5 -2zM264 243q-45 56 -45 128t45 128q1 -1 4 -3.5t4 -3.5
q-43 -53 -43 -121t43 -121q-2 -1 -4.5 -3.5zM316 289q-28 36 -28 82q0 47 28 81l7 -7q-25 -33 -25 -74t26 -75q-2 -1 -4 -3.5t-4 -3.5zM349 320q-16 22 -16 51t16 51q2 -1 4 -3.5t4 -3.5q-14 -20 -14 -44t14 -44q-3 -2 -8 -7zM378 346q-7 12 -7 25t7 25l6 -5q-5 -10 -5 -20
t5 -20q-2 -2 -6 -5zM416 60q-116 0 -201 77l7 7q84 -74 194 -74q111 0 193 74q1 -2 3.5 -4t3.5 -4q-86 -76 -200 -76zM416 324q-15 0 -27 9l6 6q10 -7 21 -7q13 0 21 7q2 -2 5 -6q-10 -9 -26 -9zM482 319q-3 4 -7 7q14 20 14 45t-14 44l7 7q17 -22 17 -51t-17 -52zM292 269
q-35 45 -35 102q0 58 36 102l7 -7q-33 -43 -33 -95t33 -95q-5 -5 -8 -7zM416 -17q-144 0 -252 97l7 8q105 -95 245 -95q139 0 244 94l2 -1l4 -4l1 -2q-107 -97 -251 -97zM416 121q-92 0 -161 61l7 8q65 -59 154 -59t153 59q1 -1 3.5 -4t3.5 -4q-67 -61 -160 -61zM416 170
q-72 0 -129 49l7 7q52 -46 122 -46t121 46l3.5 -3.5t3.5 -4.5q-54 -48 -128 -48zM416 209q-57 0 -103 38l7 8q43 -36 96 -36t96 36q2 -2 6 -8q-45 -38 -102 -38zM416 265q-37 0 -66 24l7 8q25 -22 59 -22q33 0 58 22q1 -2 3.5 -4t3.5 -4q-29 -24 -65 -24zM358 445q-3 2 -7 7
l-1 1q29 24 66 24t66 -24l-8 -8q-25 22 -58 22t-58 -22zM570 552q-65 59 -154 59q-87 0 -153 -58l-7 7q69 61 160 61q92 0 161 -61q-2 -3 -7 -8zM454 346l-6 5q5 10 5 20t-5 20l6 5q7 -12 7 -25t-7 -25zM468 333q-5 5 -8 7q10 15 10 31t-10 31l8 7q12 -16 12 -38
q0 -21 -12 -38zM498 306q-3 2 -8 7q19 25 19 58t-19 58l7 7q22 -28 22 -65q0 -34 -21 -65zM540 269q-2 1 -4 3.5t-4 3.5q33 43 33 95q0 53 -34 95l8 7q36 -44 36 -102q0 -57 -35 -102zM568 243q-5 5 -8 7q43 53 43 121t-43 121l8 7q45 -56 45 -128t-45 -128zM604 211
q-3 2 -8 7q55 66 55 153q0 89 -55 153l8 7q57 -68 57 -160t-57 -160zM649 171q-1 1 -3.5 3t-3.5 3q69 85 69 194q0 110 -70 193l8 7q72 -86 72 -200t-72 -200zM706 120q-3 3 -8 7q88 106 88 244t-88 244l8 7q90 -108 90 -251q0 -142 -90 -251zM183 170q-72 88 -72 201
t71 200q1 -1 3.5 -3t4.5 -4q-69 -83 -69 -193q0 -111 69 -194zM334 306q-21 29 -21 65t21 65q3 -2 8 -7q-19 -25 -19 -58q0 -32 19 -57zM364 333q-12 17 -12 38t12 38q1 -1 2 -2.5t2.5 -2.5t2.5 -2q-9 -16 -9 -31t9 -31zM395 403l-5 6q10 9 26 9t26 -9l-5 -6q-11 7 -21 7
q-13 0 -21 -7zM384 416l-7 7q17 14 39 14q21 0 38 -14q-4 -4 -6 -7q-14 12 -32 12q-17 0 -32 -12zM371 430l-7 8q22 19 52 19t52 -19l-7 -8q-19 17 -45 17t-45 -17zM295 516l-7 8q54 48 128 48t128 -49l-2 -1l-2 -4l-2 -2q-52 46 -122 46t-121 -46zM416 240q-48 0 -83 30
l7 8q35 -28 76 -28q42 0 75 28l7 -7q-36 -31 -82 -31zM416 285q-29 0 -53 19l7 8q22 -17 46 -17q25 0 45 17l7 -8q-22 -19 -52 -19zM416 305q-21 0 -40 14l7 7q17 -12 33 -12q17 0 32 12l7 -7q-17 -14 -39 -14zM341 464l-7 7q36 31 82 31q47 0 82 -30l-7 -8q-33 28 -75 28
t-75 -28zM320 487l-7 8q44 38 103 38q58 0 102 -39l-6 -7q-41 36 -96 36q-53 0 -96 -36zM610 597q-81 75 -194 75q-110 0 -194 -74l-7 7q87 77 201 77t201 -77zM172 654l-7 8q107 97 251 97t252 -97l-7 -8q-105 95 -245 95q-139 0 -244 -95zM516 290l-7 7q25 33 25 74
t-26 75l8 7q28 -36 28 -82q0 -47 -28 -81z" />
    </font>
</defs>
</svg>
