<svg xmlns="http://www.w3.org/2000/svg" viewBox="0 0 18.4 21.5">
  <path fill="#F87F0F" d="M18.4 11.2v7.2h-1.5V20a1.4 1.4 0 0 1-1.5 1.5 1.4 1.4 0 0 1-1.1-.4 1.6 1.6 0 0 1-.5-1.1v-1.6H4.6V20a1.5 1.5 0 0 1-.4 1.1 1.5 1.5 0 0 1-1.1.4 1.4 1.4 0 0 1-1.1-.4 1.6 1.6 0 0 1-.5-1.1v-1.6H0v-7.2a12.4 12.4 0 0 1 .3-2.7l1.2-5.4a2.5 2.5 0 0 1 1.2-1.7 8.2 8.2 0 0 1 2.8-1A14.5 14.5 0 0 1 9.2 0a15.3 15.3 0 0 1 3.8.4 8.5 8.5 0 0 1 2.7 1 2.5 2.5 0 0 1 1.2 1.7l1.3 5.4a21.3 21.3 0 0 1 .2 2.7zM4.2 15.7a1.5 1.5 0 0 0 .4-1.1 1.5 1.5 0 0 0-.4-1.1 1.5 1.5 0 0 0-1.1-.4 1.4 1.4 0 0 0-1.1.4 1.5 1.5 0 0 0 0 2.2 1.4 1.4 0 0 0 1.1.4 1.5 1.5 0 0 0 1.1-.4zm12.1-5.9l-.8-4.6c-.1-.2-.1-.3-.3-.4l-.5-.2h-11l-.5.2a.5.5 0 0 0-.2.4l-.9 4.6a.6.6 0 0 0 .2.7.5.5 0 0 0 .5.3h12.8a.9.9 0 0 0 .6-.3.8.8 0 0 0 .1-.7zm-2.8-6.9c.1-.1.1-.2.1-.4s0-.3-.1-.4l-.4-.2H5.4a.5.5 0 0 0-.4.2.5.5 0 0 0 0 .8.5.5 0 0 0 .4.2h7.7zm3 12.8a1.5 1.5 0 0 0 .4-1.1 1.4 1.4 0 0 0-1.5-1.5 1.4 1.4 0 0 0-1.1.4 1.5 1.5 0 0 0 0 2.2 1.4 1.4 0 0 0 1.1.4 1.5 1.5 0 0 0 1.1-.4z"/>
</svg>
