<svg xmlns="http://www.w3.org/2000/svg" xmlns:xlink="http://www.w3.org/1999/xlink" width="28" height="41" viewBox="0 0 28 41">
  <defs>
    <clipPath id="clip-path">
      <rect width="28" height="41" fill="none"/>
    </clipPath>
  </defs>
  <g id="Component_41" data-name="Component 41" clip-path="url(#clip-path)">
    <g id="Path_151" data-name="Path 151" transform="translate(-67.207 -204.669)" fill="#f5f5f5">
      <path d="M 81.01579284667969 243.6753540039062 C 80.15293884277344 242.5363006591797 79.13979339599609 241.1759490966797 77.99160766601562 239.6146850585938 C 76.48876953125 237.5704803466797 74.45028686523438 234.0721282958984 71.93290710449219 229.2169189453125 C 69.46051788330078 224.4530029296875 68.20700073242188 220.5919494628906 68.20700073242188 217.7406768798828 C 68.20700073242188 216.0717620849609 68.51799774169922 214.5109710693359 69.13134765625 213.1016387939453 C 69.74584197998047 211.6897277832031 70.68548583984375 210.3796691894531 71.92417907714844 209.2078552246094 C 73.16710662841797 208.0322570800781 74.55924224853516 207.1393585205078 76.06185150146484 206.5540313720703 C 77.56938934326172 205.9667663574219 79.23912048339844 205.6690063476562 81.02463531494141 205.6690063476562 C 82.80995178222656 205.6690063476562 84.47953033447266 205.9667663574219 85.98700714111328 206.5540161132812 C 87.48960113525391 207.1393585205078 88.88172149658203 208.0322570800781 90.12468719482422 209.2079162597656 C 91.36331939697266 210.3796691894531 92.30297088623047 211.6897277832031 92.91745758056641 213.1016387939453 C 93.53080749511719 214.5109710693359 93.84181213378906 216.0717620849609 93.84181213378906 217.7406768798828 C 93.84181213378906 220.5963897705078 92.71531677246094 224.2937469482422 90.49362182617188 228.7300720214844 C 88.22895812988281 233.2530517578125 85.93558502197266 237.081298828125 83.67716979980469 240.1085357666016 L 81.01579284667969 243.6753540039062 Z" stroke="none"/>
      <path d="M 81.02463531494141 206.6690063476562 C 77.68643951416016 206.6690063476562 74.93440246582031 207.7371368408203 72.61141204833984 209.9342803955078 C 70.32058715820312 212.1014251708984 69.20700073242188 214.6549224853516 69.20700073242188 217.7406768798828 C 69.20700073242188 220.4300079345703 70.42269897460938 224.1360778808594 72.8206787109375 228.7566223144531 C 75.31424713134766 233.5659027099609 77.32511138916016 237.0198364257812 78.79721832275391 239.0222320556641 C 79.60440826416016 240.1198272705078 80.34441375732422 241.1175079345703 81.01198577880859 242.0082702636719 L 82.87564849853516 239.5105590820312 C 85.09890747070312 236.5304718017578 87.36110687255859 232.7527618408203 89.59947967529297 228.2822875976562 C 91.75093078613281 223.9862213134766 92.84181213378906 220.4395141601562 92.84181213378906 217.7406768798828 C 92.84181213378906 214.6549224853516 91.72821044921875 212.1014251708984 89.43753051757812 209.9344177246094 C 87.11441040039062 207.7371215820312 84.36252593994141 206.6690063476562 81.02463531494141 206.6690063476562 M 81.02463531494141 204.6690063476562 C 84.86280059814453 204.6690063476562 88.12503814697266 205.9401245117188 90.81183624267578 208.4813995361328 C 93.49864959716797 211.0231475830078 94.84181213378906 214.1097259521484 94.84181213378906 217.7406768798828 C 94.84181213378906 220.7673950195312 93.69045257568359 224.5798034667969 91.38775634765625 229.1778564453125 C 89.08457183837891 233.7778015136719 86.78138732910156 237.6199188232422 84.47869110107422 240.7064971923828 L 81.02463531494141 245.3356628417969 C 80.00035858154297 244.0037689208984 78.72146606445312 242.2950134277344 77.18601226806641 240.2071380615234 C 75.65103912353516 238.1192474365234 73.60293579101562 234.6103668212891 71.04515075683594 229.6772155761719 C 68.48590087890625 224.7459411621094 67.20700073242188 220.7673950195312 67.20700073242188 217.7406768798828 C 67.20700073242188 214.1097259521484 68.55015563964844 211.0231475830078 71.23696136474609 208.4813995361328 C 73.92378234863281 205.9401245117188 77.18601226806641 204.6690063476562 81.02463531494141 204.6690063476562 Z" stroke="none" fill="#e12b6e"/>
    </g>
  </g>
</svg>
