<svg xmlns="http://www.w3.org/2000/svg" viewBox="0 0 21.5 20.7">
  <path fill="#2dace3" d="M2.5 17.9L.1 11.2a1.1 1.1 0 0 1 0-.8 1 1 0 0 1 .6-.5l1.9-.6V4.6a2 2 0 0 1 .6-1.4 1.7 1.7 0 0 1 1.4-.7h3.1L8.4 0H13l.8 2.5h3.1a1.7 1.7 0 0 1 1.4.7 2 2 0 0 1 .6 1.4v4.7l1.8.6a1 1 0 0 1 .7.5 1.1 1.1 0 0 1 0 .8L19 17.9h-.1a5.5 5.5 0 0 1-4.1-2.1 5.4 5.4 0 0 1-4.1 2.1 5.4 5.4 0 0 1-4-2 5.6 5.6 0 0 1-4.1 2zm12.3-.3l.9.9a9.8 9.8 0 0 0 1.9 1.3 4.5 4.5 0 0 0 2.3.9h-1a8.7 8.7 0 0 1-4.1-1.3 8.3 8.3 0 0 1-4.1 1 7.9 7.9 0 0 1-4-1 8.7 8.7 0 0 1-4.1 1.3H1.5a5.2 5.2 0 0 0 2.4-.8 11.5 11.5 0 0 0 2-1.5l.8-.8a6.6 6.6 0 0 0 4 1.3 6.7 6.7 0 0 0 4.1-1.3zM4.6 4.6v4l6.1-1.9 6.2 1.9v-4z"/>
</svg>
