<svg xmlns="http://www.w3.org/2000/svg" viewBox="0 0 24 24" enable-background="new 0 0 24 24"><style type="text/css">.st0{fill:#FFFFFF;}</style><path d="M21.2 0H2.8C1.2 0 0 1.2 0 2.8v18.5C0 22.8 1.2 24 2.8 24h18.5c1.5 0 2.8-1.2 2.8-2.8V2.8C24 1.2 22.8 0 21.2 0zM12 7.4c2.5 0 4.6 2.1 4.6 4.6 0 2.5-2.1 4.6-4.6 4.6S7.4 14.5 7.4 12c0-2.5 2.1-4.6 4.6-4.6zm9 12.7c0 .5-.4.9-.9.9H3.9c-.5 0-.9-.4-.9-.9V10h1.9c-.1.3-.2.6-.2 1-.1.3-.1.7-.1 1 0 4.1 3.3 7.4 7.4 7.4s7.4-3.3 7.4-7.4c0-.4 0-.7-.1-1 0-.3-.1-.7-.2-1H21s0 10.1 0 10.1zm0-14c0 .5-.4.9-.9.9h-2.2c-.5 0-.9-.4-.9-.9V3.9c0-.5.4-.9.9-.9h2.2c.5 0 .9.4.9.9v2.2z" class="st0"/></svg>