<?xml version="1.0" standalone="no"?>
<!DOCTYPE svg PUBLIC "-//W3C//DTD SVG 1.1//EN" "http://www.w3.org/Graphics/SVG/1.1/DTD/svg11.dtd" >
<svg xmlns="http://www.w3.org/2000/svg">
<metadata>Generated by IcoMoon</metadata>
<defs>
<font id="boatshow-icons" horiz-adv-x="1024">
<font-face units-per-em="1024" ascent="870.4" descent="-153.6" />
<missing-glyph horiz-adv-x="1024" />
<glyph unicode="&#x20;" horiz-adv-x="0" d="" />
<glyph unicode="&#x41;" glyph-name="arrow-down" d="M539.183 88.536c0 0 473.875 473.874 473.875 473.874 6.98 7.018 10.904 16.526 10.941 26.411 0.151 29.051-31.164 47.387-56.404 33.012-2.981-1.697-5.697-3.81-8.112-6.225 0 0-447.464-447.464-447.464-447.464s-447.465 447.464-447.465 447.464c-14.752 14.865-38.823 14.865-53.575 0-14.639-14.714-14.639-38.483 0-53.198 0 0 473.875-473.874 473.875-473.874 5.169-5.546 12.111-9.131 19.619-10.187 4.98-1.132 10.111-1.132 15.091 0 7.508 1.056 14.451 4.641 19.619 10.187 0 0 0 0 0 0M512.019 88.536c0 0 2.641 2.641 2.641 2.641s-2.264-2.641-2.264-2.641c0 0-0.377 0-0.377 0" />
<glyph unicode="&#x42;" glyph-name="arrow-up" d="M504.936 626.323c4.981 1.132 10.112 1.132 15.092 0 7.508-1.056 14.45-4.64 19.619-10.186 0 0 473.874-473.497 473.874-473.497 14.639-14.714 14.639-38.483 0-53.198-14.752-14.865-38.823-14.865-53.575 0 0 0-447.464 447.087-447.464 447.087s-447.464-447.841-447.464-447.841c-20.449-20.638-55.574-11.357-63.195 16.638-0.906 3.32-1.359 6.716-1.321 10.149 0.038 9.885 3.962 19.393 10.942 26.41 0 0 473.873 475.006 473.873 475.006 5.283 5.244 12.187 8.565 19.619 9.432 0 0 0 0 0 0M512.105 615.759c0 0-2.264-2.641-2.264-2.641s2.641 3.773 2.641 3.773c0 0-0.377-1.132-0.377-1.132" />
<glyph unicode="&#x43;" glyph-name="arrow-left" d="M238.349 359.564c-1.132-4.981-1.132-10.112 0-15.092 1.056-7.508 4.641-14.45 10.187-19.619 0 0 471.987-473.874 471.987-473.874 14.714-14.639 38.484-14.639 53.198 0 14.865 14.752 14.865 38.823 0 53.575 0 0-445.578 447.464-445.578 447.464s447.464 447.464 447.464 447.464c20.638 20.449 11.357 55.574-16.638 63.195-3.32 0.906-6.716 1.359-10.149 1.321-9.885-0.038-19.393-3.962-26.41-10.942 0 0-473.874-473.873-473.874-473.873-5.546-5.169-9.131-12.111-10.187-19.619 0 0 0 0 0 0M248.913 352.395c0 0 2.641 2.264 2.641 2.264s-2.641-2.641-2.641-2.641c0 0 0 0.377 0 0.377" />
<glyph unicode="&#x44;" glyph-name="arrow-right" d="M775.422 352.396c0 0 0 0 0 0s-2.641 2.641-2.641 2.641c0 0 2.641-2.641 2.641-2.641M775.422 352.396c0 0 0 0 0 0s-2.641 2.641-2.641 2.641c0 0 2.641-2.641 2.641-2.641M775.799 379.183c0 0-473.875 473.875-473.875 473.875-7.017 6.98-16.525 10.904-26.41 10.941-29.051 0.151-47.387-31.164-33.012-56.404 1.697-2.981 3.81-5.697 6.225-8.112 0 0 447.464-447.464 447.464-447.464s-447.464-447.465-447.464-447.465c-14.865-14.752-14.865-38.823 0-53.575 14.714-14.639 38.483-14.639 53.197 0 0 0 473.875 473.875 473.875 473.875 5.546 5.169 9.131 12.111 10.187 19.619 1.132 4.98 1.132 10.111 0 15.091-1.056 7.508-4.641 14.451-10.187 19.619 0 0 0 0 0 0M775.799 352.019c0 0-2.641 2.641-2.641 2.641s2.641-2.264 2.641-2.264c0 0 0-0.377 0-0.377M775.422 352.396c0 0 0 0 0 0s-2.641 2.641-2.641 2.641c0 0 2.641-2.641 2.641-2.641" />
<glyph unicode="&#x45;" glyph-name="triangle-up" d="M12.323 73.009c0 0 999.749 0 999.749 0 9.133-0.076 14.866 9.784 10.356 17.695-0.42 0.802-0.955 1.528-1.567 2.178 0 0-516.307 535.034-516.307 535.034-4.701 5.197-12.879 5.197-17.58 0 0 0-483.823-535.034-483.823-535.034-6.191-6.688-2.79-17.58 6.114-19.605 0.994-0.229 2.026-0.306 3.058-0.268 0 0 0 0 0 0" />
<glyph unicode="&#x46;" glyph-name="triangle-down" d="M12.323 631.805c0 0 999.749 0 999.749 0 9.133 0.076 14.866-9.784 10.356-17.695-0.42-0.802-0.955-1.528-1.567-2.178 0 0-516.307-535.034-516.307-535.034-4.701-5.197-12.879-5.197-17.58 0 0 0-483.823 535.034-483.823 535.034-6.191 6.688-2.79 17.58 6.114 19.605 0.994 0.229 2.026 0.306 3.058 0.268 0 0 0 0 0 0" />
<glyph unicode="&#x47;" glyph-name="close" d="M1010.698-80.328c25.13-25.315 13.421-68.31-21.012-77.381-16.013-4.258-33.044 0.37-44.707 12.126 0 0-431.797 431.797-431.797 431.797s-432.26-431.797-432.26-431.797c-8.562-8.701-20.179-13.699-32.397-13.885-35.589-1.295-59.239 36.423-42.578 67.894 2.175 4.165 4.999 7.96 8.331 11.246 0 0 431.797 432.26 431.797 432.26s-431.797 432.723-431.797 432.723c-18.235 18.096-18.235 47.623 0 65.719 8.747 8.654 20.548 13.514 32.859 13.421 12.125-0.046 23.788-4.859 32.396-13.421 0 0 432.26-432.26 432.26-432.26s431.798 432.26 431.798 432.26c25.315 25.824 69.050 14.578 78.769-20.225 4.536-16.152 0.093-33.507-11.662-45.494 0 0-432.261-431.797-432.261-431.797s432.261-433.186 432.261-433.186" />
<glyph unicode="&#x48;" glyph-name="menu" d="M0.028 74.514c0.777 11.715 7.346 22.264 17.475 28.154 14.497 5.371 30.321 6.18 45.304 2.265 35.272-4.336 68.797-17.96 97.079-39.479 14.239-12.071 29.513-22.911 45.628-32.36 26.567-15.209 57.309-21.455 87.695-17.798 28.186 4.563 54.624 16.536 76.693 34.625 31.292 25.176 67.244 43.848 105.817 55.012 37.602 9.222 77.211 5.695 112.612-10.032 34.108-18.833 66.565-40.482 97.080-64.72 26.147-21.584 62.616-25.629 92.873-10.355 26.050 13.3 50.384 29.707 72.486 48.864 29.674 22.296 64.526 36.663 101.287 41.744 15.468 3.301 31.453 3.301 46.921 0 11.326-3.398 19.869-12.717 22.329-24.27 4.207-19.319-9.741-37.829-29.448-39.155-28.476-4.854-46.598 7.766-97.079-24.27-32.619-30.030-70.739-53.459-112.289-68.927-32.781-10.355-68.183-8.867-99.992 4.207-13.883 5.663-26.956 13.17-38.832 22.328-14.562 10.032-27.83 21.358-42.392 32.36-17.28 12.588-36.502 22.231-56.953 28.477-9.87 2.362-19.966 3.559-30.095 3.559-39.155 0-87.695-35.272-108.729-50.157-32.651-27.668-73.716-43.427-116.496-44.657-47.763-2.557-95.073 10.614-134.617 37.537-21.746 23.558-49.478 40.774-80.252 49.835-10.582 2.815-21.423 4.433-32.36 4.854-9.773-1.101-19.643 0.582-28.477 4.854-8.737 6.374-13.721 16.697-13.268 27.505 0 0 0 0 0 0M0.028 397.143c0.777 11.714 7.346 22.263 17.475 28.153 14.497 5.371 30.321 6.18 45.304 2.265 35.272-4.336 68.797-17.96 97.079-39.479 14.239-12.070 29.513-22.911 45.628-32.36 26.567-15.209 57.309-21.455 87.695-17.798 28.186 4.563 54.624 16.536 76.693 34.625 31.292 25.176 67.244 43.848 105.817 55.012 37.602 9.223 77.211 5.695 112.612-10.032 34.108-18.833 66.565-40.482 97.080-64.719 26.147-21.584 62.616-25.629 92.873-10.356 26.050 13.3 50.384 29.707 72.486 48.864 29.674 22.296 64.526 36.664 101.287 41.744 15.468 3.301 31.453 3.301 46.921 0 11.326-3.398 19.869-12.717 22.329-24.27 4.207-19.319-9.741-37.829-29.448-39.155-28.476-4.854-46.598 7.766-97.079-24.27-32.619-30.030-70.739-53.459-112.289-68.927-32.781-10.355-68.183-8.866-99.992 4.207-13.883 5.663-26.956 13.17-38.832 22.328-14.562 10.032-27.83 21.358-42.392 32.36-17.248 12.718-36.502 22.458-56.953 28.801-9.87 2.362-19.966 3.559-30.095 3.559-39.155 0-87.695-35.272-108.729-50.158-32.651-27.667-73.716-43.427-116.496-44.656-47.763-2.557-95.073 10.614-134.617 37.537-21.649 23.526-49.284 40.741-79.929 49.834-10.581 2.816-21.422 4.434-32.36 4.854-9.772-1.1-19.642 0.583-28.476 4.854-8.77 6.246-13.85 16.439-13.592 27.183 0 0 0 0 0 0M0.028 719.771c0.777 11.714 7.346 22.263 17.475 28.153 14.497 5.372 30.321 6.181 45.304 2.265 35.272-4.336 68.797-17.96 97.079-39.479 14.239-12.070 29.513-22.911 45.628-32.36 26.567-15.209 57.309-21.454 87.695-17.798 28.186 4.563 54.624 16.536 76.693 34.625 31.292 25.176 67.244 43.848 105.817 55.012 38.282 9.482 78.667 5.695 114.554-10.679 34.107-18.833 66.564-40.482 97.080-64.719 26.146-21.585 62.616-25.629 92.873-10.356 26.049 13.3 50.384 29.707 72.486 48.864 29.674 22.296 64.525 36.664 101.286 41.744 15.468 3.301 31.454 3.301 46.922 0 11.326-3.398 19.869-12.717 22.328-24.27 4.207-19.319-9.74-37.829-29.447-39.155-28.477-4.854-46.598 7.766-97.080-24.27-32.619-30.030-70.739-53.459-112.289-68.927-32.78-10.355-68.182-8.866-99.992 4.207-13.882 5.663-26.956 13.17-38.832 22.328-14.562 10.032-27.829 21.358-42.391 32.36-17.798 13.138-37.699 23.105-58.895 29.448-9.87 2.362-19.966 3.559-30.095 3.559-39.155 0-87.695-35.272-108.729-50.158-32.651-27.667-73.716-43.427-116.496-44.656-47.86-2.718-95.267 10.355-134.94 37.214-21.649 23.525-49.285 40.741-79.929 49.834-10.582 2.815-21.423 4.433-32.36 4.854-9.773-1.1-19.643 0.582-28.477 4.854-8.737 6.375-13.721 16.698-13.268 27.506 0 0 0 0 0 0" />
<glyph unicode="&#x49;" glyph-name="search" d="M1013.863-100.44c0 0-254.867 254.867-254.867 254.867 214.777 252.421 75.737 642.643-250.217 702.433-325.989 59.791-594.46-255.728-483.214-567.905 101.086-283.867 455.041-378.684 684.524-183.435 0 0 254.867-254.867 254.867-254.867 18.839-18.84 50.973-10.195 57.862 15.498 3.203 11.952-0.207 24.661-8.955 33.409 0 0 0 0 0 0M431.458 73.834c-277.599 0-451.080 300.501-312.281 540.903s485.762 240.401 624.561 0c31.893-55.21 48.563-117.928 48.322-181.679-0.758-198.624-161.978-359.224-360.602-359.224 0 0 0 0 0 0" />
<glyph unicode="&#x4a;" glyph-name="location" d="M422.734 256.79c0 0 166.353-408.027 166.353-408.027 3.343-8.7 14.822-10.513 20.663-3.263 0.805 0.967 1.45 2.095 1.893 3.263 0 0 411.652 997.712 411.652 997.712 4.028 8.378-2.578 17.964-11.842 17.239-1.491-0.080-2.941-0.483-4.27-1.128 0 0-998.92-414.471-998.92-414.471-8.7-3.343-10.513-14.823-3.263-20.663 0.967-0.806 2.095-1.45 3.263-1.893 0 0 408.027-161.116 408.027-161.116 3.141-1.491 5.518-4.31 6.444-7.653 0 0 0 0 0 0" />
<glyph unicode="&#x4b;" glyph-name="circle-plus-o" d="M512.384 863.724c-393.838 0-639.99-426.358-443.088-767.424 196.935-341.067 689.24-341.067 886.176 0 44.892 77.782 68.528 165.99 68.528 255.808 0 282.562-229.054 511.616-511.616 511.616 0 0 0 0 0 0M512.384-90.108c-341.201 0-554.43 369.363-383.847 664.833 170.617 295.47 597.11 295.47 767.693 0 39.059-67.691 59.543-144.467 59.376-222.617-0.57-244.376-198.847-442.216-443.222-442.216 0 0 0 0 0 0M777.244 352.108c0-18.507-15.020-33.527-33.527-33.527 0 0-197.807 0-197.807 0s0-197.807 0-197.807c0-25.815-27.927-41.942-50.29-29.034-10.359 6.001-16.763 17.065-16.763 29.034 0 0 0 197.807 0 197.807s-197.807 0-197.807 0c-25.815 0-41.942 27.928-29.034 50.29 6.001 10.36 17.065 16.764 29.034 16.764 0 0 197.807 0 197.807 0s0 197.807 0 197.807c0 25.815 27.928 41.941 50.29 29.034 10.36-6.002 16.763-17.065 16.763-29.034 0 0 0-197.807 0-197.807s197.807 0 197.807 0c18.507 0 33.527-15.020 33.527-33.527 0 0 0 0 0 0" />
<glyph unicode="&#x4c;" glyph-name="circle-plus" d="M512.384 863.724c-393.838 0-639.99-426.358-443.088-767.424 196.935-341.067 689.24-341.067 886.176 0 44.892 77.782 68.528 165.99 68.528 255.808 0 282.562-229.054 511.616-511.616 511.616 0 0 0 0 0 0M742.376 318.581c0 0-197.807 0-197.807 0s0-197.807 0-197.807c0-25.815-27.927-41.942-50.29-29.034-10.359 6.001-16.763 17.065-16.763 29.034 0 0 0 197.807 0 197.807s-197.807 0-197.807 0c-25.816 0-41.942 27.928-29.034 50.29 6.001 10.36 17.065 16.764 29.034 16.764 0 0 197.807 0 197.807 0s0 197.471 0 197.471c0 25.816 27.928 41.942 50.29 29.034 10.36-6.001 16.763-17.065 16.763-29.034 0 0 0-197.807 0-197.807s197.807 0 197.807 0c25.816 0 41.942-27.927 29.034-50.29-6.001-10.359-17.065-16.763-29.034-16.763 0 0 0 0.335 0 0.335" />
<glyph unicode="&#x4d;" glyph-name="check" d="M1011.81 659.642c0 0-673.669-673.668-673.669-673.668-4.001-4.126-8.951-7.261-14.438-9.076-4.703-2.021-9.736-3.011-14.851-2.888 0 0-15.264 2.888-15.264 2.888-5.404 1.98-10.314 5.074-14.439 9.076 0 0-267.322 267.322-267.322 267.322-22.236 22.689-11.592 60.931 19.183 68.852 3.176 0.784 6.435 1.237 9.694 1.279 10.974 0.082 21.493-4.249 29.29-11.964 0 0 238.445-238.444 238.445-238.444s645.203 645.203 645.203 645.203c16.089 16.006 42.079 16.006 58.168 0 16.253-16.13 16.253-42.45 0-58.58 0 0 0 0 0 0" />
<glyph unicode="&#x4e;" glyph-name="checkbox-o" d="M921.6 864c0 0-819.2 0-819.2 0-56.559 0-102.4-45.841-102.4-102.4 0 0 0-819.2 0-819.2 0-56.559 45.841-102.4 102.4-102.4 0 0 819.2 0 819.2 0 56.559 0 102.4 45.841 102.4 102.4 0 0 0 819.2 0 819.2 0 56.559-45.841 102.4-102.4 102.4 0 0 0 0 0 0M955.733-57.6c0-18.842-15.291-34.133-34.133-34.133 0 0-819.2 0-819.2 0-18.842 0-34.133 15.291-34.133 34.133 0 0 0 819.2 0 819.2 0 18.842 15.291 34.133 34.133 34.133 0 0 819.2 0 819.2 0 18.842 0 34.133-15.291 34.133-34.133 0 0 0-819.2 0-819.2" />
<glyph unicode="&#x4f;" glyph-name="checkbox" d="M921.6 864c0 0-819.2 0-819.2 0-56.559 0-102.4-45.841-102.4-102.4 0 0 0-819.2 0-819.2 0-56.559 45.841-102.4 102.4-102.4 0 0 819.2 0 819.2 0 56.559 0 102.4 45.841 102.4 102.4 0 0 0 819.2 0 819.2 0 56.559-45.841 102.4-102.4 102.4 0 0 0 0 0 0M806.912 533.248c0 0-397.312-396.971-397.312-396.971-4.71-4.471-10.923-7.031-17.408-7.168 0 0-8.875 0-8.875 0-3.174 1.229-6.11 3.072-8.533 5.462 0 0-157.696 157.696-157.696 157.696-13.141 13.243-6.997 35.737 11.025 40.516 1.98 0.512 3.994 0.785 6.042 0.785 6.553 0.137 12.868-2.458 17.408-7.168 0 0 140.629-140.629 140.629-140.629s380.245 381.952 380.245 381.952c9.455 9.386 24.679 9.386 34.134 0 9.523-9.455 9.659-24.815 0.341-34.475 0 0 0 0 0 0" />
<glyph unicode="&#x50;" glyph-name="circle-o" d="M512.383 863.726c-393.837 0-639.989-426.36-443.087-767.426 196.935-341.067 689.24-341.067 886.175 0 44.993 77.982 68.663 166.459 68.528 256.478-0.368 282.296-229.322 510.948-511.616 510.948 0 0 0 0 0 0M512.383-91.114c-341.2 0-554.429 369.362-383.846 664.834 170.617 295.47 597.076 295.47 767.693 0 38.79-67.187 59.241-143.361 59.375-220.942 0.57-245.18-198.041-444.227-443.222-444.227 0 0 0 0.335 0 0.335" />
<glyph unicode="&#x51;" glyph-name="circle" d="M1 352c0-393.542 426.039-639.51 766.85-442.756 158.16 91.325 255.616 260.106 255.616 442.756 0 393.542-426.039 639.51-766.849 442.756-158.161-91.325-255.617-260.106-255.617-442.756" />
<glyph unicode="&#x52;" glyph-name="social-email" d="M972.8 812.8c0 0 0-921.6 0-921.6s-921.6 0-921.6 0c0 0 0 921.6 0 921.6s921.6 0 921.6 0M972.8 864c0 0-921.6 0-921.6 0-28.288 0-51.2-22.912-51.2-51.2 0 0 0-921.6 0-921.6 0-28.288 22.912-51.2 51.2-51.2 0 0 921.6 0 921.6 0 28.288 0 51.2 22.912 51.2 51.2 0 0 0 921.6 0 921.6 0 28.288-22.912 51.2-51.2 51.2 0 0 0 0 0 0M793.6 577.536c0 0-563.2 0-563.2 0-28.032 0.026-50.534-23.168-49.664-51.2 0 0 0-349.696 0-349.696 7.424-59.392 56.576-49.408 56.576-49.408s544 0 544 0c31.053-6.195 60.211 16.998 61.184 48.64 0 0 0 351.488 0 351.488-5.632 55.040-48.896 50.176-48.896 50.176s0 0 0 0M769.792 210.176c-2.355-2.611-5.709-4.122-9.216-4.096-3.251 0.077-6.349 1.357-8.704 3.584 0 0-128 119.040-128 119.040s-2.304 2.56-2.304 2.56c0 0-99.328-94.464-99.328-94.464-1.306-1.101-2.765-1.971-4.352-2.56 0 0-4.864 0-4.864 0-3.251 0.077-6.349 1.357-8.704 3.584 0 0 0 0 0 0s-99.84 94.976-99.84 94.976c0 0 0 0 0 0s-128-119.040-128-119.040c-2.355-2.202-5.478-3.405-8.704-3.328-3.533-0.077-6.912 1.408-9.216 4.096-5.043 5.018-5.043 13.158 0 18.176 0 0 128 118.528 128 118.528s-123.392 118.784-123.392 118.784c-7.091 6.886-4.070 18.893 5.453 21.581 4.429 1.254 9.165 0.051 12.467-3.149 0 0 232.704-224.256 232.704-224.256s232.704 224.256 232.704 224.256c7.091 6.886 18.995 3.533 21.427-6.067 1.127-4.455-0.205-9.165-3.507-12.365 0 0-125.696-121.088-125.696-121.088 0.589 0.205 1.203 0.205 1.792 0 0 0 128-119.040 128-119.040 6.451-4.787 6.938-14.285 1.024-19.712 0 0 0.256 0 0.256 0" />
<glyph unicode="&#x53;" glyph-name="social-facebook" d="M972.8 812.8c0 0 0-921.6 0-921.6s-921.6 0-921.6 0c0 0 0 921.6 0 921.6s921.6 0 921.6 0M972.8 864c0 0-921.6 0-921.6 0-28.288 0-51.2-22.912-51.2-51.2 0 0 0-921.6 0-921.6 0-28.288 22.912-51.2 51.2-51.2 0 0 921.6 0 921.6 0 28.288 0 51.2 22.912 51.2 51.2 0 0 0 921.6 0 921.6 0 28.288-22.912 51.2-51.2 51.2 0 0 0 0 0 0M411.648 472.32c0 0-78.848 0-78.848 0s0-124.416 0-124.416c0 0 79.872 0 79.872 0s0-360.96 0-360.96c0 0 160 0 160 0s0 361.216 0 361.216c0 0 106.752 0 106.752 0s11.776 124.16 11.776 124.16c0 0-119.808 0-119.808 0s0 68.096 0 68.096c0 0-2.304 30.976 17.152 38.144 13.338 4.89 27.571 6.886 41.728 5.888 0 0 60.928 0 60.928 0s0 124.416 0 124.416c0 0-115.712 0-115.712 0s-89.088 1.536-130.304-48.384c-33.28-33.024-33.536-110.080-33.536-110.080s0-78.080 0-78.080" />
<glyph unicode="&#x54;" glyph-name="social-google" d="M972.8 812.8c0 0 0-921.6 0-921.6s-921.6 0-921.6 0c0 0 0 921.6 0 921.6s921.6 0 921.6 0M972.8 864c0 0-921.6 0-921.6 0-28.288 0-51.2-22.912-51.2-51.2 0 0 0-921.6 0-921.6 0-28.288 22.912-51.2 51.2-51.2 0 0 921.6 0 921.6 0 28.288 0 51.2 22.912 51.2 51.2 0 0 0 921.6 0 921.6 0 28.288-22.912 51.2-51.2 51.2 0 0 0 0 0 0M686.848 391.168c0 0 0-68.096 0-68.096s68.096 0 68.096 0c0 0 0-68.096 0-68.096s68.096 0 68.096 0c0 0 0 68.096 0 68.096s67.84 0 67.84 0c0 0 0 68.096 0 68.096s-67.84 0-67.84 0c0 0 0 68.096 0 68.096s-68.096 0-68.096 0c0 0 0-68.096 0-68.096s-68.096 0-68.096 0c0 0 0 0 0 0M486.4 475.648c0 0 68.608 65.024 68.608 65.024-143.923 130.816-375.526 56.781-416.845-133.299-1.894-8.653-3.302-17.383-4.275-26.189-8.243-88.883 31.949-175.334 105.216-226.304 88.397-59.162 203.418-60.467 293.12-3.328 86.784 59.136 105.728 169.216 92.416 240.896 0 0-238.848 0-238.848 0s0-84.992 0-84.992c0 0 143.36 0 143.36 0s-21.248-123.136-170.24-104.704c-76.979 14.31-131.738 83.046-128.512 161.28 3.021 54.707 33.843 104.064 81.664 130.816 56.422 30.669 125.952 23.014 174.336-19.2 0 0 0 0 0 0" />
<glyph unicode="&#x55;" glyph-name="social-instagram" d="M972.8 812.8c0 0 0-921.6 0-921.6s-921.6 0-921.6 0c0 0 0 921.6 0 921.6s921.6 0 921.6 0M972.8 864c0 0-921.6 0-921.6 0-28.288 0-51.2-22.912-51.2-51.2 0 0 0-921.6 0-921.6 0-28.288 22.912-51.2 51.2-51.2 0 0 921.6 0 921.6 0 28.288 0 51.2 22.912 51.2 51.2 0 0 0 921.6 0 921.6 0 28.288-22.912 51.2-51.2 51.2 0 0 0 0 0 0M791.552 616.448c-22.4 27.238-55.885 42.931-91.136 42.752 0 0-384 0-384 0-117.504-16.64-111.616-118.784-111.616-118.784s0-391.68 0-391.68c9.011-63.181 65.971-108.211 129.536-102.4 0 0 366.080 0 366.080 0 65.178-0.435 118.349 52.070 118.784 117.248 0 0 0 376.832 0 376.832 0.154 27.827-9.651 54.81-27.648 76.032 0 0 0 0 0 0M727.040 597.76c0 0 0-92.16 0-92.16s-91.904 0-91.904 0c0 0 0 91.904 0 91.904s91.904 0.256 91.904 0.256M496.64 473.6c82.176 0 133.53-88.96 92.442-160.128s-143.796-71.168-184.884 0c-9.369 16.23-14.31 34.637-14.31 53.376 0 58.957 47.795 106.752 106.752 106.752 0 0 0 0 0 0M757.76 164.608c-1.792-31.565-27.059-56.73-58.624-58.368 0 0-387.328 1.536-387.328 1.536-26.496 6.144-45.338 29.645-45.568 56.832 0 0 0 248.832 0 248.832s92.16 0 92.16 0c-56.576-123.136 67.072-275.968 221.696-215.040 143.104 69.376 85.504 215.040 85.504 215.040s92.16 0 92.16 0c0 0 0-248.832 0-248.832" />
<glyph unicode="&#x56;" glyph-name="social-pinterest" d="M972.8 812.8c0 0 0-921.6 0-921.6s-921.6 0-921.6 0c0 0 0 921.6 0 921.6s921.6 0 921.6 0M972.8 864c0 0-921.6 0-921.6 0-28.288 0-51.2-22.912-51.2-51.2 0 0 0-921.6 0-921.6 0-28.288 22.912-51.2 51.2-51.2 0 0 921.6 0 921.6 0 28.288 0 51.2 22.912 51.2 51.2 0 0 0 921.6 0 921.6 0 28.288-22.912 51.2-51.2 51.2 0 0 0 0 0 0M344.064 322.304c0 0 8.448 33.792 8.448 33.792 2.995 8.32 0.691 17.638-5.888 23.552-12.954 15.846-21.76 34.688-25.6 54.784-4.403 33.818-0.358 68.224 11.776 100.096 17.51 49.613 54.477 89.907 102.4 111.616 51.661 21.965 109.542 24.346 162.816 6.656 52.48-17.92 116.48-58.368 94.976-210.432s-102.4-163.072-128-164.096c-39.040-1.869-70.707 31.232-67.072 70.144 0 0 25.6 102.4 33.536 125.44s11.008 88.064-36.096 97.28c-60.16 11.264-90.368-45.312-94.72-91.136-3.661-28.595 0.589-57.626 12.288-83.968 0 0-48.64-210.432-55.808-242.432-6.63-49.28-6.63-99.2 0-148.48 0 0 4.352-9.728 9.728-2.56 20.582 28.237 39.219 57.83 55.808 88.576 9.267 19.84 16.742 40.499 22.272 61.696 5.376 21.248 25.6 104.192 25.6 104.192 19.789-28.979 51.354-47.718 86.272-51.2 57.088-4.352 150.784 12.032 209.152 136.96s21.248 248.32-15.104 288.256c-36.352 39.936-116.736 143.616-323.328 89.6-114.176-35.046-191.36-141.44-189.184-260.864 6.4-71.424 22.272-116.736 84.992-147.968 8.678-4.48 19.2 0.845 20.736 10.496 0 0 0 0 0 0" />
<glyph unicode="&#x57;" glyph-name="social-twitter" d="M972.8 812.8c0 0 0-921.6 0-921.6s-921.6 0-921.6 0c0 0 0 921.6 0 921.6s921.6 0 921.6 0M972.8 864c0 0-921.6 0-921.6 0-28.288 0-51.2-22.912-51.2-51.2 0 0 0-921.6 0-921.6 0-28.288 22.912-51.2 51.2-51.2 0 0 921.6 0 921.6 0 28.288 0 51.2 22.912 51.2 51.2 0 0 0 921.6 0 921.6 0 28.288-22.912 51.2-51.2 51.2 0 0 0 0 0 0M747.776 531.2c26.88 16.614 46.669 42.624 55.552 72.96-24.96-14.797-52.096-25.574-80.384-32-37.478 42.419-99.046 53.837-149.248 27.648-52.378-29.133-79.437-89.19-66.56-147.712-102.528 5.862-197.504 55.706-260.608 136.704-60.928-124.416 39.168-175.872 39.168-175.872-20.147 0.41-39.859 5.862-57.344 15.872-1.997-62.643 41.114-117.709 102.4-130.816-18.56-5.35-38.144-6.144-57.088-2.304 8.576-27.418 25.702-51.379 48.896-68.352 20.378-14.362 44.467-22.451 69.376-23.296-23.475-18.688-49.843-33.382-78.080-43.52-35.226-10.982-72.397-14.49-109.056-10.24 86.938-56.499 193.869-73.165 293.888-45.824 163.072 48.128 265.728 209.664 259.84 378.368 23.962 19.174 44.493 42.291 60.672 68.352-22.554-10.496-46.694-17.254-71.424-19.968 0 0 0 0 0 0" />
<glyph unicode="&#x58;" glyph-name="social-youtube" d="M972.8 812.8c0 0 0-921.6 0-921.6s-921.6 0-921.6 0c0 0 0 921.6 0 921.6s921.6 0 921.6 0M972.8 864c0 0-921.6 0-921.6 0-28.288 0-51.2-22.912-51.2-51.2 0 0 0-921.6 0-921.6 0-28.288 22.912-51.2 51.2-51.2 0 0 921.6 0 921.6 0 28.288 0 51.2 22.912 51.2 51.2 0 0 0 921.6 0 921.6 0 28.288-22.912 51.2-51.2 51.2 0 0 0 0 0 0M839.424 502.784c-12.032 91.136-44.544 104.448-79.36 112.896s-222.464 9.728-273.664 9.984c-75.494 1.075-151.014-2.611-226.048-11.008-29.798-6.4-53.683-28.621-62.208-57.856-7.322-25.037-11.955-50.79-13.824-76.8-8.858-85.094-8.858-170.906 0-256 5.888-138.752 71.936-130.048 115.2-135.424s171.776-7.168 234.24-7.424c62.464-0.256 171.52-2.816 238.592 13.056s67.84 124.416 69.12 147.968c5.76 86.81 5.069 173.901-2.048 260.608 0 0 0 0 0 0M429.824 214.272c0 0 0 275.456 0 275.456s210.176-137.728 210.176-137.728c0 0-210.176-137.728-210.176-137.728" />
<glyph unicode="&#x59;" glyph-name="circle-play-o" d="M434.267 499.96c0 0 0-296.040 0-296.040-0.269-7.744 7.946-12.874 14.785-9.22 0.469 0.235 0.905 0.537 1.307 0.839 0 0 203.507 144.499 203.507 144.499 5.666 4.023 5.666 12.405 0 16.428 0 0-203.507 151.205-203.507 151.205-6.202 4.661-15.086 0.839-16.025-6.839-0.034-0.268-0.067-0.57-0.067-0.872 0 0 0 0 0 0M512.384 863.724c-393.838 0-639.99-426.358-443.088-767.424 196.935-341.067 689.24-341.067 886.176 0 44.892 77.782 68.528 165.99 68.528 255.808 0 282.562-229.054 511.616-511.616 511.616 0 0 0 0 0 0M512.384-91.114c-341.201 0.268-554.162 369.765-383.344 665.135 170.818 295.336 597.311 295.034 767.693-0.604 38.79-67.288 59.208-143.628 59.208-221.309 0-244.912-198.645-443.423-443.557-443.222 0 0 0 0 0 0" />
<glyph unicode="&#x5a;" glyph-name="video-play" d="M150 830.903c0 0 0-958.024 0-958.024 0-25.291 27.326-41.058 49.242-28.435 0.879 0.508 1.711 1.017 2.543 1.618 0 0 658.873 468.377 658.873 468.377 18.078 13.085 18.078 40.088 0 53.173 0 0-657.948 489.646-657.948 489.646-20.113 15.304-49.242 3.098-52.433-21.963-0.185-1.479-0.277-2.912-0.277-4.392 0 0 0 0 0 0" />
<glyph unicode="&#x61;" glyph-name="video-pause" d="M262.391-160c0 0-9.526 0-9.526 0-23.814 0-42.865 19.051-42.865 42.865 0 0 0 938.27 0 938.27 0 23.814 19.051 42.865 42.865 42.865 0 0 9.526 0 9.526 0 23.814 0 42.865-19.051 42.865-42.865 0 0 0-933.507 0-933.507 4.763-23.814-19.051-47.628-42.865-47.628 0 0 0 0 0 0M772.009-160c0 0-9.525 0-9.525 0-23.814 0-42.865 19.051-42.865 42.865 0 0 0 938.27 0 938.27 0 23.814 19.051 42.865 42.865 42.865 0 0 9.525 0 9.525 0 23.814 0 42.865-19.051 42.865-42.865 0 0 0-933.507 0-933.507 0-23.814-19.051-47.628-42.865-47.628 0 0 0 0 0 0" />
<glyph unicode="&#x62;" glyph-name="sound" d="M712.608 783.358c-2.783-0.387-5.495-1.092-8.102-2.113 0 0-493.154-190.922-493.154-190.922s-176.127 0-176.127 0c-19.444 0-35.225-15.781-35.225-35.225 0 0 0-407.909 0-407.909 0-19.445 15.781-35.225 35.225-35.225 0 0 176.127 0 176.127 0s493.154-190.569 493.154-190.569c22.192-7.539 45.406 8.313 46.498 31.702 0 0 0 796.445 0 796.445 0 19.444-15.781 35.225-35.226 35.225 0 0-4.579 0-4.579 0s1.409-1.409 1.409-1.409M682.667 699.522c0 0 0-695.7 0-695.7s-431.863 166.616-431.863 166.616c0 0 0 362.82 0 362.82s431.863 166.616 431.863 166.616c0 0 0-0.352 0-0.352M919.381 613.22c-26.912-3.241-40.263-34.38-23.989-56.079 0.247-0.352 0.494-0.669 0.74-0.986 28.885-32.055 59.179-85.245 59.179-204.659s-30.294-172.252-59.179-204.307c-13.632-23.425 3.17-52.838 30.294-52.944 6.446-0.035 12.787 1.726 18.317 5.037 0 0 2.114 2.114 2.114 2.114 39.452 43.679 77.143 118.357 77.143 250.1s-37.691 206.772-77.143 250.452c-7.046 7.608-17.12 11.765-27.476 11.272 0 0 0 0 0 0M827.443 556.507c-26.384-3.663-39.312-34.133-23.601-55.656 17.965-22.544 38.043-60.588 38.043-149.003s-20.078-126.811-38.043-149.003c-11.061-24.764 8.841-52.204 35.824-49.386 6.27 0.634 12.294 2.994 17.366 6.763 27.476 35.226 52.838 92.291 52.838 191.626 4.967 68.055-13.703 135.723-52.838 191.626-7.256 8.982-18.423 13.843-29.942 13.033 0 0 0.353 0 0.353 0M69.042 521.282c0 0 113.777 0 113.777 0s0-340.981 0-340.981c0 0-113.777 0-113.777 0s0 340.981 0 340.981" />
<glyph unicode="&#x63;" glyph-name="reload" d="M870.929 192.281c-0.154-4.274-1.107-8.444-2.832-12.357-2.471-5.844-5.303-11.507-8.495-16.991-2.909-5.329-5.921-10.555-9.010-15.703-6.179-10.298-12.872-20.26-20.080-29.863-7.208-9.602-14.751-18.87-22.655-27.803s-16.475-17.505-25.743-25.743c-9.268-8.238-18.355-16.038-27.288-23.427-9.448-7.388-19.231-14.339-29.348-20.852s-20.517-12.537-31.15-18.021c-10.632-5.663-21.624-10.735-32.951-15.188s-22.835-8.496-34.497-12.1c-11.842-3.604-23.761-6.616-35.783-9.010s-24.379-4.299-37.071-5.664c-12.691-1.364-25.409-2.059-38.1-2.059 0 0-2.832 0-2.832 0-216.168 1.004-390.915 176.42-391.044 392.589 0 0 0 2.059 0 2.059s-78.26-77.23-78.26-77.23c-10.040-9.989-26.259-9.989-36.299 0-9.988 10.040-9.988 26.258 0 36.298 0 0 119.45 118.163 119.45 118.163 3.939 3.784 8.985 6.23 14.417 6.95 1.287 0.258 2.574 0.258 3.861 0 7.234 0.464 14.339-2.162 19.565-7.208 0 0 119.708-119.965 119.708-119.965 16.733-10.632 15.703-35.371-1.88-44.562-12.357-6.461-27.648-1.879-34.419 10.324 0 0-73.884 72.854-73.884 72.854 1.262-187.053 153.277-338.013 340.33-338.013 12.64 0 25.28 0.67 37.843 2.060 109.77 12.408 206.694 77.282 260.009 174.026 0 0 4.892 9.268 4.892 9.268 1.544 3.089 3.089 6.693 4.891 9.782 4.582 8.367 13.386 13.516 22.912 13.387 14.313 0 25.897-11.688 25.743-26.001 0 0 0 0 0 0M1016.895 393.853c0 0-120.222-118.935-120.222-118.935-3.913-3.888-8.959-6.411-14.417-7.209-2.909-0.386-5.844-0.386-8.753 0-5.483 0.695-10.58 3.218-14.416 7.209 0 0-119.707 119.707-119.707 119.707-10.761 16.656 0.54 38.692 20.337 39.671 5.895 0.309 11.713-1.442 16.476-4.917 0 0 79.032-77.231 79.032-77.231s0 3.089 0 3.089c-0.437 187.799-152.787 339.815-340.586 339.815-132.322-1.879-252.081-78.724-308.923-198.225-4.556-8.084-13.103-13.104-22.396-13.129-14.211 0-25.744 11.533-25.744 25.743-0.026 3.372 0.695 6.693 2.060 9.783 0 0 0 0 0 0s0 1.802 0 1.802c0.978 2.548 2.085 5.045 3.346 7.465 0 0 3.862 7.723 3.862 7.723 140.173 267.733 517.625 283.308 679.397 28.061 39.491-62.325 60.626-134.484 60.986-208.265 0 0 73.112 73.369 73.112 73.369 10.066 10.143 26.49 10.143 36.556 0 9.473-9.937 9.473-25.589 0-35.526 0 0 0 0 0 0" />
<glyph unicode="&#x64;" glyph-name="star-o" d="M1019.353 483.559c5.784 5.891 2.999 15.816-4.962 17.886-0.964 0.215-1.928 0.357-2.892 0.322 0 0-321.314 6.426-321.314 6.426-4.177 0.071-7.962 2.571-9.64 6.426 0 0-158.872 343.449-158.872 343.449-3.284 7.569-13.53 8.712-18.422 2.071-0.499-0.643-0.892-1.321-1.213-2.071 0 0-158.158-342.021-158.158-342.021-1.678-3.855-5.463-6.354-9.64-6.426 0 0-321.314-4.998-321.314-4.998-8.247 0.143-13.566-8.676-9.568-15.887 0.464-0.857 1.036-1.643 1.714-2.321 0 0 233.488-253.481 233.488-253.481 2.749-2.82 3.713-6.962 2.499-10.71 0 0-115.673-367.726-115.673-367.726-2.535-7.855 4.391-15.495 12.46-13.746 0.893 0.179 1.714 0.5 2.535 0.893 0 0 365.584 182.792 365.584 182.792 3.142 1.642 6.854 1.642 9.996 0 0 0 343.806-182.078 343.806-182.078 7.141-4.141 16.066 0.964 16.102 9.211 0 1-0.143 1.964-0.393 2.928 0 0-92.467 366.655-92.467 366.655-0.928 3.534 0 7.318 2.499 9.996 0 0 233.845 252.41 233.845 252.41M717.318 192.234c16.066-64.62 55.694-221.349 55.694-221.349s-220.635 118.529-220.635 118.529c-21.885 12.138-48.019 13.959-71.403 4.998-46.769-25.348-245.984-123.527-245.984-123.527s74.616 235.273 74.616 235.273c0 0 18.922 42.842-32.845 92.11 0 0-127.812 138.165-127.812 138.165s192.432 3.213 192.432 3.213c28.668 2.428 53.873 19.993 66.047 46.055 20.707 44.627 104.606 224.206 104.606 224.206s101.035-219.208 101.035-219.208c13.853-32.845 46.877-53.445 82.471-51.41 62.835 0 178.508-3.57 178.508-3.57s-142.806-151.732-142.806-151.732c-21.671-25.455-27.062-61.014-13.924-91.753 0 0 0 0 0 0" />
<glyph unicode="&#x65;" glyph-name="star" d="M13.235 504.123c0 0 321.313 4.999 321.313 4.999 4.178 0.071 7.962 2.57 9.64 6.426 0 0 158.158 342.020 158.158 342.020 3.284 7.569 13.53 8.711 18.421 2.071 0.5-0.643 0.893-1.321 1.214-2.071 0 0 158.158-342.020 158.158-342.020 1.678-3.856 5.462-6.355 9.639-6.426 0 0 321.314-6.427 321.314-6.427 8.247 0.143 13.567-8.675 9.568-15.887-0.464-0.857-1.035-1.642-1.714-2.32 0 0-233.845-252.41-233.845-252.41-2.499-2.678-3.427-6.462-2.499-9.997 0 0 93.181-367.011 93.181-367.011 2.214-7.926-4.998-15.316-12.959-13.245-0.964 0.214-1.893 0.607-2.749 1.106 0 0-343.806 182.078-343.806 182.078-3.142 1.642-6.855 1.642-9.996 0 0 0-363.799-183.863-363.799-183.863-7.354-3.677-15.994 1.964-15.494 10.211 0.071 0.893 0.214 1.785 0.5 2.642 0 0 115.316 366.297 115.316 366.297 1.213 3.749 0.249 7.89-2.5 10.711 0 0-233.487 253.481-233.487 253.481-6.891 4.534-6.248 14.816 1.106 18.529 1.643 0.821 3.499 1.214 5.32 1.106 0 0 0 0 0 0" />
<glyph unicode="&#x66;" glyph-name="circle-trailer-o" d="M780.812 338.474c1.534 3.581 51.161 105.904 51.161 108.803 3.326 7.061 2.882 15.332-1.194 22-4.417 6.361-11.528 10.335-19.27 10.744 0 0-56.108 0-56.108 0 2.030 43.385-31.959 79.983-75.378 81.176 0 0-164.57 0-164.57 0-6.924-0.119-13.336-3.7-17.054-9.55 0 0-49.286-71.626-49.286-71.626s-214.708 0-214.708 0c-13.797-1.603-23.21-14.735-20.294-28.31 6.412-28.821 17.975-56.26 34.108-81.006 16.303-26.553 43.402-44.63 74.184-49.456 0 0 212.321 0 212.321 0-10.915-9.294-19.544-20.959-25.24-34.108 0 0-263.312 0-263.312 0s0 22.511 0 22.511c0 0 2.899 0 2.899 0-0.273 10.779-9.004 19.425-19.782 19.612-11.239 0.99-20.67-8.356-19.783-19.612 0 0 2.899 0 2.899 0s0-17.053 0-37.689c-0.989-10.573 7.828-19.492 18.419-18.588 0 0 269.451 0 269.451 0-7.435-80.392 74.952-138.683 148.301-104.916 16.764 7.726 31.208 19.731 41.85 34.824 14.939 20.192 21.539 45.346 18.418 70.262 0 0 77.254 0 77.254 0s0 34.108 0 34.108c0 0-86.122 0-86.122 0-6.088 12.876-14.598 24.455-25.069 34.108 0 0 85.269 0 85.269 0 9.636 0.887 17.77 7.469 20.636 16.713 0 0 0 0 0 0M522.275 527.26c0 0 156.213 0 156.213 0 25.376-0.068 45.159-21.999 42.635-47.239 0 0-231.421 0-231.421 0s32.573 47.239 32.573 47.239M675.76 243.313c0-54.351-58.836-88.322-105.905-61.138-47.069 27.167-47.069 95.109 0 122.276 10.727 6.208 22.903 9.465 35.301 9.465 38.798-0.188 70.177-31.635 70.263-70.433 0 0 0.341-0.17 0.341-0.17M323.256 355.527c0 0-47.069 2.9-72.479 90.216 0 0 543.166 0 543.166 0s-42.805-90.216-42.805-90.216c0 0-427.882 0-427.882 0M512.383 863.733c-393.842 0-639.998-426.347-443.077-767.425s689.233-341.077 886.154 0c44.903 77.783 68.54 166.003 68.54 255.809 0 282.566-229.051 511.616-511.617 511.616 0 0 0 0 0 0M512.383-125.392c-367.579 0-597.329 397.918-413.539 716.263s643.289 318.345 827.079 0c41.901-72.598 63.969-154.934 63.969-238.754 0-263.722-213.787-477.509-477.509-477.509 0 0 0 0 0 0M580.258 243.483c0-18.776 20.328-30.509 36.58-21.112 7.538 4.348 12.194 12.398 12.194 21.112 0 18.777-20.328 30.51-36.581 21.113-7.537-4.349-12.193-12.398-12.193-21.113" />
<glyph unicode="&#x67;" glyph-name="circle-passengers-o" d="M512.383 863.733c-393.842 0-639.998-426.347-443.077-767.425s689.233-341.077 886.154 0c44.903 77.783 68.54 166.003 68.54 255.809 0 282.566-229.051 511.616-511.617 511.616 0 0 0 0 0 0M512.383-125.392c-367.579 0-597.329 397.918-413.539 716.263s643.289 318.345 827.079 0c41.901-72.598 63.969-154.934 63.969-238.754 0-263.722-213.787-477.509-477.509-477.509 0 0 0 0 0 0M842.206 126.835c-1.314 94.512-59.28 178.98-147.005 214.197 35.148 25.598 55.425 66.868 54.231 110.338 0 9.414-7.64 17.054-17.053 17.054 0 0-240.119 0-243.359 0s-17.054-2.728-16.031-23.534c0.87-10.42 2.643-20.755 5.287-30.868 8.1-28.923 25.41-54.436 49.285-72.649-36.461-15.57-68.897-39.241-94.819-69.239-42.806-47.922-51.162-116.478-51.162-141.547-2.592-12.075 7.316-23.194 19.612-22 0 0 421.402 0 421.402 0 10.897-1.688 20.515 7.248 19.612 18.248 0 0 0 0 0 0M415.858 142.865c3.582 35.984 16.457 70.416 37.348 99.936 30.339 40.418 74.782 67.926 124.494 77.084 8.356 2.319 13.643 10.539 12.279 19.1-1.382 6.907-6.873 12.262-13.814 13.473-35.54 13.029-61.496 43.931-68.216 81.176 0 0 206.693 0 206.693 0-3.24-17.309-10.607-33.562-21.487-47.41-12.262-15.996-29.094-27.883-48.263-34.107-7.452-2.251-12.449-9.278-12.108-17.054 0.699-7.095 5.73-13.012 12.62-14.837 87.708-15.775 154.047-88.254 162.012-177.019 0 0-391.558-0.342-391.558-0.342M395.905 281.172c23.842 26.639 30.152 64.635 16.201 97.549-26.245 63.611-110.185 77.51-155.531 25.751-17.992-20.175-26.212-47.239-22.511-74.014 2.609-18.247 10.437-35.352 22.511-49.286-27.457-15.553-49.269-39.445-62.247-68.215-6.293-14.718-10.317-30.305-11.937-46.216-1.791-8.067-0.7-16.525 3.069-23.876 3.428-3.854 8.323-6.088 13.473-6.139 0 0 155.531 0 155.531 0 5.423-0.58 10.778 1.671 14.155 5.969 2.967 3.445 4.434 7.913 4.093 12.449-0.068 16.969 3.053 33.801 9.209 49.627 6.583 17.054 16.099 32.812 28.139 46.557 4.212 5.918 4.212 13.865 0 19.783-3.991 4.28-8.8 7.691-14.155 10.061 0 0 0 0 0 0M384.309 332.334c-2.934-17.48-13.763-32.641-29.333-41.1-4.4-2.609-7.418-7.043-8.186-12.108-1.040-6.463 1.501-12.995 6.651-17.054 3.24-1.535 17.054-6.821 17.054-6.821-17.838-25.053-28.361-54.573-30.356-85.27 0 0-122.958 0-122.958 0 5.917 41.049 34.295 75.344 73.502 88.851 13.472 4.263 15.178 11.597 17.054 15.86 0.648 7.214-3.309 14.052-9.892 17.054-18.281 11.238-29.349 31.226-29.162 52.696 1.245 45.398 51.196 72.428 89.891 48.638 20.806-12.79 31.584-37.075 27.099-61.087 0 0-1.364 0.341-1.364 0.341M757.448 562.050c6.054 7.35 11.272 15.349 15.519 23.875 2.285 8.988-3.019 18.146-11.938 20.636 0 0-133.702 40.758-141.036 43.317-2.080 0.699-4.28 1.057-6.48 1.023-2.2 0.034-4.4-0.307-6.481-1.023-7.333-2.559-141.035-43.317-141.035-43.317-8.919-2.49-14.223-11.648-11.938-20.636 4.246-8.526 9.465-16.525 15.519-23.875-8.22-0.512-14.888-6.839-15.86-15.007 0 0 0-43.317 0-43.317-0.051-8.783 6.6-16.167 15.348-17.054 0 0 288.893 0 288.893 0 8.749 0.887 15.4 8.271 15.349 17.054 0 0 0 43.317 0 43.317-0.972 8.168-7.64 14.495-15.86 15.007 0 0 0 0 0 0M740.394 520.78c0 0-252.909 0-252.909 0s0 8.527 0 8.527c0 0 8.186 0 13.131 1.023 6.327 0.051 12.091 3.598 15.008 9.209 2.728 5.457 2.353 11.955-1.024 17.054 0 0-17.054 23.193-17.054 23.193s115.455 35.643 115.455 35.643c0 0 115.285-35.643 115.285-35.643s-17.054-23.193-17.054-23.193c-3.377-5.099-3.752-11.597-1.024-17.054 2.917-5.611 8.681-9.158 15.008-9.209 4.945 0 13.131-1.023 13.131-1.023s2.047-8.527 2.047-8.527" />
<glyph unicode="&#x68;" glyph-name="circle-boat-o" d="M188.859 211.081c0 0-9.038 0-9.038 0-3.633 1.126-5.031 5.508-2.729 8.527 0 0 39.736 45.875 39.736 45.875 1.944 2.046 5.218 2.046 7.162 0 2.559-1.194 1.876-7.674 1.876-7.674s0-42.123 0-42.123c0 0 574.716 0 574.716 0s0 46.216 0 46.216c0 0 0 4.604 4.093 5.116s7.675-5.116 7.675-5.116 35.301-40.759 35.301-40.759c2.746-1.996 3.292-5.867 1.194-8.527 0 0 0-1.535-4.775-1.535 0 0-7.163 0-7.163 0s0-11.597 0-11.597c0-4.587-1.552-9.038-4.434-12.62-3.513-4.229-8.834-6.514-14.325-6.139 0 0-609.506 0-609.506 0-5.662-0.119-11.085 2.251-14.837 6.481-3.036 4.689-4.315 10.317-3.581 15.86 0 0-1.365 8.015-1.365 8.015M512.883 863.733c-393.842 0-639.998-426.347-443.077-767.425s689.233-341.077 886.154 0c44.903 77.783 68.54 166.003 68.54 255.809 0 282.566-229.051 511.616-511.617 511.616 0 0 0 0 0 0M512.883-125.392c-367.579 0-597.329 397.918-413.539 716.263s643.289 318.345 827.079 0c41.901-72.598 63.969-154.934 63.969-238.754 0-263.722-213.787-477.509-477.509-477.509 0 0 0 0 0 0M822.411 430.906c0 0-229.545 0-229.545 0s-76.742 99.765-76.742 99.765c0 0-2.9 9.891-22 9.891 0 0-125.346 0-125.346 0-3.922-0.648-7.725-1.91-11.256-3.752-19.373-8.322-36.324-21.402-49.285-38.030-11.768-19.782-15.519-42.123 0-47.921 0 0 135.408-1.024 135.408-1.024s15.519-19.27 15.519-19.27c0 0-252.227 0-252.227 0-12.603-0.256-22.819-10.267-23.364-22.853 1.364-13.302 6.651-17.054 61.564-135.066 4.878-8.596 14.411-13.422 24.217-12.279 0 0 470.005 0 470.005 0 24.728 3.581 47.29 16.065 63.44 35.131 26.86 30.936 45.091 68.403 52.868 108.633 0.682 27.798-23.705 26.775-33.256 26.775 0 0 0 0 0 0M738.506 295.498c0 0-465.4 0-465.4 0s-47.41 99.936-47.41 99.936c0 0 263.141 0 267.916 0 6.737-1.024 13.456 2.063 17.054 7.844 3.462 6.072 3.462 13.541 0 19.612 0 0-38.030 48.604-44.169 56.449-3.684 4.263-9.243 6.429-14.837 5.798 0 0-109.316 0-109.316 0 9.022 8.408 19.323 15.314 30.527 20.465 0 0 119.377 0 119.377 0s75.208-97.549 81.518-104.711c6.31-7.163 20.294-5.116 20.294-5.116s223.065 0 223.065 0c-23.535-92.432-78.619-100.277-78.619-100.277s0 0 0 0" />
<glyph unicode="&#x69;" glyph-name="circle-activities-o" d="M512.383 863.733c-393.842 0-639.998-426.347-443.077-767.425s689.233-341.077 886.154 0c44.903 77.783 68.54 166.003 68.54 255.809 0 282.566-229.051 511.616-511.617 511.616 0 0 0 0 0 0M512.383-125.392c-367.579 0-597.329 397.918-413.539 716.263s643.289 318.345 827.079 0c41.901-72.598 63.969-154.934 63.969-238.754 0-263.722-213.787-477.509-477.509-477.509 0 0 0 0 0 0M512.383 479.85c-98.725-0.392-159.999-107.507-110.287-192.811 49.695-85.304 173.097-84.809 222.127 0.887 11.17 19.544 17.002 41.68 16.917 64.191-0.29 70.824-57.932 128.023-128.757 127.733 0 0 0 0 0 0M512.383 258.15c-72.462 0-117.757 78.448-81.517 141.206 36.222 62.758 126.812 62.758 163.035 0 8.305-14.359 12.654-30.663 12.62-47.239 0.102-52.066-42.072-94.308-94.138-94.308 0 0 0 0.341 0 0.341M840.5 355.357c-1.33 6.276-4.98 11.818-10.232 15.519 0 0-106.758 65.146-106.758 65.146s-2.387 6.139-2.387 6.139c0 0 26.945 106.246 29.333 114.943 4.058 9.687 1.449 20.891-6.481 27.798-5.696 4.724-13.268 6.481-20.465 4.775 0 0-120.4-29.332-120.4-29.332s-6.651 2.728-6.651 2.728c0 0-59.177 98.913-61.394 102.324-3.718 8.612-12.108 14.274-21.488 14.495-8.066-0.221-15.502-4.365-19.953-11.085 0 0-64.805-105.904-64.805-105.904s-6.48-2.899-6.48-2.899c0 0-114.602 29.844-114.602 29.844-9.346 3.445-19.834 1.177-26.945-5.798-5.014-5.884-7.027-13.746-5.458-21.318 0 0 29.504-119.377 29.504-119.377s-3.411-7.504-3.411-7.504c0 0-105.734-62.929-105.734-62.929-14.564-9.243-14.564-30.492 0-39.735 0 0 105.563-64.293 105.563-64.293s3.070-6.992 3.070-6.992c0 0-30.697-118.525-30.697-119.548-1.723-7.538 0.239-15.451 5.287-21.318 5.627-5.644 13.592-8.305 21.488-7.162 0 0 120.741 29.503 120.741 29.503s7.333-2.899 7.333-2.899c0 0 59.518-99.595 61.565-102.323 4.161-8.493 12.875-13.814 22.34-13.644 9.551 0.444 17.975 6.362 21.659 15.178 0 0 61.735 102.324 61.735 102.324s6.992 2.728 6.992 2.728c0 0 119.377-30.014 119.377-30.014 7.879-2.269 16.372 0.187 21.829 6.309 6.532 7.163 8.391 17.43 4.775 26.434 0 0-27.627 114.261-27.627 114.261s2.558 6.481 2.558 6.481c0 0 99.424 59.177 106.928 64.122 7.555 5.048 11.426 14.070 9.891 23.023 0 0 0 0 0 0M704.069 296.009c-5.287-2.728-9.192-7.555-10.744-13.302 0 0-5.969-14.154-5.969-14.154-1.466-5.253-1.108-10.847 1.023-15.861 0 0 24.899-102.323 24.899-102.323s-104.54 26.093-104.54 26.093c-4.775 2.37-10.403 2.37-15.178 0-9.55-4.093-17.054-6.481-17.054-7.163-2.132-1.279-3.974-2.95-5.457-4.946-1.706-2.558-58.666-96.354-58.666-96.354s-55.425 93.285-55.425 93.285c-2.268 4.28-5.952 7.657-10.403 9.55 0 0-17.054 6.992-17.054 6.992s-2.728 2.217-12.961 0c0 0-104.71-25.581-104.71-25.581s24.557 97.207 25.922 102.323c2.506 5.816 2.506 12.433 0 18.248 0 0-6.481 15.69-6.481 15.69-1.586 2.694-3.667 5.065-6.139 6.992 0 0-79.813 48.603-79.813 48.603s-17.224 8.016-17.224 8.016c0 0 91.409 54.402 91.409 54.402 7.162 4.263 7.504 4.604 9.55 8.015s8.015 18.077 8.868 20.635c1.535 4.946 1.228 10.267-0.853 15.008-2.217 9.72-25.069 102.323-25.069 102.323s106.757-27.116 106.757-27.116c2.729-0.818 5.628-0.818 8.357 0 5.116 1.194 21.317 8.357 21.317 8.357 2.609 1.466 4.775 3.581 6.31 6.139 2.217 3.922 31.891 52.185 31.891 52.185s25.751 44.169 25.751 44.169c0 0 55.767-93.284 55.767-93.284 2.319-4.707 6.446-8.271 11.426-9.892 0 0 15.348-6.48 15.348-6.48 4.298-1.535 9.005-1.535 13.302 0 0 0 105.052 25.41 105.052 25.41s-27.286-107.269-27.286-107.269c-0.955-4.536-0.409-9.26 1.535-13.472 3.24-8.186 6.992-15.86 6.992-15.86 2.097-3.496 5.184-6.293 8.868-8.016 0 0 92.773-56.448 92.773-56.448s-92.091-54.914-92.091-54.914" />
<glyph unicode="&#x6a;" glyph-name="circle-propeller-o" d="M512.383 863.733c-393.842 0-639.998-426.347-443.077-767.425s689.233-341.077 886.154 0c44.903 77.783 68.54 166.003 68.54 255.809 0 282.566-229.051 511.616-511.617 511.616 0 0 0 0 0 0M512.383-125.392c-367.579 0-597.329 397.918-413.539 716.263s643.289 318.345 827.079 0c41.901-72.598 63.969-154.934 63.969-238.754 0-263.722-213.787-477.509-477.509-477.509 0 0 0 0 0 0M502.322 418.968c-51.333 0-83.411-55.562-57.745-100.021s89.823-44.46 115.489 0c5.832 10.079 8.902 21.522 8.936 33.17 0.103 36.887-29.793 66.851-66.68 66.851 0 0 0 0 0 0M502.322 322.955c-22.58 0-36.7 24.438-25.411 43.999 11.29 19.56 39.531 19.56 50.821 0 2.592-4.503 3.956-9.636 3.922-14.837-0.187-16.065-13.268-28.992-29.332-28.992 0 0 0-0.17 0-0.17M824.64 421.526c-13.131 72.65-94.479 51.162-84.246-3.752 4.945-8.373 6.975-18.145 5.798-27.798-43.402 13.422-88.868 18.862-134.214 16.031-0.648 5.372-3.82 10.13-8.527 12.79 7.504-3.24 40.247 90.045 42.294 99.425 9.158 31.328 7.606 64.821-4.434 95.16-26.604 51.674-94.82 58.154-145.982 58.666-65.776 0.392-130.189-18.777-185.034-55.084-14.82-8.425-28.037-19.391-39.054-32.403-19.1-26.092-13.813-69.239 27.116-70.944 10.761-0.46 21.215 3.632 28.821 11.256 6.583 6.77 13.711 12.995 21.317 18.588 11.222-43.709 28.446-85.661 51.162-124.664 0 0-6.651-15.519-6.651-15.519-12.944-0.75-25.939-0.75-38.883 0-15.331-0.716-30.611-2.472-45.704-5.286-29.793-4.417-58.035-16.133-82.2-34.108-56.107-45.875-27.457-127.393 1.535-180.601 0 0 4.604-8.186 4.604-8.186 32.164-52.509 77.647-95.587 131.827-124.834 0 0 36.836-23.364 61.224-18.077 24.387 5.286 26.092 11.767 30.867 18.077 9.329 15.263 7.828 34.79-3.752 48.433-17.054 15.519-42.123 16.031-43.146 20.806 0 0 69.75 73.502 85.269 105.904 7.197-0.733 14.462-0.733 21.659 0 8.015-10.88 15.314-22.272 21.829-34.108 9.175-12.943 19.202-25.239 30.015-36.836 20.038-23.79 46.318-41.509 75.889-51.162 65.146-17.053 111.533 37.178 140.354 87.998 2.848 4.997 5.576 10.062 8.186 15.178 26.655 51.742 39.633 109.452 37.689 167.64-0.614 15.929-2.49 31.789-5.628 47.41 0 0 0 0 0 0M792.749 360.644c-1.279-25.803-4.587-51.469-9.891-76.743-10.113-34.67-26.655-67.124-48.774-95.672-24.558-28.31-44.511-52.356-70.092-49.115-23.466 4.57-44.851 16.525-61.053 34.107-19.066 19.817-36.188 41.407-51.161 64.464-12.108 20.294-15.69 28.139-29.503 26.093-11.699-2.405-23.774-2.405-35.472 0-10.096 2.796-20.295-4.093-21.488-14.496-1.024-1.365-53.891-85.27-94.479-109.486-7.077-5.27-10.13-14.377-7.674-22.852 5.662-11.904 14.905-21.744 26.433-28.139 4.605-2.558 31.891-13.302 34.108-14.496s3.581-5.969-5.457-5.287c-14.99 3.343-29.333 9.107-42.464 17.054-31.192 19.441-59.791 42.771-85.099 69.409-30.697 37.655-50.991 82.695-58.836 130.633-3.854 16.457 1.194 33.733 13.302 45.534 19.186 15.195 41.987 25.12 66.169 28.821 29.964 4.502 60.268 6.429 90.556 5.798 4.86-0.085 9.619 1.467 13.473 4.434 3.53 3.377 6.020 7.709 7.162 12.45 1.365 2.728 11.597 19.271 14.496 22.852 4.724 6.071 5.457 14.342 1.876 21.147-8.39 13.643-16.065 27.695-23.023 42.123-13.080 25.649-23.381 52.645-30.697 80.494-0.341 8.101-1.722 16.116-4.093 23.876-2.046 4.263-9.55 19.271-42.805 6.48-14.581-7.077-27.747-16.713-38.883-28.48 0 0-5.798 0 0 8.357s24.899 28.138 86.293 53.89c47.018 19.612 98.64 25.53 148.88 17.054 32.062-5.287 63.782-17.054 71.286-31.379 8.186-16.594 10.641-35.421 6.992-53.55-8.169-39.616-22.87-77.595-43.488-112.385-5.184-4.042-7.844-10.539-6.992-17.054 0-8.868 5.628-8.356 12.791-20.123s8.868-18.93 11.255-21.488c4.485-5.253 11.495-7.606 18.248-6.14 0 0 43.658 0 70.432-3.069 21.915-1.893 43.573-6.071 64.635-12.45 10.573-3.751 13.813-8.356 24.046-5.627 7.162 2.507 12.637 8.373 14.666 15.689 3.036 7.265 4.809 14.991 5.287 22.852-0.427 11.461-1.791 22.87-4.093 34.108-1.535 5.628-5.287 12.45 1.194 10.233s9.55-21.829 10.402-28.139c1.655-13.916 2.234-27.952 1.706-41.953 0 0-0.171 0.171-0.171 0.171" />
<glyph unicode="&#x6b;" glyph-name="full-screen" d="M1024.5 816.628c0 0 0-208.927 0-208.927 0-24.449-26.449-39.721-47.628-27.497-9.811 5.684-15.876 16.162-15.876 27.497 0 0 0 136.216 0 136.216s-213.055-213.373-213.055-213.373c-17.368-17.844-47.5-10.224-54.295 13.749-3.144 11.113-0.127 23.052 7.938 31.339 0 0 211.785 210.197 211.785 210.197s-130.501 0-130.501 0c-24.448 0-39.721 26.449-27.497 47.628 5.684 9.811 16.162 15.876 27.497 15.876 0 0 208.928 0 208.928 0 6.763-0.064 13.335-2.286 18.733-6.351 2.921-2.127 5.493-4.699 7.621-7.62 4.064-5.398 6.286-11.97 6.35-18.734 0 0 0 0 0 0M320.562 529.909c-12.384-12.319-32.387-12.319-44.771 0 0 0-211.784 213.055-211.784 213.055s0-135.898 0-135.898c0-24.449-26.45-39.721-47.628-27.497-9.811 5.684-15.876 16.162-15.876 27.497 0 0 0 208.61 0 208.61-0.095 6.795 2.127 13.399 6.35 18.733 0.762 1.398 1.747 2.668 2.858 3.811 6.382 7.080 15.59 10.922 25.084 10.478 0 0 208.927 0 208.927 0 24.449 0 39.722-26.45 27.497-47.628-5.683-9.811-16.162-15.876-27.497-15.876 0 0-132.088 0-132.088 0s208.928-210.515 208.928-210.515c12.319-12.383 12.319-32.387 0-44.77 0 0 0 0 0 0M1024.5 97.132c0 0 0-208.928 0-208.928-0.064-6.763-2.286-13.335-6.35-18.733-2.128-2.921-4.7-5.493-7.621-7.621-5.398-4.064-11.97-6.286-18.733-6.35 0 0-208.928 0-208.928 0-24.448 0-39.721 26.449-27.497 47.628 5.684 9.811 16.162 15.876 27.497 15.876 0 0 130.501 0 130.501 0s-211.785 210.197-211.785 210.197c-17.369 17.368-9.399 46.993 14.288 53.343 11.018 2.953 22.734-0.19 30.799-8.255 0 0 213.055-213.373 213.055-213.373s0 136.216 0 136.216c0 24.448 26.45 39.721 47.628 27.497 9.811-5.684 15.876-16.162 15.876-27.497 0 0 1.27 0 1.27 0M320.562 130.153c0 0-208.928-210.514-208.928-210.514s130.5 0 130.5 0c24.449 0 39.722-26.45 27.498-47.628-5.684-9.811-16.162-15.876-27.498-15.876 0 0-207.339 0-207.339 0-8.954 0.032-17.495 3.842-23.496 10.478-1.112 1.143-2.096 2.413-2.858 3.81-4.191 5.335-6.414 11.939-6.35 18.734 0 0 0 208.61 0 208.61 0 24.449 26.449 39.721 47.627 27.497 9.812-5.684 15.876-16.162 15.876-27.497 0 0 0-135.898 0-135.898s211.468 214.325 211.468 214.325c12.224 11.494 31.275 11.494 43.5 0 13.177-12.511 13.177-33.53 0-46.041 0 0 0 0 0 0" />
<glyph unicode="&#x6c;" glyph-name="steering-wheel" d="M992.944 382.293c0 0-103.059 0-103.059 0-6.172 79.468-37.333 154.924-89.075 215.543 0 0 72.658 72.963 72.658 72.963 5.624 5.654 8.786 13.315 8.816 21.28 0.061 8.087-3.131 15.839-8.816 21.585-11.856 11.796-31.009 11.796-42.865 0 0 0-72.963-72.658-72.963-72.658-60.407 51.742-135.649 83.055-214.935 89.379 0 0 0 102.755 0 102.755 0 23.409-25.324 38.032-45.602 26.327-9.393-5.441-15.2-15.474-15.2-26.327 0 0 0-102.755 0-102.755-79.651-6.962-155.076-38.853-215.543-91.203 0 0-72.963 72.962-72.963 72.962-11.856 11.796-31.009 11.796-42.865 0-11.978-11.887-11.978-31.283 0-43.169 0 0 72.962-72.963 72.962-72.963-51.681-60.528-82.842-135.892-89.075-215.239 0 0-103.971 0-103.971 0-23.409 0-38.032-25.324-26.327-45.602 5.441-9.393 15.474-15.2 26.327-15.2 0 0 103.059 0 103.059 0 6.688-79.712 38.64-155.228 91.203-215.543 0 0-73.266-72.963-73.266-72.963-11.978-11.887-11.978-31.282 0-43.169 11.887-11.978 31.283-11.978 43.169 0 0 0 72.963 73.266 72.963 73.266 60.528-50.922 135.467-81.627 214.327-87.859 0 0 0-102.755 0-102.755 0-23.409 25.324-38.032 45.602-26.327 9.393 5.441 15.2 15.474 15.2 26.327 0 0 0 102.755 0 102.755 79.347 6.232 154.711 37.394 215.239 89.075 0 0 72.963-72.962 72.963-72.962 5.654-5.624 13.315-8.786 21.28-8.817 8.087-0.060 15.839 3.132 21.585 8.817 11.978 11.887 11.978 31.282 0 43.169 0 0-72.658 72.659-72.658 72.659 51.833 60.711 83.116 136.257 89.379 215.847 0 0 103.059 0 103.059 0 23.409 0 38.032 25.324 26.327 45.601-5.441 9.394-15.474 15.201-26.327 15.201 0 0-0.608 0-0.608 0M512.304 33.289c-245.275-0.243-398.801 265.128-276.376 477.631 122.425 212.533 429.020 212.807 551.84 0.547 28.060-48.52 42.835-103.546 42.835-159.575 0-175.84-142.459-318.42-318.299-318.603 0 0 0 0 0 0M512.304 633.709c-216.942 0-352.53-234.847-244.059-422.726 108.47-187.878 379.648-187.878 488.118 0 24.747 42.835 37.758 91.447 37.758 140.909 0 155.653-126.164 281.817-281.817 281.817 0 0 0 0 0 0M329.898 489.609c0 0 107.315-107.316 107.315-107.316s-152.005 0-152.005 0c4.986 39.126 20.43 76.215 44.69 107.316 0 0 0 0 0 0M285.208 321.491c0 0 152.005 0 152.005 0s-107.315-107.012-107.315-107.012c-23.774 31.161-38.761 68.099-43.474 107.012 0 0-1.216 0-1.216 0M481.903 126.924c-39.035 4.804-76.033 20.156-107.012 44.386 0 0 107.012 107.012 107.012 107.012s0-151.398 0-151.398M481.903 425.462c0 0-107.316 107.316-107.316 107.316 31.192 24.017 68.251 39.248 107.316 44.082 0 0 0-151.398 0-151.398M737.576 382.293c0 0-152.006 0-152.006 0s107.316 107.316 107.316 107.316c24.047-31.192 39.278-68.251 44.082-107.316 0 0 0.608 0 0.608 0M542.705 576.86c39.126-4.804 76.215-20.156 107.316-44.386 0 0-107.316-107.316-107.316-107.316s0 151.702 0 151.702M542.705 126.924c0 0 0 152.006 0 152.006s107.316-107.316 107.316-107.316c-31.070-24.351-68.159-39.795-107.316-44.69 0 0 0 0 0 0M692.886 214.479c0 0-107.62 107.012-107.62 107.012s152.006 0 152.006 0c-5.138-39.065-20.704-76.003-44.994-107.012 0 0 0.608 0 0.608 0" />
<glyph unicode="&#x6d;" glyph-name="boat" d="M1018.169 376.115c-7.378 11.755-20.367 18.768-34.225 18.515 0 0-289.512 0-289.512 0s-41.239 63.121-41.239 63.121c0 0 50.216 76.586 50.216 76.586 6.088 19.974-7.322 40.621-28.054 43.202 0 0-262.861 0-262.861 0-17.028 1.627-33.44-6.957-41.8-21.881 0 0-109.689-161.028-109.689-161.028s-11.502 0-11.502 0c0 0 0 28.054 0 28.054-2.637 15.401-16.074 26.595-31.7 26.37-15.345-0.364-28.418-11.305-31.42-26.37 0 0 0-28.054 0-28.054s-13.466 0-13.466 0c0 0 0 15.149 0 18.516 1.487 19.104-13.662 35.403-32.822 35.347-16.608-0.28-30.13-13.437-30.859-30.017 0 0 0-23.846 0-23.846s-72.659 0-72.659 0c-26.482-3.815-42.95-30.802-34.225-56.107 10.464-42.641 27.605-83.347 50.777-120.63 56.107-87.246 129.326-90.893 129.326-90.893s715.365 0 715.365 0c28.053 0 38.714 30.578 38.714 30.578s80.233 168.321 80.233 168.321c9.117 15.374 9.65 34.366 1.402 50.216 0 0 0 0 0 0M417.824 513.858c0 0 196.375 0 196.375 0s-14.869-22.724-28.054-40.397c-6.676-10.128-6.676-23.257 0-33.384 0 0 29.737-45.166 29.737-45.166s-277.169 0-277.169 0c0 0 79.111 118.947 79.111 118.947M881.268 190.681c0 0-696.849 0-696.849 0s-77.989 10.1-112.214 140.268c0 0 875.55 0 875.55 0s-66.487-140.268-66.487-140.268" />
<glyph unicode="&#x71;" glyph-name="map-pin" d="M512.064 296.128c105.888 0 192 86.144 192 192s-86.112 192-192 192c-105.888 0-192-86.112-192-192s86.112-192 192-192c0 0 0 0 0 0M512.064 648.128c88.256 0 160-71.744 160-160s-71.744-160-160-160c-88.256 0-160 71.744-160 160s71.744 160 160 160c0 0 0 0 0 0M512 864c-211.776 0-384-170.112-384-384.032 0-224 192.032-453.152 332.032-614.208 0.512-0.64 22.976-25.76 50.752-25.76 0.064 0 2.336 0 2.464 0 27.744 0 50.24 25.12 50.752 25.76 140.064 161.056 332.064 390.176 332.064 614.208 0 213.92-172.256 384.032-384.064 384.032 0 0 0 0 0 0M515.744-92.256c-0.672-0.64-2.624-2.048-4.32-3.136-0.32 0.864-2.688 2.752-4.128 4.256-117.28 134.944-315.296 362.688-315.296 571.104 0 176.448 143.584 320.032 320 320.032 176.512 0 320.064-143.584 320.064-320.064 0-208.384-198.016-436.128-316.32-572.192 0 0 0 0 0 0" />
<glyph unicode="&#x72;" glyph-name="clock" d="M512 864c-282.783 0-512-229.287-512-512 0-282.783 229.217-512 512-512s512 229.217 512 512c0 282.783-229.217 512-512 512 0 0 0 0 0 0M512-48.696c-221.322 0-400.696 179.409-400.696 400.696s179.374 400.696 400.696 400.696c221.322 0 400.696-179.409 400.696-400.696s-179.374-400.696-400.696-400.696c0 0 0 0 0 0M550.957 641.391c0 0-77.914 0-77.914 0s0-305.53 0-305.53c0 0 189.496-189.496 189.496-189.496s55.096 55.096 55.096 55.096c0 0-166.678 166.678-166.678 166.678s0 273.252 0 273.252" />
<glyph unicode="&#x73;" glyph-name="ticket" d="M589.97 622.114c0 0 192.031-192.032 192.031-192.032s-347.583-347.583-347.583-347.583c0 0-192.032 192.031-192.032 192.031s347.584 347.584 347.584 347.584M461.744 27.166c0 0 375.556 375.556 375.556 375.556 7.691 7.691 11.537 16.811 11.537 27.36s-3.846 19.669-11.537 27.36c0 0-219.97 219.971-219.97 219.971-7.283 7.282-16.403 10.924-27.36 10.924s-20.078-3.642-27.361-10.924c0 0-375.556-375.556-375.556-375.556-7.691-7.691-11.536-16.811-11.536-27.361s3.845-19.669 11.536-27.36c0 0 219.971-219.97 219.971-219.97 7.282-7.283 16.402-10.924 27.36-10.924s20.078 3.641 27.36 10.924c0 0 0 0 0 0M1001.972 414.258c0 0-551.152-551.764-551.152-551.764-15.007-15.007-33.315-22.494-54.992-22.494s-39.986 7.487-54.993 22.494c0 0-76.568 76.568-76.568 76.568 22.698 22.698 34.030 50.228 34.030 82.659s-11.332 59.961-34.030 82.659c-22.698 22.698-50.228 34.030-82.659 34.030s-59.961-11.332-82.659-34.030c0 0-75.955 76.568-75.955 76.568-15.007 15.007-22.494 33.315-22.494 54.992s7.487 39.986 22.494 54.993c0 0 551.152 550.573 551.152 550.573 15.007 15.007 33.315 22.494 54.992 22.494s39.986-7.487 54.993-22.494c0 0 75.955-75.955 75.955-75.955-22.698-22.698-34.030-50.229-34.030-82.659 0-32.431 11.332-59.961 34.030-82.659s50.228-34.030 82.659-34.030c32.431 0 59.961 11.332 82.659 34.030 0 0 76.568-75.956 76.568-75.956 15.007-15.007 22.494-33.315 22.494-54.992s-7.487-39.986-22.494-54.993c0 0 0-0.034 0-0.034" />
<glyph unicode="&#x74;" glyph-name="help" d="M512-160c-282.752 0-512 229.248-512 512s229.248 512 512 512c282.752 0 512-229.248 512-512s-229.248-512-512-512c0 0 0 0 0 0M512 770.912c-231.392 0-418.912-187.52-418.912-418.912s187.52-418.912 418.912-418.912c231.392 0 418.912 187.52 418.912 418.912s-187.52 418.912-418.912 418.912c0 0 0 0 0 0M558.56 265.504c0-25.504 0-53.152 0-53.152s-93.088 0-93.088 0c0 0 0 67.36 0 93.088s20.864 46.56 46.56 46.56c0 0 0 0 0 0 51.392 0 93.088 41.696 93.088 93.088s-41.696 93.088-93.088 93.088c-51.392 0-93.088-41.696-93.088-93.088 0-17.024 4.896-32.8 12.896-46.56 0 0-99.36 0-99.36 0-3.904 14.944-6.624 30.4-6.624 46.56 0 102.816 83.36 186.176 186.176 186.176s186.176-83.36 186.176-186.176c0-86.624-59.424-158.816-139.648-179.584 0 0 0 0 0 0M558.56 72.736c0 0-93.088 0-93.088 0s0 93.088 0 93.088c0 0 93.088 0 93.088 0s0-93.088 0-93.088c0 0 0 0 0 0" />
<glyph unicode="&#x75;" glyph-name="parking" d="M657.408 428.8q0-31.744-22.528-54.272t-55.296-22.528h-144.384v153.6h144.384q32.768 0 55.296-22.528t22.528-54.272zM759.808 428.8q0 73.728-52.224 126.976t-128 52.224h-246.784v-512h102.4v153.6h144.384q74.752 0 126.976 52.224t53.248 126.976zM1024 352q0-104.448-40.96-198.656t-108.544-163.84-163.84-108.544-198.656-40.96-198.656 40.96-163.84 108.544-108.544 163.84-40.96 198.656 40.96 198.656 108.544 163.84 163.84 108.544 198.656 40.96 198.656-40.96 163.84-108.544 108.544-163.84 40.96-198.656z" />
<glyph unicode="&#x76;" glyph-name="car" horiz-adv-x="1169" d="M274.432 242.432q0 37.888-26.624 64.512t-64.512 26.624-64.512-26.624-27.648-64.512 27.648-64.512 64.512-26.624 64.512 26.624 26.624 64.512zM294.912 424.704h580.608l-51.2 204.8q-1.024 4.096-8.192 9.216t-11.264 6.144h-439.296q-5.12 0-12.288-6.144t-7.168-9.216zM1079.296 242.432q0 37.888-27.648 64.512t-64.512 26.624-64.512-26.624-26.624-64.512 26.624-64.512 64.512-26.624 64.512 26.624 27.648 64.512zM1170.432 296.704v-219.136q0-8.192-5.12-13.312t-13.312-5.12h-55.296v-72.704q0-46.080-31.744-77.824t-77.824-31.744-77.824 31.744-31.744 77.824v72.704h-584.704v-72.704q0-46.080-31.744-77.824t-77.824-31.744-77.824 31.744-32.768 77.824v72.704h-54.272q-8.192 0-13.312 5.12t-5.12 13.312v219.136q0 53.248 37.888 91.136t90.112 36.864h16.384l59.392 239.616q13.312 54.272 59.392 90.112t102.4 36.864h439.296q55.296 0 102.4-36.864t59.392-90.112l59.392-239.616h16.384q53.248 0 90.112-36.864t37.888-91.136z" />
<glyph unicode="&#x77;" glyph-name="bus" horiz-adv-x="878" d="M219.136 168.704q0 30.72-21.504 52.224t-51.2 21.504-52.224-21.504-21.504-52.224 21.504-51.2 52.224-21.504 51.2 21.504 21.504 51.2zM804.864 168.704q0 30.72-21.504 52.224t-52.224 21.504-51.2-21.504-21.504-52.224 21.504-51.2 51.2-21.504 52.224 21.504 21.504 51.2zM778.24 395.008l-40.96 220.16q-3.072 13.312-13.312 21.504t-22.528 8.192h-525.312q-12.288 0-22.528-8.192t-13.312-21.504l-40.96-220.16q-3.072-16.384 8.192-29.696t27.648-13.312h607.232q17.408 0 27.648 13.312t8.192 29.696zM649.216 745.216q0 11.264-8.192 19.456t-19.456 8.192h-365.568q-11.264 0-19.456-8.192t-8.192-19.456 8.192-19.456 19.456-8.192h365.568q11.264 0 19.456 8.192t8.192 19.456zM877.568 330.496v-344.064h-72.704v-73.728q0-29.696-21.504-51.2t-52.224-21.504-51.2 21.504-21.504 51.2v73.728h-439.296v-73.728q0-29.696-21.504-51.2t-51.2-21.504-52.224 21.504-21.504 51.2v73.728h-72.704v344.064q0 64.512 14.336 128l58.368 259.072q6.144 45.056 56.32 78.848t131.072 50.176 179.2 17.408 178.176-17.408 131.072-50.176 56.32-78.848l59.392-259.072q13.312-58.368 13.312-128z" />
<glyph unicode="&#x78;" glyph-name="train" horiz-adv-x="878" d="M621.568 864q105.472 0 181.248-53.248t74.752-130.048v-512q0-73.728-71.68-125.952t-174.080-56.32l121.856-114.688q8.192-9.216 4.096-20.48t-17.408-11.264h-603.136q-12.288 0-17.408 11.264t5.12 20.48l121.856 114.688q-103.424 3.072-175.104 56.32t-71.68 125.952v512q0 76.8 74.752 130.048t181.248 53.248h365.568zM439.296 96q45.056 0 77.824 31.744t31.744 77.824-31.744 77.824-77.824 31.744-77.824-31.744-32.768-77.824 32.768-77.824 77.824-31.744zM768 424.704v292.864h-658.432v-292.864h658.432z" />
</font>
</defs>
</svg>
